<svg xmlns="http://www.w3.org/2000/svg" xmlns:xlink="http://www.w3.org/1999/xlink" width="500" zoomAndPan="magnify" viewBox="0 0 375 374.999991" height="500" preserveAspectRatio="xMidYMid meet" version="1.2"><defs><clipPath id="2e35e6d853"><path d="M 66.339844 76.636719 L 308.589844 76.636719 L 308.589844 298.636719 L 66.339844 298.636719 Z M 66.339844 76.636719 "/></clipPath></defs><g id="bf84be2f7b"><g clip-rule="nonzero" clip-path="url(#2e35e6d853)"><path style=" stroke:none;fill-rule:nonzero;fill:#000000;fill-opacity:1;" d="M 224.222656 76.613281 L 281.222656 76.613281 C 288.753906 76.613281 295.589844 79.6875 300.539062 84.65625 C 305.492188 89.613281 308.566406 96.472656 308.566406 104 L 308.566406 178.074219 C 308.566406 185.613281 305.5 192.460938 300.539062 197.417969 C 295.589844 202.378906 288.742188 205.460938 281.222656 205.460938 L 224.222656 205.460938 C 216.691406 205.460938 209.855469 202.378906 204.90625 197.417969 C 199.953125 192.460938 196.878906 185.613281 196.878906 178.074219 L 196.878906 104 C 196.878906 96.460938 199.953125 89.613281 204.90625 84.65625 C 209.855469 79.695312 216.691406 76.613281 224.222656 76.613281 Z M 93.738281 139.597656 L 150.742188 139.597656 C 155.136719 139.597656 159.132812 137.789062 162.027344 134.890625 C 164.925781 131.980469 166.730469 127.988281 166.730469 123.585938 L 166.730469 104 C 166.730469 99.601562 164.925781 95.597656 162.027344 92.695312 C 159.121094 89.785156 155.125 87.988281 150.742188 87.988281 L 93.738281 87.988281 C 89.34375 87.988281 85.347656 89.796875 82.449219 92.695312 C 79.542969 95.609375 77.75 99.601562 77.75 104 L 77.75 123.585938 C 77.75 127.988281 79.554688 131.988281 82.449219 134.890625 C 85.347656 137.789062 89.34375 139.597656 93.738281 139.597656 Z M 150.742188 150.972656 L 93.738281 150.972656 C 86.210938 150.972656 79.375 147.890625 74.421875 142.929688 C 69.472656 137.972656 66.394531 131.113281 66.394531 123.585938 L 66.394531 104 C 66.394531 96.460938 69.460938 89.613281 74.421875 84.65625 C 79.375 79.695312 86.222656 76.613281 93.738281 76.613281 L 150.742188 76.613281 C 158.269531 76.613281 165.105469 79.695312 170.054688 84.65625 C 175.007812 89.613281 178.085938 96.472656 178.085938 104 L 178.085938 123.585938 C 178.085938 131.125 175.007812 137.972656 170.054688 142.929688 C 165.105469 147.890625 158.257812 150.972656 150.742188 150.972656 Z M 93.738281 287.21875 L 150.742188 287.21875 C 155.136719 287.21875 159.132812 285.410156 162.027344 282.511719 C 164.933594 279.609375 166.730469 275.609375 166.730469 271.207031 L 166.730469 197.132812 C 166.730469 192.734375 164.933594 188.730469 162.027344 185.828125 C 159.121094 182.917969 155.136719 181.121094 150.742188 181.121094 L 93.738281 181.121094 C 89.34375 181.121094 85.347656 182.929688 82.449219 185.828125 C 79.542969 188.742188 77.75 192.734375 77.75 197.132812 L 77.75 271.207031 C 77.75 275.609375 79.554688 279.609375 82.449219 282.511719 C 85.347656 285.421875 89.34375 287.21875 93.738281 287.21875 Z M 150.742188 298.59375 L 93.738281 298.59375 C 86.210938 298.59375 79.375 295.511719 74.421875 290.550781 C 69.472656 285.59375 66.394531 278.734375 66.394531 271.207031 L 66.394531 197.132812 C 66.394531 189.59375 69.460938 182.746094 74.421875 177.789062 C 79.375 172.832031 86.222656 169.75 93.738281 169.75 L 150.742188 169.75 C 158.269531 169.75 165.105469 172.832031 170.054688 177.789062 C 175.007812 182.746094 178.085938 189.59375 178.085938 197.132812 L 178.085938 271.207031 C 178.085938 278.746094 175.007812 285.59375 170.054688 290.550781 C 165.105469 295.511719 158.269531 298.59375 150.742188 298.59375 Z M 224.234375 224.234375 L 281.234375 224.234375 C 288.765625 224.234375 295.601562 227.316406 300.550781 232.277344 C 305.5 237.234375 308.578125 244.09375 308.578125 251.621094 L 308.578125 271.207031 C 308.578125 278.746094 305.5 285.59375 300.550781 290.550781 C 295.601562 295.511719 288.753906 298.59375 281.234375 298.59375 L 224.234375 298.59375 C 216.703125 298.59375 209.867188 295.511719 204.917969 290.550781 C 199.964844 285.582031 196.890625 278.734375 196.890625 271.207031 L 196.890625 251.621094 C 196.890625 244.082031 199.964844 237.234375 204.917969 232.277344 C 209.867188 227.316406 216.703125 224.234375 224.234375 224.234375 Z M 281.234375 235.609375 L 224.234375 235.609375 C 219.839844 235.609375 215.839844 237.417969 212.945312 240.316406 C 210.039062 243.230469 208.246094 247.222656 208.246094 251.621094 L 208.246094 271.207031 C 208.246094 275.609375 210.050781 279.609375 212.945312 282.511719 C 215.851562 285.421875 219.839844 287.21875 224.234375 287.21875 L 281.234375 287.21875 C 285.628906 287.21875 289.628906 285.410156 292.523438 282.511719 C 295.429688 279.597656 297.222656 275.609375 297.222656 271.207031 L 297.222656 251.621094 C 297.222656 247.222656 295.417969 243.21875 292.523438 240.316406 C 289.617188 237.417969 285.628906 235.609375 281.234375 235.609375 Z M 281.234375 87.988281 L 224.234375 87.988281 C 219.839844 87.988281 215.839844 89.796875 212.945312 92.695312 C 210.039062 95.597656 208.246094 99.601562 208.246094 104 L 208.246094 178.074219 C 208.246094 182.472656 210.050781 186.476562 212.945312 189.378906 C 215.851562 192.289062 219.839844 194.085938 224.234375 194.085938 L 281.234375 194.085938 C 285.628906 194.085938 289.628906 192.277344 292.523438 189.378906 C 295.429688 186.464844 297.222656 182.472656 297.222656 178.074219 L 297.222656 104 C 297.222656 99.601562 295.417969 95.597656 292.523438 92.695312 C 289.617188 89.785156 285.628906 87.988281 281.234375 87.988281 Z M 281.234375 87.988281 "/></g></g></svg>