<svg xmlns="http://www.w3.org/2000/svg" xmlns:xlink="http://www.w3.org/1999/xlink" width="500" zoomAndPan="magnify" viewBox="0 0 375 374.999991" height="500" preserveAspectRatio="xMidYMid meet" version="1.2"><defs><clipPath id="5179b29364"><path d="M 73.617188 73.78125 L 301.617188 73.78125 L 301.617188 301.03125 L 73.617188 301.03125 Z M 73.617188 73.78125 "/></clipPath></defs><g id="10763af7c3"><g clip-rule="nonzero" clip-path="url(#5179b29364)"><path style=" stroke:none;fill-rule:evenodd;fill:#000000;fill-opacity:1;" d="M 189.703125 73.242188 C 125.335938 73.242188 73.078125 125.5 73.078125 189.867188 C 73.078125 254.230469 125.335938 306.492188 189.703125 306.492188 C 254.066406 306.492188 306.328125 254.230469 306.328125 189.867188 C 306.328125 125.5 254.066406 73.242188 189.703125 73.242188 Z M 189.703125 89.511719 C 245.085938 89.511719 290.054688 134.480469 290.054688 189.867188 C 290.054688 245.25 245.085938 290.21875 189.703125 290.21875 C 134.316406 290.21875 89.351562 245.25 89.351562 189.867188 C 89.351562 134.480469 134.316406 89.511719 189.703125 89.511719 Z M 189.703125 89.511719 "/></g><path style=" stroke:none;fill-rule:evenodd;fill:#000000;fill-opacity:1;" d="M 135.457031 198 L 243.945312 198 C 248.4375 198 252.082031 194.355469 252.082031 189.867188 C 252.082031 185.375 248.4375 181.730469 243.945312 181.730469 L 135.457031 181.730469 C 130.964844 181.730469 127.320312 185.375 127.320312 189.867188 C 127.320312 194.355469 130.964844 198 135.457031 198 Z M 135.457031 198 "/><path style=" stroke:none;fill-rule:evenodd;fill:#000000;fill-opacity:1;" d="M 197.839844 244.109375 L 197.839844 135.621094 C 197.839844 131.128906 194.191406 127.484375 189.703125 127.484375 C 185.210938 127.484375 181.566406 131.128906 181.566406 135.621094 L 181.566406 244.109375 C 181.566406 248.601562 185.210938 252.246094 189.703125 252.246094 C 194.191406 252.246094 197.839844 248.601562 197.839844 244.109375 Z M 197.839844 244.109375 "/></g></svg>