<svg xmlns="http://www.w3.org/2000/svg" xmlns:xlink="http://www.w3.org/1999/xlink" width="500" zoomAndPan="magnify" viewBox="0 0 375 374.999991" height="500" preserveAspectRatio="xMidYMid meet" version="1.2"><defs><clipPath id="acc5d80dd1"><path d="M 71.316406 63.902344 L 303.816406 63.902344 L 303.816406 311.402344 L 71.316406 311.402344 Z M 71.316406 63.902344 "/></clipPath></defs><g id="03bd6f2062"><g clip-rule="nonzero" clip-path="url(#acc5d80dd1)"><path style=" stroke:none;fill-rule:nonzero;fill:#100f0d;fill-opacity:1;" d="M 249.644531 164.449219 C 247.515625 164.449219 245.78125 162.714844 245.78125 160.582031 C 245.78125 158.449219 247.515625 156.714844 249.644531 156.714844 C 251.777344 156.714844 253.511719 158.449219 253.511719 160.582031 C 253.511719 162.714844 251.777344 164.449219 249.644531 164.449219 Z M 226.457031 161.234375 L 226.457031 71.636719 L 249.644531 71.636719 L 249.644531 148.980469 C 243.25 148.980469 238.050781 154.183594 238.050781 160.582031 C 238.050781 162.371094 238.457031 164.066406 239.183594 165.578125 L 237.609375 167.15625 C 234.125 164.820312 230.390625 162.832031 226.457031 161.234375 Z M 257.375 218.589844 C 257.375 248.441406 233.101562 272.730469 203.269531 272.730469 C 173.433594 272.730469 149.160156 248.441406 149.160156 218.589844 C 149.160156 188.734375 173.433594 164.449219 203.269531 164.449219 C 233.101562 164.449219 257.375 188.734375 257.375 218.589844 Z M 287.160156 297.066406 C 287.890625 297.796875 288.292969 298.765625 288.292969 299.800781 C 288.292969 300.832031 287.890625 301.804688 287.160156 302.535156 C 286.429688 303.265625 285.460938 303.667969 284.429688 303.667969 C 283.394531 303.667969 282.425781 303.265625 281.695312 302.535156 L 244.152344 264.96875 C 246.085938 263.261719 247.910156 261.433594 249.617188 259.5 Z M 133.703125 211.316406 L 133.703125 121.910156 L 156.890625 121.910156 L 156.890625 177.710938 C 150.433594 185.039062 145.679688 193.898438 143.253906 203.671875 Z M 125.972656 226.324219 C 123.84375 226.324219 122.109375 224.589844 122.109375 222.457031 C 122.109375 220.324219 123.84375 218.589844 125.972656 218.589844 C 128.101562 218.589844 129.835938 220.324219 129.835938 222.457031 C 129.835938 224.589844 128.101562 226.324219 125.972656 226.324219 Z M 99.734375 208.480469 L 87.324219 224.445312 L 87.324219 148.980469 L 110.515625 148.980469 L 110.515625 210.398438 L 104.511719 207.394531 C 102.867188 206.570312 100.863281 207.023438 99.734375 208.480469 Z M 180.078125 90.972656 L 203.269531 90.972656 L 203.269531 156.714844 C 195.070312 156.714844 187.246094 158.320312 180.078125 161.234375 Z M 299.886719 129.644531 L 284.429688 129.644531 C 282.292969 129.644531 280.5625 131.375 280.5625 133.511719 C 280.5625 135.648438 282.292969 137.378906 284.429688 137.378906 L 291.371094 137.378906 L 271.34375 160.277344 L 261.058594 158.566406 C 260.601562 155.953125 259.269531 153.640625 257.375 151.945312 L 257.375 67.769531 C 257.375 65.632812 255.644531 63.902344 253.511719 63.902344 L 222.59375 63.902344 C 220.457031 63.902344 218.726562 65.632812 218.726562 67.769531 L 218.726562 158.671875 C 216.207031 158.019531 213.628906 157.527344 210.996094 157.195312 L 210.996094 87.105469 C 210.996094 84.96875 209.265625 83.238281 207.132812 83.238281 L 176.214844 83.238281 C 174.082031 83.238281 172.351562 84.96875 172.351562 87.105469 L 172.351562 165.019531 C 169.636719 166.59375 167.054688 168.371094 164.621094 170.328125 L 164.621094 118.042969 C 164.621094 115.90625 162.890625 114.175781 160.753906 114.175781 L 129.835938 114.175781 C 127.703125 114.175781 125.972656 115.90625 125.972656 118.042969 L 125.972656 210.855469 C 123.003906 210.855469 120.296875 211.976562 118.242188 213.820312 L 118.242188 145.113281 C 118.242188 142.976562 116.511719 141.246094 114.378906 141.246094 L 83.460938 141.246094 C 81.324219 141.246094 79.59375 142.976562 79.59375 145.113281 L 79.59375 234.386719 L 72.679688 243.285156 C 71.371094 244.96875 71.671875 247.402344 73.359375 248.710938 C 74.0625 249.261719 74.898438 249.527344 75.730469 249.527344 C 76.878906 249.527344 78.019531 249.011719 78.78125 248.03125 L 103.890625 215.730469 L 114.46875 221.023438 C 114.414062 221.496094 114.378906 221.972656 114.378906 222.457031 C 114.378906 228.855469 119.578125 234.058594 125.972656 234.058594 C 132.367188 234.058594 137.566406 228.855469 137.566406 222.457031 C 137.566406 221.121094 137.335938 219.839844 136.921875 218.644531 L 141.542969 214.945312 C 141.472656 216.152344 141.433594 217.367188 141.433594 218.589844 C 141.433594 252.707031 169.171875 280.464844 203.269531 280.464844 C 216.136719 280.464844 228.097656 276.507812 238.003906 269.753906 L 276.230469 308.003906 C 278.417969 310.195312 281.332031 311.402344 284.429688 311.402344 C 287.523438 311.402344 290.4375 310.195312 292.625 308.003906 C 294.816406 305.8125 296.023438 302.898438 296.023438 299.800781 C 296.023438 296.703125 294.816406 293.789062 292.625 291.59375 L 254.402344 253.347656 C 261.152344 243.433594 265.105469 231.464844 265.105469 218.589844 C 265.105469 199.972656 256.84375 183.25 243.800781 171.898438 L 244.648438 171.050781 C 246.164062 171.773438 247.859375 172.183594 249.644531 172.183594 C 254.003906 172.183594 257.808594 169.761719 259.789062 166.191406 L 272.199219 168.261719 C 272.410156 168.296875 272.621094 168.316406 272.832031 168.316406 C 273.9375 168.316406 275.003906 167.839844 275.742188 166.996094 L 296.023438 143.800781 L 296.023438 148.980469 C 296.023438 151.117188 297.753906 152.847656 299.886719 152.847656 C 302.023438 152.847656 303.753906 151.117188 303.753906 148.980469 L 303.753906 133.511719 C 303.753906 131.375 302.023438 129.644531 299.886719 129.644531 "/></g><path style=" stroke:none;fill-rule:nonzero;fill:#100f0d;fill-opacity:1;" d="M 203.269531 257.261719 C 181.957031 257.261719 164.621094 239.914062 164.621094 218.589844 C 164.621094 197.265625 181.957031 179.917969 203.269531 179.917969 C 224.578125 179.917969 241.914062 197.265625 241.914062 218.589844 C 241.914062 239.914062 224.578125 257.261719 203.269531 257.261719 Z M 203.269531 172.183594 C 177.695312 172.183594 156.890625 193 156.890625 218.589844 C 156.890625 244.175781 177.695312 264.996094 203.269531 264.996094 C 228.839844 264.996094 249.644531 244.175781 249.644531 218.589844 C 249.644531 193 228.839844 172.183594 203.269531 172.183594 "/><path style=" stroke:none;fill-rule:nonzero;fill:#100f0d;fill-opacity:1;" d="M 203.269531 241.792969 C 190.480469 241.792969 180.078125 231.382812 180.078125 218.589844 C 180.078125 216.453125 178.347656 214.722656 176.214844 214.722656 C 174.082031 214.722656 172.351562 216.453125 172.351562 218.589844 C 172.351562 235.648438 186.21875 249.527344 203.269531 249.527344 C 205.402344 249.527344 207.132812 247.796875 207.132812 245.660156 C 207.132812 243.523438 205.402344 241.792969 203.269531 241.792969 "/></g></svg>