<svg xmlns="http://www.w3.org/2000/svg" xmlns:xlink="http://www.w3.org/1999/xlink" width="500" zoomAndPan="magnify" viewBox="0 0 375 374.999991" height="500" preserveAspectRatio="xMidYMid meet" version="1.2"><g id="d8f022a5db"><path style=" stroke:none;fill-rule:nonzero;fill:#000000;fill-opacity:1;" d="M 270.324219 136.628906 C 271.609375 136.632812 272.703125 136.179688 273.613281 135.273438 L 298.160156 110.722656 C 298.378906 110.507812 298.570312 110.273438 298.738281 110.019531 C 298.910156 109.765625 299.050781 109.5 299.167969 109.21875 C 299.285156 108.9375 299.375 108.644531 299.433594 108.347656 C 299.492188 108.046875 299.523438 107.746094 299.523438 107.441406 C 299.523438 107.136719 299.492188 106.832031 299.433594 106.535156 C 299.375 106.234375 299.285156 105.945312 299.167969 105.664062 C 299.050781 105.378906 298.910156 105.113281 298.738281 104.859375 C 298.570312 104.605469 298.378906 104.371094 298.160156 104.15625 L 270.957031 76.949219 C 270.734375 76.742188 270.5 76.558594 270.242188 76.394531 C 269.988281 76.234375 269.71875 76.097656 269.4375 75.984375 C 269.15625 75.875 268.867188 75.789062 268.570312 75.734375 C 268.273438 75.675781 267.972656 75.648438 267.671875 75.648438 C 267.371094 75.648438 267.070312 75.675781 266.773438 75.734375 C 266.476562 75.789062 266.1875 75.875 265.90625 75.984375 C 265.625 76.097656 265.355469 76.234375 265.101562 76.394531 C 264.84375 76.558594 264.609375 76.742188 264.386719 76.949219 L 239.847656 101.496094 C 238.9375 102.40625 238.484375 103.5 238.484375 104.789062 L 238.484375 130.058594 L 197.164062 171.378906 L 160.441406 134.648438 C 161.171875 132.769531 161.761719 130.847656 162.222656 128.882812 C 162.679688 126.917969 163 124.929688 163.183594 122.921875 C 163.363281 120.914062 163.40625 118.902344 163.308594 116.886719 C 163.210938 114.871094 162.972656 112.875 162.59375 110.894531 C 162.21875 108.910156 161.707031 106.964844 161.058594 105.054688 C 160.410156 103.144531 159.632812 101.289062 158.726562 99.488281 C 157.820312 97.6875 156.792969 95.957031 155.644531 94.296875 C 154.496094 92.636719 153.238281 91.066406 151.875 89.582031 C 150.507812 88.101562 149.042969 86.71875 147.484375 85.441406 C 145.925781 84.160156 144.285156 82.996094 142.5625 81.945312 C 140.839844 80.894531 139.054688 79.964844 137.203125 79.164062 C 135.351562 78.363281 133.457031 77.691406 131.511719 77.15625 C 129.566406 76.617188 127.597656 76.21875 125.597656 75.953125 C 123.597656 75.691406 121.585938 75.570312 119.570312 75.585938 C 117.554688 75.605469 115.546875 75.761719 113.554688 76.058594 C 111.558594 76.355469 109.59375 76.789062 107.660156 77.359375 C 107.464844 77.414062 107.277344 77.484375 107.09375 77.566406 C 106.910156 77.644531 106.734375 77.738281 106.5625 77.84375 C 106.390625 77.945312 106.226562 78.058594 106.070312 78.183594 C 105.910156 78.3125 105.765625 78.445312 105.625 78.589844 C 105.484375 78.734375 105.355469 78.886719 105.234375 79.046875 C 105.117188 79.207031 105.007812 79.378906 104.910156 79.550781 C 104.8125 79.726562 104.726562 79.90625 104.652344 80.09375 C 104.578125 80.28125 104.515625 80.472656 104.464844 80.664062 C 104.417969 80.859375 104.378906 81.054688 104.355469 81.253906 C 104.332031 81.453125 104.320312 81.65625 104.320312 81.855469 C 104.324219 82.054688 104.335938 82.253906 104.367188 82.453125 C 104.394531 82.652344 104.433594 82.847656 104.484375 83.042969 C 104.539062 83.234375 104.605469 83.425781 104.679688 83.609375 C 104.757812 83.796875 104.847656 83.976562 104.949219 84.148438 C 105.050781 84.320312 105.160156 84.488281 105.285156 84.648438 C 105.40625 84.804688 105.539062 84.957031 105.679688 85.097656 L 124.726562 104.15625 L 121.9375 120.972656 L 105.140625 123.761719 L 86.035156 104.75 C 85.894531 104.609375 85.746094 104.476562 85.585938 104.355469 C 85.425781 104.230469 85.261719 104.121094 85.085938 104.019531 C 84.914062 103.917969 84.734375 103.828125 84.550781 103.75 C 84.363281 103.675781 84.175781 103.609375 83.984375 103.554688 C 83.789062 103.503906 83.59375 103.460938 83.394531 103.433594 C 83.195312 103.40625 82.996094 103.390625 82.796875 103.390625 C 82.597656 103.386719 82.394531 103.398438 82.195312 103.421875 C 81.996094 103.449219 81.800781 103.484375 81.605469 103.535156 C 81.414062 103.582031 81.222656 103.644531 81.035156 103.71875 C 80.847656 103.792969 80.667969 103.878906 80.492188 103.976562 C 80.316406 104.074219 80.148438 104.183594 79.988281 104.300781 C 79.828125 104.421875 79.675781 104.550781 79.53125 104.6875 C 79.386719 104.828125 79.25 104.976562 79.125 105.132812 C 79 105.289062 78.886719 105.453125 78.78125 105.625 C 78.675781 105.796875 78.585938 105.972656 78.503906 106.15625 C 78.421875 106.339844 78.355469 106.527344 78.296875 106.71875 C 77.726562 108.65625 77.292969 110.621094 76.992188 112.613281 C 76.695312 114.609375 76.539062 116.617188 76.519531 118.632812 C 76.503906 120.652344 76.625 122.660156 76.886719 124.660156 C 77.148438 126.660156 77.546875 128.632812 78.085938 130.578125 C 78.625 132.523438 79.292969 134.421875 80.09375 136.269531 C 80.894531 138.121094 81.824219 139.910156 82.875 141.632812 C 83.925781 143.351562 85.089844 144.992188 86.371094 146.554688 C 87.648438 148.113281 89.03125 149.578125 90.515625 150.941406 C 91.996094 152.308594 93.570312 153.566406 95.226562 154.714844 C 96.886719 155.863281 98.617188 156.890625 100.421875 157.796875 C 102.222656 158.703125 104.078125 159.480469 105.988281 160.128906 C 107.898438 160.777344 109.847656 161.289062 111.828125 161.664062 C 113.808594 162.042969 115.808594 162.277344 117.824219 162.375 C 119.839844 162.476562 121.851562 162.433594 123.859375 162.25 C 125.867188 162.066406 127.855469 161.746094 129.820312 161.285156 C 131.785156 160.828125 133.707031 160.234375 135.589844 159.503906 L 149.191406 173.152344 L 139.035156 183.273438 C 138.820312 183.488281 138.625 183.722656 138.457031 183.976562 C 138.285156 184.230469 138.144531 184.5 138.027344 184.78125 C 137.910156 185.0625 137.820312 185.355469 137.761719 185.652344 C 137.699219 185.953125 137.671875 186.257812 137.671875 186.5625 C 137.671875 186.867188 137.699219 187.167969 137.761719 187.46875 C 137.820312 187.769531 137.910156 188.058594 138.027344 188.34375 C 138.144531 188.625 138.285156 188.890625 138.457031 189.144531 C 138.625 189.398438 138.820312 189.636719 139.035156 189.851562 L 140.449219 191.253906 C 140.714844 191.519531 140.949219 191.808594 141.160156 192.117188 C 141.367188 192.429688 141.542969 192.757812 141.6875 193.105469 C 141.832031 193.449219 141.941406 193.808594 142.015625 194.175781 C 142.085938 194.542969 142.125 194.914062 142.125 195.289062 C 142.125 195.664062 142.089844 196.035156 142.015625 196.402344 C 141.945312 196.769531 141.835938 197.128906 141.691406 197.472656 C 141.550781 197.820312 141.375 198.148438 141.167969 198.460938 C 140.957031 198.773438 140.722656 199.0625 140.457031 199.328125 C 140.191406 199.59375 139.90625 199.832031 139.59375 200.039062 C 139.28125 200.246094 138.953125 200.425781 138.605469 200.566406 C 138.261719 200.710938 137.902344 200.820312 137.535156 200.894531 C 137.167969 200.96875 136.796875 201.003906 136.421875 201.003906 C 136.046875 201.003906 135.675781 200.96875 135.308594 200.898438 C 134.941406 200.824219 134.582031 200.714844 134.238281 200.574219 C 133.890625 200.429688 133.5625 200.253906 133.25 200.046875 C 132.9375 199.839844 132.648438 199.601562 132.382812 199.335938 L 130.960938 197.914062 C 130.054688 197.003906 128.957031 196.550781 127.671875 196.550781 C 126.386719 196.546875 125.292969 197 124.382812 197.90625 L 87.457031 234.847656 C 86.59375 235.714844 85.773438 236.621094 85 237.566406 C 84.226562 238.511719 83.5 239.492188 82.820312 240.507812 C 82.140625 241.523438 81.515625 242.574219 80.9375 243.652344 C 80.363281 244.730469 79.839844 245.832031 79.375 246.960938 C 78.90625 248.09375 78.496094 249.242188 78.140625 250.410156 C 77.789062 251.582031 77.492188 252.765625 77.253906 253.964844 C 77.015625 255.164062 76.835938 256.371094 76.71875 257.589844 C 76.597656 258.804688 76.539062 260.023438 76.539062 261.246094 C 76.539062 262.46875 76.597656 263.6875 76.71875 264.90625 C 76.839844 266.121094 77.019531 267.328125 77.257812 268.527344 C 77.496094 269.726562 77.792969 270.910156 78.148438 272.082031 C 78.503906 273.25 78.914062 274.398438 79.382812 275.53125 C 79.851562 276.660156 80.371094 277.761719 80.949219 278.839844 C 81.527344 279.917969 82.152344 280.964844 82.832031 281.980469 C 83.511719 282.996094 84.238281 283.980469 85.015625 284.921875 C 85.789062 285.867188 86.609375 286.773438 87.472656 287.636719 C 88.339844 288.5 89.242188 289.320312 90.1875 290.097656 C 91.132812 290.871094 92.113281 291.601562 93.128906 292.28125 C 94.144531 292.957031 95.195312 293.585938 96.273438 294.164062 C 97.347656 294.738281 98.453125 295.261719 99.582031 295.730469 C 100.710938 296.195312 101.859375 296.609375 103.03125 296.964844 C 104.199219 297.320312 105.386719 297.617188 106.582031 297.855469 C 107.78125 298.09375 108.988281 298.273438 110.207031 298.394531 C 111.421875 298.511719 112.640625 298.574219 113.863281 298.574219 C 115.085938 298.574219 116.308594 298.515625 117.523438 298.394531 C 118.738281 298.277344 119.949219 298.097656 121.148438 297.859375 C 122.34375 297.621094 123.53125 297.324219 124.699219 296.96875 C 125.871094 296.617188 127.019531 296.203125 128.148438 295.738281 C 129.277344 295.269531 130.382812 294.75 131.460938 294.171875 C 132.539062 293.597656 133.585938 292.96875 134.605469 292.292969 C 135.621094 291.613281 136.601562 290.886719 137.546875 290.113281 C 138.492188 289.335938 139.398438 288.515625 140.261719 287.652344 L 177.195312 250.71875 C 177.414062 250.503906 177.605469 250.269531 177.773438 250.015625 C 177.945312 249.761719 178.089844 249.492188 178.207031 249.210938 C 178.324219 248.929688 178.410156 248.636719 178.472656 248.339844 C 178.53125 248.039062 178.5625 247.734375 178.5625 247.429688 C 178.5625 247.125 178.53125 246.820312 178.472656 246.523438 C 178.410156 246.222656 178.324219 245.933594 178.207031 245.648438 C 178.089844 245.367188 177.945312 245.097656 177.773438 244.84375 C 177.605469 244.589844 177.414062 244.355469 177.195312 244.140625 L 175.785156 242.730469 C 175.519531 242.464844 175.28125 242.175781 175.074219 241.863281 C 174.863281 241.550781 174.6875 241.222656 174.542969 240.875 C 174.402344 240.53125 174.292969 240.171875 174.21875 239.804688 C 174.144531 239.4375 174.109375 239.066406 174.109375 238.691406 C 174.109375 238.316406 174.144531 237.945312 174.21875 237.578125 C 174.292969 237.210938 174.402344 236.851562 174.542969 236.507812 C 174.6875 236.160156 174.863281 235.832031 175.074219 235.519531 C 175.28125 235.207031 175.519531 234.917969 175.785156 234.65625 C 176.050781 234.394531 176.34375 234.164062 176.65625 233.964844 C 176.96875 233.761719 177.296875 233.589844 177.644531 233.449219 C 177.992188 233.3125 178.347656 233.207031 178.710938 233.136719 C 179.078125 233.0625 179.449219 233.027344 179.820312 233.027344 C 180.195312 233.027344 180.5625 233.0625 180.929688 233.136719 C 181.296875 233.207031 181.652344 233.3125 181.996094 233.449219 C 182.34375 233.589844 182.671875 233.761719 182.984375 233.964844 C 183.296875 234.164062 183.589844 234.394531 183.859375 234.65625 L 185.28125 236.066406 C 185.496094 236.28125 185.730469 236.472656 185.984375 236.640625 C 186.234375 236.8125 186.503906 236.953125 186.785156 237.070312 C 187.066406 237.1875 187.355469 237.273438 187.65625 237.332031 C 187.953125 237.394531 188.253906 237.421875 188.558594 237.421875 C 188.863281 237.421875 189.164062 237.394531 189.464844 237.332031 C 189.761719 237.273438 190.050781 237.1875 190.332031 237.070312 C 190.613281 236.953125 190.882812 236.8125 191.136719 236.640625 C 191.390625 236.472656 191.625 236.28125 191.839844 236.066406 L 201.957031 225.921875 L 215.558594 239.53125 C 214.835938 241.414062 214.246094 243.335938 213.789062 245.300781 C 213.328125 247.265625 213.011719 249.25 212.832031 251.257812 C 212.648438 253.265625 212.609375 255.277344 212.707031 257.292969 C 212.808594 259.304688 213.046875 261.300781 213.425781 263.285156 C 213.800781 265.265625 214.316406 267.207031 214.964844 269.117188 C 215.613281 271.027344 216.390625 272.882812 217.296875 274.683594 C 218.203125 276.484375 219.230469 278.214844 220.378906 279.871094 C 221.523438 281.53125 222.78125 283.101562 224.148438 284.582031 C 225.515625 286.066406 226.976562 287.445312 228.535156 288.726562 C 230.09375 290.003906 231.734375 291.171875 233.453125 292.222656 C 235.175781 293.273438 236.960938 294.199219 238.808594 295 C 240.660156 295.804688 242.554688 296.472656 244.5 297.011719 C 246.441406 297.550781 248.414062 297.949219 250.414062 298.214844 C 252.410156 298.476562 254.417969 298.601562 256.4375 298.585938 C 258.453125 298.570312 260.457031 298.414062 262.453125 298.121094 C 264.445312 297.824219 266.410156 297.394531 268.34375 296.824219 C 268.539062 296.765625 268.726562 296.699219 268.910156 296.617188 C 269.09375 296.535156 269.269531 296.445312 269.441406 296.339844 C 269.613281 296.238281 269.777344 296.121094 269.933594 295.996094 C 270.089844 295.871094 270.238281 295.738281 270.378906 295.59375 C 270.519531 295.449219 270.648438 295.296875 270.765625 295.136719 C 270.886719 294.972656 270.996094 294.804688 271.09375 294.628906 C 271.191406 294.457031 271.277344 294.273438 271.351562 294.089844 C 271.425781 293.902344 271.488281 293.710938 271.539062 293.515625 C 271.585938 293.324219 271.625 293.125 271.648438 292.925781 C 271.671875 292.726562 271.683594 292.527344 271.683594 292.328125 C 271.679688 292.125 271.664062 291.925781 271.636719 291.726562 C 271.609375 291.53125 271.570312 291.332031 271.519531 291.140625 C 271.464844 290.945312 271.398438 290.757812 271.320312 290.574219 C 271.246094 290.386719 271.15625 290.207031 271.054688 290.035156 C 270.953125 289.859375 270.84375 289.695312 270.71875 289.535156 C 270.597656 289.375 270.464844 289.226562 270.324219 289.085938 L 251.277344 270.027344 L 254.0625 253.210938 L 270.863281 250.421875 L 289.921875 269.46875 C 290.0625 269.613281 290.210938 269.742188 290.371094 269.867188 C 290.53125 269.988281 290.695312 270.101562 290.871094 270.199219 C 291.042969 270.300781 291.222656 270.390625 291.40625 270.46875 C 291.59375 270.546875 291.78125 270.609375 291.972656 270.664062 C 292.167969 270.71875 292.363281 270.757812 292.5625 270.785156 C 292.761719 270.8125 292.960938 270.828125 293.160156 270.828125 C 293.363281 270.832031 293.5625 270.820312 293.761719 270.796875 C 293.960938 270.773438 294.15625 270.734375 294.351562 270.6875 C 294.542969 270.636719 294.734375 270.574219 294.921875 270.5 C 295.109375 270.425781 295.289062 270.339844 295.464844 270.242188 C 295.640625 270.144531 295.808594 270.039062 295.96875 269.917969 C 296.128906 269.800781 296.28125 269.667969 296.425781 269.53125 C 296.570312 269.390625 296.707031 269.242188 296.832031 269.085938 C 296.957031 268.929688 297.070312 268.765625 297.175781 268.59375 C 297.28125 268.425781 297.371094 268.246094 297.453125 268.0625 C 297.535156 267.878906 297.601562 267.691406 297.660156 267.5 C 298.230469 265.566406 298.667969 263.601562 298.964844 261.605469 C 299.261719 259.609375 299.417969 257.601562 299.4375 255.585938 C 299.453125 253.570312 299.332031 251.558594 299.070312 249.558594 C 298.808594 247.558594 298.410156 245.585938 297.871094 243.640625 C 297.335938 241.699219 296.664062 239.800781 295.863281 237.949219 C 295.0625 236.097656 294.132812 234.3125 293.082031 232.589844 C 292.03125 230.867188 290.867188 229.226562 289.585938 227.667969 C 288.308594 226.105469 286.925781 224.644531 285.441406 223.277344 C 283.960938 221.910156 282.386719 220.652344 280.730469 219.503906 C 279.070312 218.355469 277.339844 217.328125 275.539062 216.421875 C 273.734375 215.515625 271.878906 214.738281 269.96875 214.089844 C 268.058594 213.441406 266.109375 212.929688 264.128906 212.554688 C 262.148438 212.179688 260.148438 211.941406 258.132812 211.84375 C 256.117188 211.746094 254.105469 211.789062 252.097656 211.96875 C 250.089844 212.152344 248.101562 212.472656 246.136719 212.933594 C 244.171875 213.394531 242.25 213.988281 240.367188 214.714844 L 203.648438 177.984375 L 244.96875 136.667969 Z M 188.390625 226.386719 C 187.667969 225.902344 186.910156 225.480469 186.117188 225.125 C 185.324219 224.769531 184.507812 224.484375 183.664062 224.269531 C 182.824219 224.054688 181.96875 223.910156 181.101562 223.839844 C 180.234375 223.769531 179.367188 223.773438 178.503906 223.847656 C 177.636719 223.925781 176.785156 224.074219 175.941406 224.296875 C 175.101562 224.519531 174.285156 224.8125 173.496094 225.171875 C 172.703125 225.53125 171.949219 225.957031 171.230469 226.445312 C 170.511719 226.9375 169.839844 227.480469 169.214844 228.085938 C 168.597656 228.703125 168.039062 229.371094 167.539062 230.085938 C 167.039062 230.800781 166.605469 231.554688 166.234375 232.347656 C 165.867188 233.140625 165.570312 233.957031 165.34375 234.800781 C 165.117188 235.644531 164.964844 236.5 164.886719 237.371094 C 164.808594 238.238281 164.804688 239.109375 164.878906 239.980469 C 164.953125 240.847656 165.101562 241.707031 165.328125 242.550781 C 165.550781 243.394531 165.84375 244.214844 166.210938 245.007812 C 166.574219 245.800781 167.007812 246.554688 167.503906 247.273438 L 133.691406 281.085938 C 133.113281 281.664062 132.507812 282.214844 131.878906 282.738281 C 131.25 283.265625 130.597656 283.761719 129.925781 284.230469 C 129.253906 284.699219 128.5625 285.136719 127.847656 285.542969 C 127.136719 285.953125 126.410156 286.328125 125.667969 286.671875 C 124.921875 287.015625 124.164062 287.324219 123.394531 287.601562 C 122.621094 287.878906 121.839844 288.125 121.046875 288.332031 C 120.253906 288.539062 119.453125 288.714844 118.644531 288.851562 C 117.835938 288.992188 117.023438 289.09375 116.207031 289.160156 C 115.390625 289.226562 114.574219 289.257812 113.753906 289.253906 C 112.933594 289.25 112.117188 289.207031 111.300781 289.128906 C 110.484375 289.054688 109.671875 288.941406 108.867188 288.792969 C 108.058594 288.644531 107.261719 288.464844 106.472656 288.246094 C 105.679688 288.027344 104.902344 287.773438 104.132812 287.488281 C 103.367188 287.203125 102.613281 286.882812 101.871094 286.53125 C 101.132812 286.175781 100.410156 285.792969 99.703125 285.378906 C 98.996094 284.960938 98.308594 284.515625 97.640625 284.039062 L 137.054688 244.613281 C 137.277344 244.402344 137.476562 244.167969 137.652344 243.914062 C 137.828125 243.660156 137.976562 243.390625 138.097656 243.105469 C 138.21875 242.824219 138.3125 242.53125 138.375 242.230469 C 138.4375 241.925781 138.472656 241.621094 138.472656 241.3125 C 138.476562 241.003906 138.449219 240.699219 138.390625 240.398438 C 138.332031 240.09375 138.246094 239.800781 138.128906 239.515625 C 138.011719 239.230469 137.867188 238.957031 137.699219 238.699219 C 137.527344 238.445312 137.332031 238.207031 137.113281 237.988281 C 136.894531 237.769531 136.660156 237.574219 136.402344 237.40625 C 136.144531 237.234375 135.875 237.089844 135.589844 236.972656 C 135.300781 236.855469 135.007812 236.769531 134.707031 236.710938 C 134.402344 236.652344 134.097656 236.625 133.789062 236.628906 C 133.480469 236.628906 133.175781 236.664062 132.875 236.726562 C 132.570312 236.789062 132.277344 236.882812 131.996094 237.003906 C 131.710938 237.125 131.445312 237.273438 131.191406 237.449219 C 130.9375 237.625 130.703125 237.824219 130.488281 238.046875 L 91.0625 277.480469 C 90.582031 276.8125 90.132812 276.128906 89.714844 275.421875 C 89.296875 274.714844 88.910156 273.992188 88.554688 273.253906 C 88.199219 272.511719 87.875 271.757812 87.585938 270.992188 C 87.296875 270.222656 87.042969 269.441406 86.824219 268.652344 C 86.605469 267.859375 86.421875 267.0625 86.269531 266.253906 C 86.121094 265.449219 86.007812 264.636719 85.929688 263.816406 C 85.851562 263 85.8125 262.183594 85.808594 261.359375 C 85.800781 260.539062 85.832031 259.71875 85.898438 258.902344 C 85.96875 258.085938 86.070312 257.269531 86.210938 256.460938 C 86.347656 255.652344 86.523438 254.851562 86.734375 254.058594 C 86.941406 253.265625 87.1875 252.480469 87.464844 251.710938 C 87.746094 250.9375 88.058594 250.179688 88.402344 249.433594 C 88.75 248.691406 89.128906 247.964844 89.539062 247.253906 C 89.949219 246.542969 90.390625 245.851562 90.859375 245.179688 C 91.332031 244.507812 91.832031 243.855469 92.359375 243.230469 C 92.890625 242.601562 93.445312 241.996094 94.027344 241.417969 L 127.839844 207.597656 C 128.554688 208.097656 129.308594 208.535156 130.101562 208.902344 C 130.894531 209.269531 131.714844 209.570312 132.558594 209.792969 C 133.402344 210.019531 134.261719 210.171875 135.128906 210.246094 C 136 210.324219 136.871094 210.324219 137.742188 210.246094 C 138.613281 210.171875 139.472656 210.019531 140.316406 209.792969 C 141.160156 209.566406 141.976562 209.269531 142.769531 208.898438 C 143.5625 208.527344 144.316406 208.09375 145.03125 207.59375 C 145.75 207.089844 146.417969 206.53125 147.035156 205.914062 C 147.652344 205.296875 148.210938 204.628906 148.714844 203.914062 C 149.214844 203.195312 149.652344 202.441406 150.019531 201.652344 C 150.390625 200.859375 150.6875 200.042969 150.914062 199.195312 C 151.140625 198.351562 151.292969 197.496094 151.371094 196.625 C 151.449219 195.753906 151.449219 194.882812 151.371094 194.011719 C 151.296875 193.140625 151.148438 192.285156 150.921875 191.4375 C 150.695312 190.59375 150.398438 189.777344 150.03125 188.984375 C 149.660156 188.191406 149.226562 187.4375 148.726562 186.71875 L 155.761719 179.6875 L 185.550781 209.472656 L 195.453125 219.351562 Z M 241.398438 224.378906 C 242.058594 224.0625 242.730469 223.769531 243.40625 223.496094 C 244.085938 223.222656 244.773438 222.972656 245.464844 222.742188 C 246.160156 222.515625 246.863281 222.308594 247.570312 222.125 C 248.277344 221.941406 248.992188 221.78125 249.710938 221.644531 C 250.425781 221.503906 251.148438 221.390625 251.875 221.300781 C 252.601562 221.207031 253.328125 221.140625 254.058594 221.09375 C 254.789062 221.050781 255.519531 221.03125 256.25 221.03125 C 256.980469 221.035156 257.710938 221.0625 258.441406 221.109375 C 259.171875 221.160156 259.898438 221.230469 260.625 221.328125 C 261.347656 221.425781 262.070312 221.542969 262.785156 221.6875 C 263.503906 221.828125 264.214844 221.996094 264.921875 222.183594 C 265.628906 222.371094 266.328125 222.582031 267.023438 222.816406 C 267.714844 223.050781 268.398438 223.304688 269.078125 223.582031 C 269.753906 223.859375 270.417969 224.15625 271.078125 224.476562 C 271.734375 224.796875 272.382812 225.140625 273.015625 225.5 C 273.652344 225.863281 274.273438 226.246094 274.886719 226.648438 C 275.496094 227.046875 276.09375 227.46875 276.679688 227.910156 C 277.261719 228.351562 277.832031 228.808594 278.386719 229.285156 C 278.941406 229.761719 279.480469 230.257812 280 230.769531 C 280.523438 231.28125 281.03125 231.808594 281.519531 232.351562 C 282.007812 232.894531 282.476562 233.457031 282.929688 234.03125 C 283.382812 234.605469 283.816406 235.191406 284.230469 235.792969 C 284.644531 236.398438 285.042969 237.011719 285.417969 237.640625 C 285.792969 238.265625 286.148438 238.90625 286.480469 239.554688 C 286.816406 240.207031 287.128906 240.867188 287.421875 241.539062 C 287.710938 242.207031 287.980469 242.886719 288.230469 243.574219 C 288.476562 244.261719 288.703125 244.957031 288.90625 245.660156 C 289.109375 246.363281 289.292969 247.070312 289.449219 247.785156 C 289.605469 248.5 289.742188 249.21875 289.851562 249.941406 C 289.964844 250.664062 290.054688 251.386719 290.117188 252.117188 C 290.183594 252.84375 290.226562 253.574219 290.242188 254.304688 C 290.261719 255.039062 290.253906 255.769531 290.226562 256.5 L 275.824219 242.117188 C 275.292969 241.585938 274.671875 241.203125 273.957031 240.972656 C 273.242188 240.746094 272.515625 240.691406 271.773438 240.816406 L 249.34375 244.597656 C 248.867188 244.675781 248.414062 244.828125 247.980469 245.046875 C 247.550781 245.269531 247.164062 245.550781 246.824219 245.894531 C 246.480469 246.234375 246.199219 246.621094 245.976562 247.054688 C 245.753906 247.484375 245.605469 247.9375 245.527344 248.414062 L 241.742188 270.84375 C 241.621094 271.585938 241.671875 272.3125 241.902344 273.027344 C 242.132812 273.742188 242.511719 274.367188 243.042969 274.894531 L 257.417969 289.296875 C 255.070312 289.371094 252.734375 289.203125 250.417969 288.804688 C 248.101562 288.402344 245.847656 287.773438 243.660156 286.917969 C 241.46875 286.058594 239.386719 284.988281 237.414062 283.710938 C 235.441406 282.433594 233.617188 280.96875 231.941406 279.320312 C 230.703125 278.078125 229.570312 276.746094 228.535156 275.332031 C 227.503906 273.914062 226.585938 272.425781 225.78125 270.867188 C 224.976562 269.308594 224.296875 267.699219 223.742188 266.039062 C 223.1875 264.375 222.761719 262.679688 222.464844 260.953125 C 222.171875 259.222656 222.007812 257.484375 221.980469 255.730469 C 221.953125 253.976562 222.0625 252.234375 222.300781 250.496094 C 222.542969 248.757812 222.914062 247.050781 223.417969 245.371094 C 223.921875 243.691406 224.550781 242.0625 225.308594 240.480469 C 225.511719 240.046875 225.644531 239.589844 225.710938 239.117188 C 225.773438 238.640625 225.761719 238.167969 225.679688 237.695312 C 225.597656 237.222656 225.445312 236.773438 225.222656 236.347656 C 225 235.921875 224.71875 235.539062 224.378906 235.203125 L 139.925781 150.714844 C 139.589844 150.375 139.207031 150.089844 138.78125 149.867188 C 138.355469 149.644531 137.90625 149.492188 137.433594 149.410156 C 136.957031 149.328125 136.484375 149.316406 136.007812 149.382812 C 135.53125 149.445312 135.074219 149.582031 134.640625 149.785156 C 133.980469 150.101562 133.3125 150.394531 132.632812 150.667969 C 131.957031 150.941406 131.269531 151.191406 130.574219 151.421875 C 129.878906 151.648438 129.179688 151.855469 128.472656 152.039062 C 127.765625 152.222656 127.050781 152.382812 126.332031 152.519531 C 125.617188 152.660156 124.894531 152.773438 124.167969 152.863281 C 123.441406 152.957031 122.714844 153.023438 121.984375 153.066406 C 121.257812 153.113281 120.527344 153.132812 119.796875 153.132812 C 119.0625 153.128906 118.332031 153.101562 117.605469 153.054688 C 116.875 153.003906 116.148438 152.933594 115.421875 152.835938 C 114.699219 152.738281 113.976562 152.621094 113.261719 152.476562 C 112.542969 152.335938 111.832031 152.171875 111.125 151.980469 C 110.417969 151.792969 109.71875 151.582031 109.027344 151.351562 C 108.332031 151.117188 107.648438 150.863281 106.972656 150.585938 C 106.296875 150.308594 105.628906 150.007812 104.972656 149.6875 C 104.3125 149.367188 103.667969 149.027344 103.03125 148.667969 C 102.398438 148.304688 101.773438 147.921875 101.164062 147.523438 C 100.550781 147.121094 99.953125 146.699219 99.371094 146.257812 C 98.785156 145.820312 98.21875 145.359375 97.664062 144.882812 C 97.109375 144.40625 96.570312 143.914062 96.046875 143.402344 C 95.527344 142.890625 95.019531 142.363281 94.53125 141.820312 C 94.042969 141.277344 93.570312 140.71875 93.117188 140.144531 C 92.667969 139.570312 92.230469 138.980469 91.816406 138.378906 C 91.402344 137.777344 91.007812 137.164062 90.632812 136.535156 C 90.257812 135.910156 89.902344 135.269531 89.566406 134.621094 C 89.234375 133.96875 88.917969 133.308594 88.628906 132.640625 C 88.335938 131.96875 88.066406 131.289062 87.816406 130.601562 C 87.570312 129.914062 87.34375 129.21875 87.140625 128.519531 C 86.933594 127.816406 86.753906 127.109375 86.597656 126.394531 C 86.4375 125.679688 86.304688 124.960938 86.191406 124.238281 C 86.078125 123.519531 85.988281 122.792969 85.925781 122.0625 C 85.859375 121.335938 85.816406 120.605469 85.800781 119.875 C 85.78125 119.144531 85.785156 118.414062 85.8125 117.683594 L 100.214844 132.066406 C 100.746094 132.597656 101.367188 132.980469 102.082031 133.207031 C 102.796875 133.4375 103.527344 133.492188 104.265625 133.367188 L 126.695312 129.585938 C 127.171875 129.503906 127.625 129.355469 128.054688 129.132812 C 128.484375 128.910156 128.871094 128.628906 129.210938 128.285156 C 129.554688 127.945312 129.835938 127.558594 130.054688 127.128906 C 130.277344 126.699219 130.425781 126.246094 130.507812 125.765625 L 134.296875 103.335938 C 134.421875 102.597656 134.367188 101.871094 134.136719 101.15625 C 133.90625 100.441406 133.527344 99.816406 132.996094 99.285156 L 118.621094 84.886719 C 120.972656 84.820312 123.304688 84.988281 125.621094 85.394531 C 127.933594 85.796875 130.1875 86.429688 132.375 87.289062 C 134.5625 88.148438 136.644531 89.214844 138.617188 90.496094 C 140.589844 91.773438 142.414062 93.234375 144.089844 94.882812 C 145.328125 96.125 146.464844 97.453125 147.496094 98.871094 C 148.527344 100.285156 149.449219 101.773438 150.25 103.332031 C 151.054688 104.890625 151.738281 106.5 152.292969 108.164062 C 152.847656 109.824219 153.273438 111.519531 153.570312 113.25 C 153.867188 114.976562 154.027344 116.71875 154.054688 118.46875 C 154.082031 120.222656 153.976562 121.96875 153.738281 123.703125 C 153.496094 125.441406 153.125 127.148438 152.621094 128.828125 C 152.117188 130.507812 151.488281 132.136719 150.734375 133.722656 C 150.527344 134.15625 150.394531 134.609375 150.332031 135.085938 C 150.269531 135.5625 150.277344 136.035156 150.359375 136.507812 C 150.445312 136.980469 150.597656 137.429688 150.820312 137.855469 C 151.039062 138.277344 151.324219 138.660156 151.664062 139 L 236.132812 223.46875 C 236.46875 223.804688 236.851562 224.085938 237.277344 224.304688 C 237.703125 224.523438 238.148438 224.675781 238.621094 224.757812 C 239.09375 224.839844 239.566406 224.847656 240.039062 224.78125 C 240.515625 224.71875 240.96875 224.582031 241.398438 224.378906 Z M 247.773438 106.710938 L 267.667969 86.808594 L 288.304688 107.445312 L 268.402344 127.335938 L 247.773438 127.335938 Z M 247.773438 106.710938 "/></g></svg>