<svg xmlns="http://www.w3.org/2000/svg" xmlns:xlink="http://www.w3.org/1999/xlink" width="500" zoomAndPan="magnify" viewBox="0 0 375 374.999991" height="500" preserveAspectRatio="xMidYMid meet" version="1.2"><defs><clipPath id="56e800558c"><path d="M 76.796875 76.796875 L 298.046875 76.796875 L 298.046875 298.046875 L 76.796875 298.046875 Z M 76.796875 76.796875 "/></clipPath></defs><g id="90fe12824e"><g clip-rule="nonzero" clip-path="url(#56e800558c)"><path style=" stroke:none;fill-rule:nonzero;fill:#000000;fill-opacity:1;" d="M 283.894531 160.441406 C 283.894531 160.441406 272.601562 159.792969 272.601562 159.792969 C 271.152344 155.34375 269.335938 150.957031 267.074219 146.5625 L 274.710938 138.257812 C 280.082031 132.425781 279.902344 123.457031 274.292969 117.832031 L 257 100.539062 C 251.402344 94.9375 242.414062 94.765625 236.589844 100.121094 L 228.089844 107.640625 C 223.898438 105.511719 219.511719 103.695312 214.851562 102.203125 L 214.398438 90.933594 C 214.066406 83.003906 207.59375 76.796875 199.664062 76.796875 C 199.664062 76.796875 175.175781 76.796875 175.175781 76.796875 C 167.246094 76.796875 160.773438 83.003906 160.441406 90.949219 C 160.441406 90.949219 159.792969 102.242188 159.792969 102.242188 C 155.328125 103.695312 150.941406 105.511719 146.5625 107.765625 C 146.5625 107.765625 138.257812 100.128906 138.257812 100.128906 C 132.425781 94.757812 123.457031 94.945312 117.832031 100.546875 L 100.539062 117.839844 C 94.9375 123.457031 94.757812 132.425781 100.121094 138.25 L 107.640625 146.75 C 105.503906 150.957031 103.6875 155.34375 102.203125 159.988281 L 90.933594 160.441406 C 83.003906 160.773438 76.796875 167.246094 76.796875 175.175781 L 76.796875 199.664062 C 76.796875 207.59375 83.003906 214.066406 90.949219 214.398438 L 102.242188 215.046875 C 103.695312 219.511719 105.511719 223.898438 107.765625 228.277344 L 100.128906 236.582031 C 94.757812 242.414062 94.9375 251.382812 100.546875 257.007812 L 117.839844 274.300781 C 123.449219 279.910156 132.4375 280.082031 138.25 274.71875 L 146.75 267.199219 C 150.941406 269.332031 155.328125 271.144531 159.988281 272.636719 L 160.441406 283.90625 C 160.773438 291.835938 167.246094 298.046875 175.175781 298.046875 C 175.175781 298.046875 199.664062 298.046875 199.664062 298.046875 C 207.59375 298.046875 214.066406 291.835938 214.398438 283.894531 C 214.398438 283.894531 215.046875 272.601562 215.046875 272.601562 C 219.511719 271.144531 223.898438 269.332031 228.277344 267.074219 L 236.582031 274.710938 C 242.421875 280.089844 251.390625 279.910156 257.007812 274.292969 L 274.300781 257 C 279.902344 251.382812 280.082031 242.414062 274.71875 236.589844 L 267.199219 228.089844 C 269.335938 223.835938 271.242188 219.402344 272.636719 214.851562 C 272.636719 214.851562 283.90625 214.398438 283.90625 214.398438 C 291.835938 214.066406 298.046875 207.59375 298.046875 199.664062 L 298.046875 175.175781 C 298.046875 167.246094 291.835938 160.773438 283.894531 160.441406 Z M 272.039062 200.117188 C 260.132812 200.148438 258.296875 212.910156 254.046875 221.414062 C 251.167969 227.074219 252.015625 233.695312 256.214844 238.261719 C 256.214844 238.261719 263.863281 246.578125 263.863281 246.578125 L 246.570312 263.855469 L 238.261719 256.214844 C 229.808594 247.835938 219.484375 255.585938 210.472656 258.578125 C 204.4375 260.550781 200.371094 265.828125 200.117188 272.046875 L 199.664062 283.296875 L 175.175781 283.300781 L 174.722656 272.039062 C 174.472656 265.828125 170.402344 260.550781 164.359375 258.570312 C 155.335938 255.605469 145.128906 247.824219 136.582031 256.214844 C 136.582031 256.214844 128.261719 263.863281 128.261719 263.863281 L 110.984375 246.570312 L 118.625 238.261719 C 127.003906 229.824219 119.253906 219.476562 116.261719 210.472656 C 114.289062 204.4375 109.011719 200.371094 102.796875 200.117188 C 102.796875 200.117188 91.546875 199.664062 91.546875 199.664062 L 91.539062 175.175781 C 91.539062 175.175781 102.800781 174.722656 102.800781 174.722656 C 109.011719 174.46875 114.289062 170.402344 116.269531 164.359375 C 119.257812 155.378906 126.984375 144.984375 118.625 136.582031 C 118.625 136.582031 110.976562 128.261719 110.976562 128.261719 C 110.976562 128.261719 128.269531 110.984375 128.269531 110.984375 L 136.582031 118.625 C 145.027344 127.003906 155.359375 119.253906 164.367188 116.261719 C 170.402344 114.289062 174.472656 109.011719 174.722656 102.796875 L 175.175781 91.546875 L 199.664062 91.539062 L 200.117188 102.800781 C 200.371094 109.011719 204.4375 114.289062 210.480469 116.269531 C 219.46875 119.265625 229.839844 126.964844 238.261719 118.625 C 238.261719 118.625 246.578125 110.976562 246.578125 110.976562 L 263.855469 128.269531 L 256.214844 136.582031 C 252.015625 141.144531 251.167969 147.765625 254.046875 153.417969 C 258.289062 161.933594 260.15625 174.691406 272.046875 174.722656 C 272.046875 174.722656 283.296875 175.175781 283.296875 175.175781 L 283.300781 199.664062 Z M 272.039062 200.117188 "/></g><path style=" stroke:none;fill-rule:nonzero;fill:#000000;fill-opacity:1;" d="M 187.421875 135.023438 C 158.53125 135.023438 135.023438 158.53125 135.023438 187.421875 C 135.023438 216.308594 158.53125 239.816406 187.421875 239.816406 C 216.308594 239.816406 239.816406 216.308594 239.816406 187.421875 C 239.816406 158.53125 216.308594 135.023438 187.421875 135.023438 Z M 187.421875 225.066406 C 166.664062 225.066406 149.773438 208.175781 149.773438 187.421875 C 149.773438 166.664062 166.664062 149.773438 187.421875 149.773438 C 208.175781 149.773438 225.066406 166.664062 225.066406 187.421875 C 225.066406 208.175781 208.175781 225.066406 187.421875 225.066406 Z M 187.421875 225.066406 "/></g></svg>