<svg xmlns="http://www.w3.org/2000/svg" xmlns:xlink="http://www.w3.org/1999/xlink" width="500" zoomAndPan="magnify" viewBox="0 0 375 374.999991" height="500" preserveAspectRatio="xMidYMid meet" version="1.2"><defs><clipPath id="1e3f6e36df"><path d="M 96.714844 82.699219 L 278 82.699219 L 278 291.949219 L 96.714844 291.949219 Z M 96.714844 82.699219 "/></clipPath></defs><g id="96f9f4c36b"><g clip-rule="nonzero" clip-path="url(#1e3f6e36df)"><path style=" stroke:none;fill-rule:nonzero;fill:#000000;fill-opacity:1;" d="M 263.445312 105.351562 L 233.242188 105.351562 L 233.242188 101.046875 C 233.242188 90.949219 225.015625 82.730469 214.902344 82.730469 L 159.796875 82.730469 C 149.683594 82.730469 141.453125 90.949219 141.453125 101.046875 L 141.453125 105.351562 L 111.253906 105.351562 C 103.34375 105.351562 96.902344 111.78125 96.902344 119.683594 L 96.902344 126.476562 C 96.902344 133.871094 102.542969 139.976562 109.75 140.726562 L 124.527344 270.222656 C 125.9375 282.589844 136.402344 291.914062 148.867188 291.914062 L 225.828125 291.914062 C 238.292969 291.914062 248.757812 282.589844 250.167969 270.222656 L 264.945312 140.726562 C 272.15625 139.976562 277.792969 133.871094 277.792969 126.476562 L 277.792969 119.683594 C 277.792969 111.78125 271.355469 105.351562 263.441406 105.351562 Z M 150.769531 101.046875 C 150.769531 96.074219 154.816406 92.03125 159.796875 92.03125 L 214.90625 92.03125 C 219.886719 92.03125 223.933594 96.074219 223.933594 101.046875 L 223.933594 105.351562 L 150.769531 105.351562 Z M 240.917969 269.167969 C 240.042969 276.832031 233.558594 282.613281 225.832031 282.613281 L 148.871094 282.613281 C 141.148438 282.613281 134.660156 276.832031 133.789062 269.167969 L 119.140625 140.808594 L 255.566406 140.808594 L 240.921875 269.167969 Z M 268.484375 126.476562 C 268.484375 129.25 266.226562 131.507812 263.449219 131.507812 L 111.253906 131.507812 C 108.476562 131.507812 106.214844 129.25 106.214844 126.476562 L 106.214844 119.683594 C 106.214844 116.910156 108.476562 114.652344 111.253906 114.652344 L 263.441406 114.652344 C 266.21875 114.652344 268.480469 116.910156 268.480469 119.683594 L 268.480469 126.476562 Z M 268.484375 126.476562 "/></g><path style=" stroke:none;fill-rule:nonzero;fill:#000000;fill-opacity:1;" d="M 187.347656 257.445312 C 189.917969 257.445312 192.003906 255.363281 192.003906 252.796875 L 192.003906 170.625 C 192.003906 168.058594 189.917969 165.976562 187.347656 165.976562 C 184.777344 165.976562 182.691406 168.058594 182.691406 170.625 L 182.691406 252.796875 C 182.691406 255.363281 184.777344 257.445312 187.347656 257.445312 Z M 187.347656 257.445312 "/><path style=" stroke:none;fill-rule:nonzero;fill:#000000;fill-opacity:1;" d="M 215.183594 257.230469 C 215.339844 257.246094 215.492188 257.253906 215.640625 257.253906 C 218.011719 257.253906 220.035156 255.457031 220.269531 253.054688 L 228.246094 171.269531 C 228.496094 168.710938 226.621094 166.4375 224.0625 166.1875 C 221.46875 165.925781 219.226562 167.808594 218.976562 170.363281 L 211 252.148438 C 210.75 254.707031 212.625 256.980469 215.183594 257.230469 Z M 215.183594 257.230469 "/><path style=" stroke:none;fill-rule:nonzero;fill:#000000;fill-opacity:1;" d="M 159.058594 257.253906 C 159.207031 257.253906 159.359375 257.246094 159.515625 257.230469 C 162.074219 256.984375 163.945312 254.707031 163.695312 252.148438 L 155.71875 170.363281 C 155.46875 167.808594 153.226562 165.929688 150.632812 166.1875 C 148.074219 166.4375 146.203125 168.710938 146.449219 171.269531 L 154.425781 253.054688 C 154.660156 255.457031 156.6875 257.253906 159.054688 257.253906 Z M 159.058594 257.253906 "/></g></svg>