<svg xmlns="http://www.w3.org/2000/svg" xmlns:xlink="http://www.w3.org/1999/xlink" width="500" zoomAndPan="magnify" viewBox="0 0 375 374.999991" height="500" preserveAspectRatio="xMidYMid meet" version="1.2"><defs><clipPath id="b5077b4f74"><path d="M 301.527344 195.300781 L 337.5 195.300781 L 337.5 231.269531 L 301.527344 231.269531 Z M 301.527344 195.300781 "/></clipPath><clipPath id="5dfa27d0aa"><path d="M 301.527344 213.285156 C 301.527344 223.21875 309.582031 231.269531 319.515625 231.269531 C 329.449219 231.269531 337.5 223.21875 337.5 213.285156 C 337.5 203.351562 329.449219 195.300781 319.515625 195.300781 C 309.582031 195.300781 301.527344 203.351562 301.527344 213.285156 Z M 301.527344 213.285156 "/></clipPath><clipPath id="7278d15b45"><path d="M 172.015625 290.105469 L 207.984375 290.105469 L 207.984375 326.074219 L 172.015625 326.074219 Z M 172.015625 290.105469 "/></clipPath><clipPath id="7374b2cde8"><path d="M 172.015625 308.089844 C 172.015625 318.023438 180.066406 326.074219 190 326.074219 C 199.933594 326.074219 207.984375 318.023438 207.984375 308.089844 C 207.984375 298.15625 199.933594 290.105469 190 290.105469 C 180.066406 290.105469 172.015625 298.15625 172.015625 308.089844 Z M 172.015625 308.089844 "/></clipPath><clipPath id="692ddd9e8a"><path d="M 214.492188 195.300781 L 250.460938 195.300781 L 250.460938 231.269531 L 214.492188 231.269531 Z M 214.492188 195.300781 "/></clipPath><clipPath id="0fc1abd741"><path d="M 214.492188 213.285156 C 214.492188 223.21875 222.542969 231.269531 232.476562 231.269531 C 242.410156 231.269531 250.460938 223.21875 250.460938 213.285156 C 250.460938 203.351562 242.410156 195.300781 232.476562 195.300781 C 222.542969 195.300781 214.492188 203.351562 214.492188 213.285156 Z M 214.492188 213.285156 "/></clipPath><clipPath id="ad1066f473"><path d="M 257.050781 195.300781 L 293.019531 195.300781 L 293.019531 231.269531 L 257.050781 231.269531 Z M 257.050781 195.300781 "/></clipPath><clipPath id="0193df762d"><path d="M 257.050781 213.285156 C 257.050781 223.21875 265.101562 231.269531 275.035156 231.269531 C 284.96875 231.269531 293.019531 223.21875 293.019531 213.285156 C 293.019531 203.351562 284.96875 195.300781 275.035156 195.300781 C 265.101562 195.300781 257.050781 203.351562 257.050781 213.285156 Z M 257.050781 213.285156 "/></clipPath><clipPath id="09e9392494"><path d="M 32 48 L 319 48 L 319 249 L 32 249 Z M 32 48 "/></clipPath><clipPath id="ea7c5c44eb"><path d="M 24.519531 107.015625 L 252.980469 0.589844 L 318.863281 142.019531 L 90.398438 248.445312 Z M 24.519531 107.015625 "/></clipPath><clipPath id="a39db73052"><path d="M -16.65625 126.195312 L 255.324219 -0.5 L 382.015625 271.480469 L 110.039062 398.175781 Z M -16.65625 126.195312 "/></clipPath><clipPath id="3d8c8980f6"><path d="M 172.015625 195.300781 L 207.984375 195.300781 L 207.984375 231.269531 L 172.015625 231.269531 Z M 172.015625 195.300781 "/></clipPath><clipPath id="9055b40458"><path d="M 172.015625 213.285156 C 172.015625 223.21875 180.066406 231.269531 190 231.269531 C 199.933594 231.269531 207.984375 223.21875 207.984375 213.285156 C 207.984375 203.351562 199.933594 195.300781 190 195.300781 C 180.066406 195.300781 172.015625 203.351562 172.015625 213.285156 Z M 172.015625 213.285156 "/></clipPath><clipPath id="256f56e8a7"><path d="M 172.015625 241.9375 L 207.984375 241.9375 L 207.984375 277.910156 L 172.015625 277.910156 Z M 172.015625 241.9375 "/></clipPath><clipPath id="1dfd13c225"><path d="M 172.015625 259.921875 C 172.015625 269.855469 180.066406 277.910156 190 277.910156 C 199.933594 277.910156 207.984375 269.855469 207.984375 259.921875 C 207.984375 249.988281 199.933594 241.9375 190 241.9375 C 180.066406 241.9375 172.015625 249.988281 172.015625 259.921875 Z M 172.015625 259.921875 "/></clipPath><clipPath id="e45eb849bb"><path d="M 214.492188 241.9375 L 250.460938 241.9375 L 250.460938 277.910156 L 214.492188 277.910156 Z M 214.492188 241.9375 "/></clipPath><clipPath id="df712b2936"><path d="M 214.492188 259.921875 C 214.492188 269.855469 222.542969 277.910156 232.476562 277.910156 C 242.410156 277.910156 250.460938 269.855469 250.460938 259.921875 C 250.460938 249.988281 242.410156 241.9375 232.476562 241.9375 C 222.542969 241.9375 214.492188 249.988281 214.492188 259.921875 Z M 214.492188 259.921875 "/></clipPath><clipPath id="ffee920e10"><path d="M 214.492188 288.574219 L 250.460938 288.574219 L 250.460938 324.546875 L 214.492188 324.546875 Z M 214.492188 288.574219 "/></clipPath><clipPath id="dd9a8caa44"><path d="M 214.492188 306.558594 C 214.492188 316.492188 222.542969 324.546875 232.476562 324.546875 C 242.410156 324.546875 250.460938 316.492188 250.460938 306.558594 C 250.460938 296.628906 242.410156 288.574219 232.476562 288.574219 C 222.542969 288.574219 214.492188 296.628906 214.492188 306.558594 Z M 214.492188 306.558594 "/></clipPath><clipPath id="79f6b5db7a"><path d="M 257.050781 241.9375 L 293.019531 241.9375 L 293.019531 277.910156 L 257.050781 277.910156 Z M 257.050781 241.9375 "/></clipPath><clipPath id="e2aebdd39e"><path d="M 257.050781 259.921875 C 257.050781 269.855469 265.101562 277.910156 275.035156 277.910156 C 284.96875 277.910156 293.019531 269.855469 293.019531 259.921875 C 293.019531 249.988281 284.96875 241.9375 275.035156 241.9375 C 265.101562 241.9375 257.050781 249.988281 257.050781 259.921875 Z M 257.050781 259.921875 "/></clipPath><clipPath id="a618799919"><path d="M 41.445312 147.328125 L 77.414062 147.328125 L 77.414062 183.296875 L 41.445312 183.296875 Z M 41.445312 147.328125 "/></clipPath><clipPath id="9831f9d8a5"><path d="M 41.445312 165.3125 C 41.445312 175.246094 49.496094 183.296875 59.429688 183.296875 C 69.363281 183.296875 77.414062 175.246094 77.414062 165.3125 C 77.414062 155.378906 69.363281 147.328125 59.429688 147.328125 C 49.496094 147.328125 41.445312 155.378906 41.445312 165.3125 Z M 41.445312 165.3125 "/></clipPath><clipPath id="e0ced7bffc"><path d="M 41.445312 195.300781 L 77.414062 195.300781 L 77.414062 231.269531 L 41.445312 231.269531 Z M 41.445312 195.300781 "/></clipPath><clipPath id="b616c4aed7"><path d="M 41.445312 213.285156 C 41.445312 223.21875 49.496094 231.269531 59.429688 231.269531 C 69.363281 231.269531 77.414062 223.21875 77.414062 213.285156 C 77.414062 203.351562 69.363281 195.300781 59.429688 195.300781 C 49.496094 195.300781 41.445312 203.351562 41.445312 213.285156 Z M 41.445312 213.285156 "/></clipPath><clipPath id="f1ff98fa2a"><path d="M 290.757812 123.507812 L 326.730469 123.507812 L 326.730469 159.480469 L 290.757812 159.480469 Z M 290.757812 123.507812 "/></clipPath><clipPath id="b78b297218"><path d="M 290.757812 141.492188 C 290.757812 151.425781 298.8125 159.480469 308.746094 159.480469 C 318.675781 159.480469 326.730469 151.425781 326.730469 141.492188 C 326.730469 131.5625 318.675781 123.507812 308.746094 123.507812 C 298.8125 123.507812 290.757812 131.5625 290.757812 141.492188 Z M 290.757812 141.492188 "/></clipPath><clipPath id="b075f414ac"><path d="M 128.042969 288.574219 L 164.011719 288.574219 L 164.011719 324.546875 L 128.042969 324.546875 Z M 128.042969 288.574219 "/></clipPath><clipPath id="62118b59d8"><path d="M 128.042969 306.558594 C 128.042969 316.492188 136.09375 324.546875 146.027344 324.546875 C 155.960938 324.546875 164.011719 316.492188 164.011719 306.558594 C 164.011719 296.628906 155.960938 288.574219 146.027344 288.574219 C 136.09375 288.574219 128.042969 296.628906 128.042969 306.558594 Z M 128.042969 306.558594 "/></clipPath><clipPath id="b827984d15"><path d="M 35 140 L 332 140 L 332 339 L 35 339 Z M 35 140 "/></clipPath><clipPath id="5b4e99364c"><path d="M 0 290.558594 L 43.597656 140.753906 L 331.6875 224.597656 L 288.089844 374.402344 Z M 0 290.558594 "/></clipPath><clipPath id="95de5f63b3"><path d="M 0 290.558594 L 83.84375 2.472656 L 371.929688 86.3125 L 288.089844 374.402344 Z M 0 290.558594 "/></clipPath><clipPath id="d3129222b5"><path d="M 129.390625 241.9375 L 165.359375 241.9375 L 165.359375 277.910156 L 129.390625 277.910156 Z M 129.390625 241.9375 "/></clipPath><clipPath id="0c20dfa8dc"><path d="M 129.390625 259.921875 C 129.390625 269.855469 137.441406 277.910156 147.375 277.910156 C 157.308594 277.910156 165.359375 269.855469 165.359375 259.921875 C 165.359375 249.988281 157.308594 241.9375 147.375 241.9375 C 137.441406 241.9375 129.390625 249.988281 129.390625 259.921875 Z M 129.390625 259.921875 "/></clipPath><clipPath id="7ae73df893"><path d="M 85.417969 241.9375 L 121.386719 241.9375 L 121.386719 277.910156 L 85.417969 277.910156 Z M 85.417969 241.9375 "/></clipPath><clipPath id="3b608047f3"><path d="M 85.417969 259.921875 C 85.417969 269.855469 93.46875 277.910156 103.402344 277.910156 C 113.335938 277.910156 121.386719 269.855469 121.386719 259.921875 C 121.386719 249.988281 113.335938 241.9375 103.402344 241.9375 C 93.46875 241.9375 85.417969 249.988281 85.417969 259.921875 Z M 85.417969 259.921875 "/></clipPath><clipPath id="8d58451c85"><path d="M 129.390625 195.300781 L 165.359375 195.300781 L 165.359375 231.269531 L 129.390625 231.269531 Z M 129.390625 195.300781 "/></clipPath><clipPath id="a39eb12103"><path d="M 129.390625 213.285156 C 129.390625 223.21875 137.441406 231.269531 147.375 231.269531 C 157.308594 231.269531 165.359375 223.21875 165.359375 213.285156 C 165.359375 203.351562 157.308594 195.300781 147.375 195.300781 C 137.441406 195.300781 129.390625 203.351562 129.390625 213.285156 Z M 129.390625 213.285156 "/></clipPath><clipPath id="8c49f489c8"><path d="M 85.417969 195.300781 L 121.386719 195.300781 L 121.386719 231.269531 L 85.417969 231.269531 Z M 85.417969 195.300781 "/></clipPath><clipPath id="e117201a53"><path d="M 85.417969 213.285156 C 85.417969 223.21875 93.46875 231.269531 103.402344 231.269531 C 113.335938 231.269531 121.386719 223.21875 121.386719 213.285156 C 121.386719 203.351562 113.335938 195.300781 103.402344 195.300781 C 93.46875 195.300781 85.417969 203.351562 85.417969 213.285156 Z M 85.417969 213.285156 "/></clipPath><clipPath id="48a3058ca9"><path d="M 85.417969 147.328125 L 121.386719 147.328125 L 121.386719 183.296875 L 85.417969 183.296875 Z M 85.417969 147.328125 "/></clipPath><clipPath id="dd22b69f91"><path d="M 85.417969 165.3125 C 85.417969 175.246094 93.46875 183.296875 103.402344 183.296875 C 113.335938 183.296875 121.386719 175.246094 121.386719 165.3125 C 121.386719 155.378906 113.335938 147.328125 103.402344 147.328125 C 93.46875 147.328125 85.417969 155.378906 85.417969 165.3125 Z M 85.417969 165.3125 "/></clipPath><clipPath id="a3cf10dc2e"><path d="M 85.417969 102.109375 L 121.386719 102.109375 L 121.386719 138.078125 L 85.417969 138.078125 Z M 85.417969 102.109375 "/></clipPath><clipPath id="cce8131c20"><path d="M 85.417969 120.09375 C 85.417969 130.027344 93.46875 138.078125 103.402344 138.078125 C 113.335938 138.078125 121.386719 130.027344 121.386719 120.09375 C 121.386719 110.160156 113.335938 102.109375 103.402344 102.109375 C 93.46875 102.109375 85.417969 110.160156 85.417969 120.09375 Z M 85.417969 120.09375 "/></clipPath><clipPath id="0705449f4c"><path d="M 128.714844 148.347656 L 164.6875 148.347656 L 164.6875 184.320312 L 128.714844 184.320312 Z M 128.714844 148.347656 "/></clipPath><clipPath id="c89a6d8d2e"><path d="M 128.714844 166.335938 C 128.714844 176.269531 136.769531 184.320312 146.699219 184.320312 C 156.632812 184.320312 164.6875 176.269531 164.6875 166.335938 C 164.6875 156.402344 156.632812 148.347656 146.699219 148.347656 C 136.769531 148.347656 128.714844 156.402344 128.714844 166.335938 Z M 128.714844 166.335938 "/></clipPath></defs><g id="473577313a"><g clip-rule="nonzero" clip-path="url(#b5077b4f74)"><g clip-rule="nonzero" clip-path="url(#5dfa27d0aa)"><path style=" stroke:none;fill-rule:nonzero;fill:#14ae5c;fill-opacity:1;" d="M 301.527344 231.269531 L 301.527344 195.300781 L 337.5 195.300781 L 337.5 231.269531 Z M 301.527344 231.269531 "/></g></g><g clip-rule="nonzero" clip-path="url(#7278d15b45)"><g clip-rule="nonzero" clip-path="url(#7374b2cde8)"><path style=" stroke:none;fill-rule:nonzero;fill:#14ae5c;fill-opacity:1;" d="M 172.015625 326.074219 L 172.015625 290.105469 L 207.984375 290.105469 L 207.984375 326.074219 Z M 172.015625 326.074219 "/></g></g><g clip-rule="nonzero" clip-path="url(#692ddd9e8a)"><g clip-rule="nonzero" clip-path="url(#0fc1abd741)"><path style=" stroke:none;fill-rule:nonzero;fill:#14ae5c;fill-opacity:1;" d="M 214.492188 231.269531 L 214.492188 195.300781 L 250.460938 195.300781 L 250.460938 231.269531 Z M 214.492188 231.269531 "/></g></g><g clip-rule="nonzero" clip-path="url(#ad1066f473)"><g clip-rule="nonzero" clip-path="url(#0193df762d)"><path style=" stroke:none;fill-rule:nonzero;fill:#14ae5c;fill-opacity:1;" d="M 257.050781 231.269531 L 257.050781 195.300781 L 293.019531 195.300781 L 293.019531 231.269531 Z M 257.050781 231.269531 "/></g></g><g clip-rule="nonzero" clip-path="url(#09e9392494)"><g clip-rule="nonzero" clip-path="url(#ea7c5c44eb)"><g clip-rule="nonzero" clip-path="url(#a39db73052)"><path style=" stroke:none;fill-rule:nonzero;fill:#14ae5c;fill-opacity:1;" d="M 118.796875 63.097656 C 131.230469 57.308594 143.960938 53.308594 156.992188 51.101562 C 170.023438 48.894531 182.941406 48.402344 195.746094 49.628906 C 208.550781 50.855469 220.964844 53.65625 232.988281 58.039062 C 245.007812 62.417969 256.335938 68.304688 266.96875 75.695312 C 277.601562 83.082031 287.171875 91.769531 295.6875 101.753906 C 304.203125 111.738281 311.421875 122.972656 317.34375 135.453125 C 323.132812 147.886719 327.132812 160.621094 329.339844 173.652344 C 331.546875 186.683594 332.039062 199.601562 330.8125 212.40625 C 329.585938 225.210938 326.785156 237.625 322.402344 249.644531 C 318.023438 261.667969 312.136719 272.996094 304.746094 283.625 C 297.359375 294.257812 288.671875 303.832031 278.6875 312.347656 C 268.703125 320.863281 257.46875 328.082031 244.988281 334 C 232.554688 339.792969 219.820312 343.792969 206.789062 346 C 193.757812 348.207031 180.839844 348.695312 168.035156 347.472656 C 155.230469 346.246094 142.816406 343.441406 130.796875 339.0625 C 118.773438 334.679688 107.445312 328.796875 96.816406 321.40625 C 86.183594 314.019531 76.628906 305.375 68.15625 295.476562 C 59.683594 285.582031 52.441406 274.304688 46.441406 261.644531 C 40.648438 249.210938 36.648438 236.480469 34.441406 223.449219 C 32.234375 210.417969 31.746094 197.5 32.96875 184.695312 C 34.195312 171.890625 37 159.476562 41.378906 147.453125 C 45.761719 135.433594 51.644531 124.105469 59.035156 113.472656 C 66.421875 102.839844 75.066406 93.289062 84.964844 84.816406 C 94.859375 76.339844 106.136719 69.101562 118.796875 63.097656 Z M 237.101562 317.070312 C 247.945312 312.015625 257.738281 305.738281 266.476562 298.234375 C 275.214844 290.730469 282.804688 282.367188 289.238281 273.144531 C 295.675781 263.921875 300.804688 253.964844 304.625 243.277344 C 308.449219 232.589844 310.902344 221.734375 311.992188 210.710938 C 313.082031 199.683594 312.699219 188.378906 310.84375 176.792969 C 308.988281 165.210938 305.511719 154.058594 300.410156 143.339844 C 295.359375 132.496094 289.078125 122.703125 281.574219 113.964844 C 274.070312 105.226562 265.707031 97.636719 256.484375 91.203125 C 247.261719 84.765625 237.304688 79.636719 226.617188 75.816406 C 215.929688 71.992188 205.074219 69.539062 194.050781 68.449219 C 183.027344 67.359375 171.71875 67.742188 160.136719 69.597656 C 148.550781 71.453125 137.398438 74.929688 126.683594 80.03125 C 115.835938 85.082031 106.042969 91.363281 97.304688 98.867188 C 88.566406 106.371094 80.976562 114.734375 74.542969 123.957031 C 68.105469 133.179688 62.976562 143.136719 59.15625 153.824219 C 55.335938 164.511719 52.878906 175.367188 51.789062 186.390625 C 50.703125 197.414062 51.085938 208.71875 52.9375 220.304688 C 54.792969 231.890625 58.273438 243.042969 63.371094 253.757812 C 68.425781 264.605469 74.703125 274.398438 82.207031 283.136719 C 89.710938 291.875 98.074219 299.460938 107.296875 305.898438 C 116.519531 312.335938 126.476562 317.464844 137.164062 321.285156 C 147.851562 325.105469 158.707031 327.5625 169.730469 328.652344 C 180.757812 329.738281 192.0625 329.355469 203.648438 327.503906 C 215.230469 325.648438 226.382812 322.167969 237.101562 317.070312 Z M 237.101562 317.070312 "/></g></g></g><g clip-rule="nonzero" clip-path="url(#3d8c8980f6)"><g clip-rule="nonzero" clip-path="url(#9055b40458)"><path style=" stroke:none;fill-rule:nonzero;fill:#14ae5c;fill-opacity:1;" d="M 172.015625 231.269531 L 172.015625 195.300781 L 207.984375 195.300781 L 207.984375 231.269531 Z M 172.015625 231.269531 "/></g></g><g clip-rule="nonzero" clip-path="url(#256f56e8a7)"><g clip-rule="nonzero" clip-path="url(#1dfd13c225)"><path style=" stroke:none;fill-rule:nonzero;fill:#14ae5c;fill-opacity:1;" d="M 172.015625 277.910156 L 172.015625 241.9375 L 207.984375 241.9375 L 207.984375 277.910156 Z M 172.015625 277.910156 "/></g></g><g clip-rule="nonzero" clip-path="url(#e45eb849bb)"><g clip-rule="nonzero" clip-path="url(#df712b2936)"><path style=" stroke:none;fill-rule:nonzero;fill:#7ed957;fill-opacity:1;" d="M 214.492188 277.910156 L 214.492188 241.9375 L 250.460938 241.9375 L 250.460938 277.910156 Z M 214.492188 277.910156 "/></g></g><g clip-rule="nonzero" clip-path="url(#ffee920e10)"><g clip-rule="nonzero" clip-path="url(#dd9a8caa44)"><path style=" stroke:none;fill-rule:nonzero;fill:#7ed957;fill-opacity:1;" d="M 214.492188 324.546875 L 214.492188 288.574219 L 250.460938 288.574219 L 250.460938 324.546875 Z M 214.492188 324.546875 "/></g></g><g clip-rule="nonzero" clip-path="url(#79f6b5db7a)"><g clip-rule="nonzero" clip-path="url(#e2aebdd39e)"><path style=" stroke:none;fill-rule:nonzero;fill:#7ed957;fill-opacity:1;" d="M 257.050781 277.910156 L 257.050781 241.9375 L 293.019531 241.9375 L 293.019531 277.910156 Z M 257.050781 277.910156 "/></g></g><g clip-rule="nonzero" clip-path="url(#a618799919)"><g clip-rule="nonzero" clip-path="url(#9831f9d8a5)"><path style=" stroke:none;fill-rule:nonzero;fill:#7ed957;fill-opacity:1;" d="M 41.445312 183.296875 L 41.445312 147.328125 L 77.414062 147.328125 L 77.414062 183.296875 Z M 41.445312 183.296875 "/></g></g><g clip-rule="nonzero" clip-path="url(#e0ced7bffc)"><g clip-rule="nonzero" clip-path="url(#b616c4aed7)"><path style=" stroke:none;fill-rule:nonzero;fill:#c1ff72;fill-opacity:1;" d="M 41.445312 231.269531 L 41.445312 195.300781 L 77.414062 195.300781 L 77.414062 231.269531 Z M 41.445312 231.269531 "/></g></g><g clip-rule="nonzero" clip-path="url(#f1ff98fa2a)"><g clip-rule="nonzero" clip-path="url(#b78b297218)"><path style=" stroke:none;fill-rule:nonzero;fill:#14ae5c;fill-opacity:1;" d="M 290.757812 159.480469 L 290.757812 123.507812 L 326.730469 123.507812 L 326.730469 159.480469 Z M 290.757812 159.480469 "/></g></g><g clip-rule="nonzero" clip-path="url(#b075f414ac)"><g clip-rule="nonzero" clip-path="url(#62118b59d8)"><path style=" stroke:none;fill-rule:nonzero;fill:#7ed957;fill-opacity:1;" d="M 128.042969 324.546875 L 128.042969 288.574219 L 164.011719 288.574219 L 164.011719 324.546875 Z M 128.042969 324.546875 "/></g></g><g clip-rule="nonzero" clip-path="url(#b827984d15)"><g clip-rule="nonzero" clip-path="url(#5b4e99364c)"><g clip-rule="nonzero" clip-path="url(#95de5f63b3)"><path style=" stroke:none;fill-rule:nonzero;fill:#14ae5c;fill-opacity:1;" d="M 41.757812 147.085938 C 45.589844 133.914062 50.96875 121.699219 57.890625 110.441406 C 64.816406 99.183594 72.957031 89.144531 82.3125 80.316406 C 91.671875 71.488281 101.957031 63.996094 113.171875 57.835938 C 124.386719 51.679688 136.277344 47.03125 148.839844 43.902344 C 161.402344 40.769531 174.246094 39.289062 187.367188 39.460938 C 200.488281 39.632812 213.695312 41.601562 226.984375 45.367188 C 240.15625 49.199219 252.371094 54.578125 263.628906 61.503906 C 274.886719 68.425781 284.925781 76.566406 293.753906 85.925781 C 302.582031 95.28125 310.074219 105.566406 316.234375 116.78125 C 322.390625 127.996094 327.039062 139.886719 330.167969 152.449219 C 333.300781 165.011719 334.78125 177.855469 334.609375 190.976562 C 334.4375 204.097656 332.46875 217.304688 328.703125 230.597656 C 324.871094 243.765625 319.492188 255.980469 312.566406 267.238281 C 305.644531 278.496094 297.503906 288.539062 288.144531 297.367188 C 278.789062 306.191406 268.503906 313.683594 257.289062 319.84375 C 246.074219 326.003906 234.183594 330.648438 221.621094 333.78125 C 209.058594 336.914062 196.261719 338.40625 183.234375 338.261719 C 170.207031 338.117188 156.953125 336.136719 143.472656 332.3125 C 130.304688 328.480469 118.089844 323.101562 106.832031 316.179688 C 95.574219 309.253906 85.53125 301.113281 76.703125 291.757812 C 67.878906 282.398438 60.386719 272.113281 54.226562 260.898438 C 48.066406 249.683594 43.421875 237.792969 40.289062 225.230469 C 37.15625 212.667969 35.664062 199.871094 35.808594 186.84375 C 35.953125 173.816406 37.933594 160.5625 41.757812 147.085938 Z M 310.769531 225.375 C 314.113281 213.886719 315.839844 202.382812 315.949219 190.867188 C 316.058594 179.347656 314.765625 168.128906 312.066406 157.210938 C 309.367188 146.292969 305.253906 135.878906 299.730469 125.960938 C 294.207031 116.046875 287.65625 107.046875 280.082031 98.964844 C 272.503906 90.882812 263.746094 83.726562 253.808594 77.488281 C 243.867188 71.253906 233.1875 66.523438 221.765625 63.300781 C 210.277344 59.957031 198.773438 58.230469 187.253906 58.121094 C 175.734375 58.011719 164.519531 59.304688 153.601562 62.003906 C 142.683594 64.703125 132.265625 68.816406 122.351562 74.339844 C 112.433594 79.863281 103.4375 86.414062 95.355469 93.988281 C 87.273438 101.566406 80.113281 110.324219 73.878906 120.261719 C 67.644531 130.203125 62.914062 140.882812 59.691406 152.304688 C 56.347656 163.792969 54.621094 175.296875 54.507812 186.816406 C 54.398438 198.335938 55.695312 209.550781 58.394531 220.46875 C 61.09375 231.386719 65.203125 241.804688 70.726562 251.71875 C 76.25 261.636719 82.800781 270.632812 90.378906 278.714844 C 97.957031 286.796875 106.714844 293.957031 116.652344 300.191406 C 126.589844 306.425781 137.269531 311.15625 148.695312 314.378906 C 160.183594 317.722656 171.6875 319.449219 183.203125 319.5625 C 194.722656 319.671875 205.941406 318.375 216.859375 315.675781 C 227.777344 312.976562 238.191406 308.867188 248.109375 303.34375 C 258.023438 297.820312 267.023438 291.269531 275.105469 283.691406 C 283.1875 276.113281 290.34375 267.355469 296.582031 257.417969 C 302.816406 247.480469 307.546875 236.800781 310.769531 225.375 Z M 310.769531 225.375 "/></g></g></g><g clip-rule="nonzero" clip-path="url(#d3129222b5)"><g clip-rule="nonzero" clip-path="url(#0c20dfa8dc)"><path style=" stroke:none;fill-rule:nonzero;fill:#7ed957;fill-opacity:1;" d="M 129.390625 277.910156 L 129.390625 241.9375 L 165.359375 241.9375 L 165.359375 277.910156 Z M 129.390625 277.910156 "/></g></g><g clip-rule="nonzero" clip-path="url(#7ae73df893)"><g clip-rule="nonzero" clip-path="url(#3b608047f3)"><path style=" stroke:none;fill-rule:nonzero;fill:#7ed957;fill-opacity:1;" d="M 85.417969 277.910156 L 85.417969 241.9375 L 121.386719 241.9375 L 121.386719 277.910156 Z M 85.417969 277.910156 "/></g></g><g clip-rule="nonzero" clip-path="url(#8d58451c85)"><g clip-rule="nonzero" clip-path="url(#a39eb12103)"><path style=" stroke:none;fill-rule:nonzero;fill:#c1ff72;fill-opacity:1;" d="M 129.390625 231.269531 L 129.390625 195.300781 L 165.359375 195.300781 L 165.359375 231.269531 Z M 129.390625 231.269531 "/></g></g><g clip-rule="nonzero" clip-path="url(#8c49f489c8)"><g clip-rule="nonzero" clip-path="url(#e117201a53)"><path style=" stroke:none;fill-rule:nonzero;fill:#c1ff72;fill-opacity:1;" d="M 85.417969 231.269531 L 85.417969 195.300781 L 121.386719 195.300781 L 121.386719 231.269531 Z M 85.417969 231.269531 "/></g></g><g clip-rule="nonzero" clip-path="url(#48a3058ca9)"><g clip-rule="nonzero" clip-path="url(#dd22b69f91)"><path style=" stroke:none;fill-rule:nonzero;fill:#7ed957;fill-opacity:1;" d="M 85.417969 183.296875 L 85.417969 147.328125 L 121.386719 147.328125 L 121.386719 183.296875 Z M 85.417969 183.296875 "/></g></g><g clip-rule="nonzero" clip-path="url(#a3cf10dc2e)"><g clip-rule="nonzero" clip-path="url(#cce8131c20)"><path style=" stroke:none;fill-rule:nonzero;fill:#7ed957;fill-opacity:1;" d="M 85.417969 138.078125 L 85.417969 102.109375 L 121.386719 102.109375 L 121.386719 138.078125 Z M 85.417969 138.078125 "/></g></g><g clip-rule="nonzero" clip-path="url(#0705449f4c)"><g clip-rule="nonzero" clip-path="url(#c89a6d8d2e)"><path style=" stroke:none;fill-rule:nonzero;fill:#7ed957;fill-opacity:1;" d="M 128.714844 184.320312 L 128.714844 148.347656 L 164.6875 148.347656 L 164.6875 184.320312 Z M 128.714844 184.320312 "/></g></g></g></svg>