<svg xmlns="http://www.w3.org/2000/svg" xmlns:xlink="http://www.w3.org/1999/xlink" width="500" zoomAndPan="magnify" viewBox="0 0 375 374.999991" height="500" preserveAspectRatio="xMidYMid meet" version="1.2"><defs><clipPath id="4d214cdf6d"><path d="M 131.964844 182.292969 L 138.707031 182.292969 L 138.707031 189.039062 L 131.964844 189.039062 Z M 131.964844 182.292969 "/></clipPath><clipPath id="dfc19f5096"><path d="M 131.964844 185.667969 C 131.964844 187.527344 133.472656 189.039062 135.335938 189.039062 C 137.199219 189.039062 138.707031 187.527344 138.707031 185.667969 C 138.707031 183.804688 137.199219 182.292969 135.335938 182.292969 C 133.472656 182.292969 131.964844 183.804688 131.964844 185.667969 Z M 131.964844 185.667969 "/></clipPath><clipPath id="67d971b226"><path d="M 107.683594 200.066406 L 114.425781 200.066406 L 114.425781 206.8125 L 107.683594 206.8125 Z M 107.683594 200.066406 "/></clipPath><clipPath id="c331c4ef30"><path d="M 107.683594 203.441406 C 107.683594 205.300781 109.195312 206.8125 111.054688 206.8125 C 112.917969 206.8125 114.425781 205.300781 114.425781 203.441406 C 114.425781 201.578125 112.917969 200.066406 111.054688 200.066406 C 109.195312 200.066406 107.683594 201.578125 107.683594 203.441406 Z M 107.683594 203.441406 "/></clipPath><clipPath id="71a4b6416a"><path d="M 115.648438 182.292969 L 122.390625 182.292969 L 122.390625 189.039062 L 115.648438 189.039062 Z M 115.648438 182.292969 "/></clipPath><clipPath id="364ad2e9d0"><path d="M 115.648438 185.667969 C 115.648438 187.527344 117.15625 189.039062 119.019531 189.039062 C 120.882812 189.039062 122.390625 187.527344 122.390625 185.667969 C 122.390625 183.804688 120.882812 182.292969 119.019531 182.292969 C 117.15625 182.292969 115.648438 183.804688 115.648438 185.667969 Z M 115.648438 185.667969 "/></clipPath><clipPath id="30d5fc1bca"><path d="M 123.625 182.292969 L 130.371094 182.292969 L 130.371094 189.039062 L 123.625 189.039062 Z M 123.625 182.292969 "/></clipPath><clipPath id="f5b87017af"><path d="M 123.625 185.667969 C 123.625 187.527344 125.136719 189.039062 126.996094 189.039062 C 128.859375 189.039062 130.371094 187.527344 130.371094 185.667969 C 130.371094 183.804688 128.859375 182.292969 126.996094 182.292969 C 125.136719 182.292969 123.625 183.804688 123.625 185.667969 Z M 123.625 185.667969 "/></clipPath><clipPath id="ae97a14026"><path d="M 81 154 L 136 154 L 136 193 L 81 193 Z M 81 154 "/></clipPath><clipPath id="6bcd198ace"><path d="M 80.03125 165.742188 L 122.863281 145.792969 L 135.214844 172.304688 L 92.382812 192.257812 Z M 80.03125 165.742188 "/></clipPath><clipPath id="14da6cae47"><path d="M 72.3125 169.339844 L 123.300781 145.585938 L 147.054688 196.578125 L 96.066406 220.328125 Z M 72.3125 169.339844 "/></clipPath><clipPath id="2ae9831186"><path d="M 107.683594 182.292969 L 114.425781 182.292969 L 114.425781 189.039062 L 107.683594 189.039062 Z M 107.683594 182.292969 "/></clipPath><clipPath id="ed87a71314"><path d="M 107.683594 185.667969 C 107.683594 187.527344 109.195312 189.039062 111.054688 189.039062 C 112.917969 189.039062 114.425781 187.527344 114.425781 185.667969 C 114.425781 183.804688 112.917969 182.292969 111.054688 182.292969 C 109.195312 182.292969 107.683594 183.804688 107.683594 185.667969 Z M 107.683594 185.667969 "/></clipPath><clipPath id="a4ca0462f9"><path d="M 107.683594 191.039062 L 114.425781 191.039062 L 114.425781 197.78125 L 107.683594 197.78125 Z M 107.683594 191.039062 "/></clipPath><clipPath id="8f647a54fe"><path d="M 107.683594 194.410156 C 107.683594 196.273438 109.195312 197.78125 111.054688 197.78125 C 112.917969 197.78125 114.425781 196.273438 114.425781 194.410156 C 114.425781 192.546875 112.917969 191.039062 111.054688 191.039062 C 109.195312 191.039062 107.683594 192.546875 107.683594 194.410156 Z M 107.683594 194.410156 "/></clipPath><clipPath id="0fcd542127"><path d="M 115.648438 191.039062 L 122.390625 191.039062 L 122.390625 197.78125 L 115.648438 197.78125 Z M 115.648438 191.039062 "/></clipPath><clipPath id="6c7d89b4dc"><path d="M 115.648438 194.410156 C 115.648438 196.273438 117.15625 197.78125 119.019531 197.78125 C 120.882812 197.78125 122.390625 196.273438 122.390625 194.410156 C 122.390625 192.546875 120.882812 191.039062 119.019531 191.039062 C 117.15625 191.039062 115.648438 192.546875 115.648438 194.410156 Z M 115.648438 194.410156 "/></clipPath><clipPath id="5697bbcc32"><path d="M 115.648438 199.78125 L 122.390625 199.78125 L 122.390625 206.523438 L 115.648438 206.523438 Z M 115.648438 199.78125 "/></clipPath><clipPath id="e7e8409c3f"><path d="M 115.648438 203.152344 C 115.648438 205.015625 117.15625 206.523438 119.019531 206.523438 C 120.882812 206.523438 122.390625 205.015625 122.390625 203.152344 C 122.390625 201.289062 120.882812 199.78125 119.019531 199.78125 C 117.15625 199.78125 115.648438 201.289062 115.648438 203.152344 Z M 115.648438 203.152344 "/></clipPath><clipPath id="216d548155"><path d="M 123.625 191.039062 L 130.371094 191.039062 L 130.371094 197.78125 L 123.625 197.78125 Z M 123.625 191.039062 "/></clipPath><clipPath id="2cb8f86687"><path d="M 123.625 194.410156 C 123.625 196.273438 125.136719 197.78125 126.996094 197.78125 C 128.859375 197.78125 130.371094 196.273438 130.371094 194.410156 C 130.371094 192.546875 128.859375 191.039062 126.996094 191.039062 C 125.136719 191.039062 123.625 192.546875 123.625 194.410156 Z M 123.625 194.410156 "/></clipPath><clipPath id="413bb2fffb"><path d="M 83.207031 173.300781 L 89.949219 173.300781 L 89.949219 180.042969 L 83.207031 180.042969 Z M 83.207031 173.300781 "/></clipPath><clipPath id="9a076f1796"><path d="M 83.207031 176.671875 C 83.207031 178.535156 84.714844 180.042969 86.578125 180.042969 C 88.4375 180.042969 89.949219 178.535156 89.949219 176.671875 C 89.949219 174.808594 88.4375 173.300781 86.578125 173.300781 C 84.714844 173.300781 83.207031 174.808594 83.207031 176.671875 Z M 83.207031 176.671875 "/></clipPath><clipPath id="bb2f26c40e"><path d="M 83.207031 182.292969 L 89.949219 182.292969 L 89.949219 189.039062 L 83.207031 189.039062 Z M 83.207031 182.292969 "/></clipPath><clipPath id="ba38b21e13"><path d="M 83.207031 185.667969 C 83.207031 187.527344 84.714844 189.039062 86.578125 189.039062 C 88.4375 189.039062 89.949219 187.527344 89.949219 185.667969 C 89.949219 183.804688 88.4375 182.292969 86.578125 182.292969 C 84.714844 182.292969 83.207031 183.804688 83.207031 185.667969 Z M 83.207031 185.667969 "/></clipPath><clipPath id="941e3e47e9"><path d="M 129.945312 168.835938 L 136.6875 168.835938 L 136.6875 175.578125 L 129.945312 175.578125 Z M 129.945312 168.835938 "/></clipPath><clipPath id="6e4621e987"><path d="M 129.945312 172.207031 C 129.945312 174.070312 131.457031 175.578125 133.316406 175.578125 C 135.179688 175.578125 136.6875 174.070312 136.6875 172.207031 C 136.6875 170.34375 135.179688 168.835938 133.316406 168.835938 C 131.457031 168.835938 129.945312 170.34375 129.945312 172.207031 Z M 129.945312 172.207031 "/></clipPath><clipPath id="573a40df29"><path d="M 99.441406 199.78125 L 106.183594 199.78125 L 106.183594 206.523438 L 99.441406 206.523438 Z M 99.441406 199.78125 "/></clipPath><clipPath id="c3400c947f"><path d="M 99.441406 203.152344 C 99.441406 205.015625 100.949219 206.523438 102.8125 206.523438 C 104.675781 206.523438 106.183594 205.015625 106.183594 203.152344 C 106.183594 201.289062 104.675781 199.78125 102.8125 199.78125 C 100.949219 199.78125 99.441406 201.289062 99.441406 203.152344 Z M 99.441406 203.152344 "/></clipPath><clipPath id="cc19fe7e57"><path d="M 82 172 L 138 172 L 138 210 L 82 210 Z M 82 172 "/></clipPath><clipPath id="3cb0e091f4"><path d="M 75.4375 200.152344 L 83.609375 172.070312 L 137.617188 187.785156 L 129.445312 215.871094 Z M 75.4375 200.152344 "/></clipPath><clipPath id="45c685f9b4"><path d="M 75.4375 200.152344 L 91.152344 146.144531 L 145.164062 161.863281 L 129.445312 215.871094 Z M 75.4375 200.152344 "/></clipPath><clipPath id="2d84905227"><path d="M 99.691406 191.039062 L 106.4375 191.039062 L 106.4375 197.78125 L 99.691406 197.78125 Z M 99.691406 191.039062 "/></clipPath><clipPath id="ea01a6c91f"><path d="M 99.691406 194.410156 C 99.691406 196.273438 101.203125 197.78125 103.066406 197.78125 C 104.925781 197.78125 106.4375 196.273438 106.4375 194.410156 C 106.4375 192.546875 104.925781 191.039062 103.066406 191.039062 C 101.203125 191.039062 99.691406 192.546875 99.691406 194.410156 Z M 99.691406 194.410156 "/></clipPath><clipPath id="a55e9ff3f5"><path d="M 91.449219 191.039062 L 98.191406 191.039062 L 98.191406 197.78125 L 91.449219 197.78125 Z M 91.449219 191.039062 "/></clipPath><clipPath id="2a5c7d2f91"><path d="M 91.449219 194.410156 C 91.449219 196.273438 92.957031 197.78125 94.820312 197.78125 C 96.683594 197.78125 98.191406 196.273438 98.191406 194.410156 C 98.191406 192.546875 96.683594 191.039062 94.820312 191.039062 C 92.957031 191.039062 91.449219 192.546875 91.449219 194.410156 Z M 91.449219 194.410156 "/></clipPath><clipPath id="39ca2f5636"><path d="M 99.691406 182.292969 L 106.4375 182.292969 L 106.4375 189.039062 L 99.691406 189.039062 Z M 99.691406 182.292969 "/></clipPath><clipPath id="ae04faeb90"><path d="M 99.691406 185.667969 C 99.691406 187.527344 101.203125 189.039062 103.066406 189.039062 C 104.925781 189.039062 106.4375 187.527344 106.4375 185.667969 C 106.4375 183.804688 104.925781 182.292969 103.066406 182.292969 C 101.203125 182.292969 99.691406 183.804688 99.691406 185.667969 Z M 99.691406 185.667969 "/></clipPath><clipPath id="2e2b559ae9"><path d="M 91.449219 182.292969 L 98.191406 182.292969 L 98.191406 189.039062 L 91.449219 189.039062 Z M 91.449219 182.292969 "/></clipPath><clipPath id="5954c85c30"><path d="M 91.449219 185.667969 C 91.449219 187.527344 92.957031 189.039062 94.820312 189.039062 C 96.683594 189.039062 98.191406 187.527344 98.191406 185.667969 C 98.191406 183.804688 96.683594 182.292969 94.820312 182.292969 C 92.957031 182.292969 91.449219 183.804688 91.449219 185.667969 Z M 91.449219 185.667969 "/></clipPath><clipPath id="cb719ab289"><path d="M 91.449219 173.300781 L 98.191406 173.300781 L 98.191406 180.042969 L 91.449219 180.042969 Z M 91.449219 173.300781 "/></clipPath><clipPath id="0649320547"><path d="M 91.449219 176.671875 C 91.449219 178.535156 92.957031 180.042969 94.820312 180.042969 C 96.683594 180.042969 98.191406 178.535156 98.191406 176.671875 C 98.191406 174.808594 96.683594 173.300781 94.820312 173.300781 C 92.957031 173.300781 91.449219 174.808594 91.449219 176.671875 Z M 91.449219 176.671875 "/></clipPath><clipPath id="2be372fa7c"><path d="M 91.449219 164.824219 L 98.191406 164.824219 L 98.191406 171.566406 L 91.449219 171.566406 Z M 91.449219 164.824219 "/></clipPath><clipPath id="c062b998be"><path d="M 91.449219 168.195312 C 91.449219 170.058594 92.957031 171.566406 94.820312 171.566406 C 96.683594 171.566406 98.191406 170.058594 98.191406 168.195312 C 98.191406 166.332031 96.683594 164.824219 94.820312 164.824219 C 92.957031 164.824219 91.449219 166.332031 91.449219 168.195312 Z M 91.449219 168.195312 "/></clipPath><clipPath id="79f86c134e"><path d="M 99.566406 173.492188 L 106.308594 173.492188 L 106.308594 180.238281 L 99.566406 180.238281 Z M 99.566406 173.492188 "/></clipPath><clipPath id="79f0dc5a27"><path d="M 99.566406 176.863281 C 99.566406 178.726562 101.074219 180.238281 102.9375 180.238281 C 104.800781 180.238281 106.308594 178.726562 106.308594 176.863281 C 106.308594 175.003906 104.800781 173.492188 102.9375 173.492188 C 101.074219 173.492188 99.566406 175.003906 99.566406 176.863281 Z M 99.566406 176.863281 "/></clipPath></defs><g id="7ca2296d16"><g style="fill:#14ae5c;fill-opacity:1;"><g transform="translate(138.708262, 207.139791)"><path style="stroke:none" d="M 18.796875 0.828125 C 16.535156 0.828125 14.429688 0.40625 12.484375 -0.4375 C 10.535156 -1.28125 8.832031 -2.453125 7.375 -3.953125 C 5.914062 -5.453125 4.773438 -7.191406 3.953125 -9.171875 C 3.128906 -11.160156 2.71875 -13.304688 2.71875 -15.609375 C 2.71875 -17.921875 3.125 -20.070312 3.9375 -22.0625 C 4.75 -24.0625 5.882812 -25.8125 7.34375 -27.3125 C 8.800781 -28.8125 10.507812 -29.984375 12.46875 -30.828125 C 14.425781 -31.671875 16.535156 -32.09375 18.796875 -32.09375 C 21.054688 -32.09375 23.160156 -31.671875 25.109375 -30.828125 C 27.066406 -29.984375 28.773438 -28.8125 30.234375 -27.3125 C 31.703125 -25.8125 32.847656 -24.0625 33.671875 -22.0625 C 34.492188 -20.070312 34.90625 -17.921875 34.90625 -15.609375 C 34.90625 -13.328125 34.492188 -11.1875 33.671875 -9.1875 C 32.847656 -7.195312 31.703125 -5.453125 30.234375 -3.953125 C 28.773438 -2.453125 27.066406 -1.28125 25.109375 -0.4375 C 23.160156 0.40625 21.054688 0.828125 18.796875 0.828125 Z M 18.828125 -2.5625 C 20.578125 -2.5625 22.207031 -2.890625 23.71875 -3.546875 C 25.226562 -4.203125 26.550781 -5.117188 27.6875 -6.296875 C 28.832031 -7.484375 29.722656 -8.867188 30.359375 -10.453125 C 31.003906 -12.046875 31.328125 -13.773438 31.328125 -15.640625 C 31.328125 -17.492188 31.003906 -19.210938 30.359375 -20.796875 C 29.722656 -22.378906 28.832031 -23.757812 27.6875 -24.9375 C 26.550781 -26.125 25.226562 -27.046875 23.71875 -27.703125 C 22.207031 -28.367188 20.578125 -28.703125 18.828125 -28.703125 C 17.078125 -28.703125 15.445312 -28.367188 13.9375 -27.703125 C 12.425781 -27.046875 11.09375 -26.125 9.9375 -24.9375 C 8.78125 -23.757812 7.878906 -22.378906 7.234375 -20.796875 C 6.585938 -19.210938 6.265625 -17.492188 6.265625 -15.640625 C 6.265625 -13.773438 6.585938 -12.046875 7.234375 -10.453125 C 7.878906 -8.867188 8.78125 -7.484375 9.9375 -6.296875 C 11.09375 -5.117188 12.425781 -4.203125 13.9375 -3.546875 C 15.445312 -2.890625 17.078125 -2.5625 18.828125 -2.5625 Z M 18.828125 -2.5625 "/></g></g><g style="fill:#14ae5c;fill-opacity:1;"><g transform="translate(176.325378, 207.139791)"><path style="stroke:none" d="M 18.453125 0.828125 C 15.773438 0.828125 13.429688 0.460938 11.421875 -0.265625 C 9.421875 -0.992188 7.753906 -1.960938 6.421875 -3.171875 C 5.097656 -4.390625 4.109375 -5.75 3.453125 -7.25 C 2.796875 -8.75 2.46875 -10.269531 2.46875 -11.8125 L 6.140625 -11.8125 C 6.140625 -10.625 6.414062 -9.460938 6.96875 -8.328125 C 7.53125 -7.203125 8.335938 -6.191406 9.390625 -5.296875 C 10.453125 -4.398438 11.742188 -3.6875 13.265625 -3.15625 C 14.785156 -2.632812 16.515625 -2.375 18.453125 -2.375 C 22.378906 -2.375 25.453125 -3.132812 27.671875 -4.65625 C 29.898438 -6.175781 31.015625 -8.441406 31.015625 -11.453125 C 31.015625 -12.910156 30.695312 -14.140625 30.0625 -15.140625 C 29.4375 -16.140625 28.566406 -16.96875 27.453125 -17.625 C 26.347656 -18.28125 25.070312 -18.800781 23.625 -19.1875 C 22.175781 -19.582031 20.628906 -19.882812 18.984375 -20.09375 C 17.578125 -20.28125 16.148438 -20.53125 14.703125 -20.84375 C 13.253906 -21.164062 11.863281 -21.59375 10.53125 -22.125 C 9.207031 -22.65625 8.019531 -23.332031 6.96875 -24.15625 C 5.925781 -24.988281 5.097656 -26 4.484375 -27.1875 C 3.878906 -28.382812 3.578125 -29.804688 3.578125 -31.453125 C 3.578125 -32.910156 3.832031 -34.316406 4.34375 -35.671875 C 4.863281 -37.035156 5.695312 -38.253906 6.84375 -39.328125 C 8 -40.410156 9.519531 -41.269531 11.40625 -41.90625 C 13.300781 -42.539062 15.617188 -42.859375 18.359375 -42.859375 C 21.484375 -42.859375 24.125 -42.363281 26.28125 -41.375 C 28.445312 -40.394531 30.085938 -39.046875 31.203125 -37.328125 C 32.328125 -35.609375 32.890625 -33.648438 32.890625 -31.453125 L 29.25 -31.453125 C 29.25 -33.097656 28.8125 -34.523438 27.9375 -35.734375 C 27.070312 -36.953125 25.816406 -37.894531 24.171875 -38.5625 C 22.535156 -39.226562 20.585938 -39.5625 18.328125 -39.5625 C 16.191406 -39.5625 14.40625 -39.332031 12.96875 -38.875 C 11.539062 -38.425781 10.40625 -37.816406 9.5625 -37.046875 C 8.71875 -36.273438 8.113281 -35.40625 7.75 -34.4375 C 7.394531 -33.46875 7.21875 -32.472656 7.21875 -31.453125 C 7.21875 -29.742188 7.734375 -28.34375 8.765625 -27.25 C 9.796875 -26.15625 11.265625 -25.296875 13.171875 -24.671875 C 15.085938 -24.046875 17.363281 -23.578125 20 -23.265625 C 21.269531 -23.097656 22.585938 -22.859375 23.953125 -22.546875 C 25.328125 -22.242188 26.648438 -21.816406 27.921875 -21.265625 C 29.203125 -20.722656 30.347656 -20.023438 31.359375 -19.171875 C 32.378906 -18.328125 33.191406 -17.269531 33.796875 -16 C 34.410156 -14.738281 34.71875 -13.222656 34.71875 -11.453125 C 34.71875 -8.921875 34.078125 -6.734375 32.796875 -4.890625 C 31.523438 -3.046875 29.675781 -1.628906 27.25 -0.640625 C 24.820312 0.335938 21.890625 0.828125 18.453125 0.828125 Z M 18.453125 0.828125 "/></g></g><g style="fill:#14ae5c;fill-opacity:1;"><g transform="translate(213.325314, 207.139791)"><path style="stroke:none" d="M 18.796875 0.828125 C 16.535156 0.828125 14.429688 0.40625 12.484375 -0.4375 C 10.535156 -1.28125 8.832031 -2.453125 7.375 -3.953125 C 5.914062 -5.453125 4.773438 -7.191406 3.953125 -9.171875 C 3.128906 -11.160156 2.71875 -13.304688 2.71875 -15.609375 C 2.71875 -17.921875 3.125 -20.070312 3.9375 -22.0625 C 4.75 -24.0625 5.882812 -25.8125 7.34375 -27.3125 C 8.800781 -28.8125 10.507812 -29.984375 12.46875 -30.828125 C 14.425781 -31.671875 16.535156 -32.09375 18.796875 -32.09375 C 21.054688 -32.09375 23.160156 -31.671875 25.109375 -30.828125 C 27.066406 -29.984375 28.773438 -28.8125 30.234375 -27.3125 C 31.703125 -25.8125 32.847656 -24.0625 33.671875 -22.0625 C 34.492188 -20.070312 34.90625 -17.921875 34.90625 -15.609375 C 34.90625 -13.328125 34.492188 -11.1875 33.671875 -9.1875 C 32.847656 -7.195312 31.703125 -5.453125 30.234375 -3.953125 C 28.773438 -2.453125 27.066406 -1.28125 25.109375 -0.4375 C 23.160156 0.40625 21.054688 0.828125 18.796875 0.828125 Z M 18.828125 -2.5625 C 20.578125 -2.5625 22.207031 -2.890625 23.71875 -3.546875 C 25.226562 -4.203125 26.550781 -5.117188 27.6875 -6.296875 C 28.832031 -7.484375 29.722656 -8.867188 30.359375 -10.453125 C 31.003906 -12.046875 31.328125 -13.773438 31.328125 -15.640625 C 31.328125 -17.492188 31.003906 -19.210938 30.359375 -20.796875 C 29.722656 -22.378906 28.832031 -23.757812 27.6875 -24.9375 C 26.550781 -26.125 25.226562 -27.046875 23.71875 -27.703125 C 22.207031 -28.367188 20.578125 -28.703125 18.828125 -28.703125 C 17.078125 -28.703125 15.445312 -28.367188 13.9375 -27.703125 C 12.425781 -27.046875 11.09375 -26.125 9.9375 -24.9375 C 8.78125 -23.757812 7.878906 -22.378906 7.234375 -20.796875 C 6.585938 -19.210938 6.265625 -17.492188 6.265625 -15.640625 C 6.265625 -13.773438 6.585938 -12.046875 7.234375 -10.453125 C 7.878906 -8.867188 8.78125 -7.484375 9.9375 -6.296875 C 11.09375 -5.117188 12.425781 -4.203125 13.9375 -3.546875 C 15.445312 -2.890625 17.078125 -2.5625 18.828125 -2.5625 Z M 18.828125 -2.5625 "/></g></g><g style="fill:#14ae5c;fill-opacity:1;"><g transform="translate(250.94243, 207.139791)"><path style="stroke:none" d="M 9.265625 0 L 5.671875 0 L 5.671875 -31.265625 L 9.140625 -31.265625 L 9.140625 -23.140625 C 9.941406 -25.691406 11.257812 -27.679688 13.09375 -29.109375 C 14.9375 -30.546875 17.082031 -31.265625 19.53125 -31.265625 L 22.3125 -31.265625 L 22.3125 -28.046875 L 19.6875 -28.046875 C 17.75 -28.046875 15.992188 -27.519531 14.421875 -26.46875 C 12.847656 -25.425781 11.59375 -23.921875 10.65625 -21.953125 C 9.726562 -19.992188 9.265625 -17.632812 9.265625 -14.875 Z M 9.265625 0 "/></g></g><g style="fill:#14ae5c;fill-opacity:1;"><g transform="translate(275.382809, 207.139791)"><path style="stroke:none" d="M 22.375 0 L 17.125 0 C 15.914062 0 14.75 -0.15625 13.625 -0.46875 C 12.5 -0.789062 11.488281 -1.363281 10.59375 -2.1875 C 9.707031 -3.007812 9 -4.15625 8.46875 -5.625 C 7.945312 -7.101562 7.6875 -8.992188 7.6875 -11.296875 L 7.6875 -28.046875 L 0.3125 -28.046875 L 0.3125 -31.265625 L 7.6875 -31.265625 L 7.6875 -40.703125 L 11.234375 -40.703125 L 11.234375 -31.265625 L 22.375 -31.265625 L 22.375 -28.046875 L 11.234375 -28.046875 L 11.234375 -11.171875 C 11.234375 -9.421875 11.421875 -8.007812 11.796875 -6.9375 C 12.179688 -5.875 12.6875 -5.0625 13.3125 -4.5 C 13.9375 -3.945312 14.632812 -3.578125 15.40625 -3.390625 C 16.1875 -3.203125 16.96875 -3.109375 17.75 -3.109375 L 22.375 -3.109375 Z M 22.375 0 "/></g></g><g clip-rule="nonzero" clip-path="url(#4d214cdf6d)"><g clip-rule="nonzero" clip-path="url(#dfc19f5096)"><path style=" stroke:none;fill-rule:nonzero;fill:#14ae5c;fill-opacity:1;" d="M 131.964844 189.039062 L 131.964844 182.292969 L 138.707031 182.292969 L 138.707031 189.039062 Z M 131.964844 189.039062 "/></g></g><g clip-rule="nonzero" clip-path="url(#67d971b226)"><g clip-rule="nonzero" clip-path="url(#c331c4ef30)"><path style=" stroke:none;fill-rule:nonzero;fill:#14ae5c;fill-opacity:1;" d="M 107.683594 206.8125 L 107.683594 200.066406 L 114.425781 200.066406 L 114.425781 206.8125 Z M 107.683594 206.8125 "/></g></g><g clip-rule="nonzero" clip-path="url(#71a4b6416a)"><g clip-rule="nonzero" clip-path="url(#364ad2e9d0)"><path style=" stroke:none;fill-rule:nonzero;fill:#14ae5c;fill-opacity:1;" d="M 115.648438 189.039062 L 115.648438 182.292969 L 122.390625 182.292969 L 122.390625 189.039062 Z M 115.648438 189.039062 "/></g></g><g clip-rule="nonzero" clip-path="url(#30d5fc1bca)"><g clip-rule="nonzero" clip-path="url(#f5b87017af)"><path style=" stroke:none;fill-rule:nonzero;fill:#14ae5c;fill-opacity:1;" d="M 123.625 189.039062 L 123.625 182.292969 L 130.371094 182.292969 L 130.371094 189.039062 Z M 123.625 189.039062 "/></g></g><g clip-rule="nonzero" clip-path="url(#ae97a14026)"><g clip-rule="nonzero" clip-path="url(#6bcd198ace)"><g clip-rule="nonzero" clip-path="url(#14da6cae47)"><path style=" stroke:none;fill-rule:nonzero;fill:#14ae5c;fill-opacity:1;" d="M 97.707031 157.511719 C 100.039062 156.425781 102.425781 155.675781 104.867188 155.261719 C 107.3125 154.847656 109.734375 154.753906 112.132812 154.984375 C 114.535156 155.214844 116.859375 155.742188 119.113281 156.5625 C 121.367188 157.382812 123.492188 158.484375 125.484375 159.871094 C 127.480469 161.257812 129.273438 162.886719 130.871094 164.757812 C 132.464844 166.628906 133.820312 168.734375 134.929688 171.074219 C 136.015625 173.40625 136.765625 175.792969 137.179688 178.234375 C 137.59375 180.679688 137.683594 183.101562 137.453125 185.5 C 137.226562 187.902344 136.699219 190.230469 135.878906 192.484375 C 135.054688 194.738281 133.953125 196.859375 132.566406 198.855469 C 131.183594 200.847656 129.554688 202.640625 127.683594 204.238281 C 125.808594 205.835938 123.703125 207.1875 121.363281 208.296875 C 119.035156 209.382812 116.644531 210.132812 114.203125 210.546875 C 111.761719 210.960938 109.339844 211.054688 106.9375 210.824219 C 104.539062 210.59375 102.210938 210.066406 99.957031 209.246094 C 97.703125 208.425781 95.578125 207.320312 93.585938 205.9375 C 91.59375 204.550781 89.800781 202.929688 88.214844 201.074219 C 86.625 199.21875 85.265625 197.105469 84.140625 194.734375 C 83.054688 192.402344 82.304688 190.015625 81.890625 187.570312 C 81.480469 185.128906 81.386719 182.707031 81.617188 180.304688 C 81.847656 177.90625 82.371094 175.578125 83.191406 173.324219 C 84.015625 171.070312 85.117188 168.949219 86.503906 166.953125 C 87.886719 164.960938 89.507812 163.171875 91.363281 161.582031 C 93.21875 159.992188 95.332031 158.636719 97.707031 157.511719 Z M 119.886719 205.125 C 121.917969 204.175781 123.753906 203 125.394531 201.59375 C 127.03125 200.183594 128.453125 198.617188 129.660156 196.886719 C 130.867188 195.160156 131.828125 193.292969 132.546875 191.289062 C 133.261719 189.285156 133.722656 187.25 133.925781 185.183594 C 134.128906 183.117188 134.058594 180.996094 133.710938 178.824219 C 133.363281 176.652344 132.710938 174.5625 131.753906 172.554688 C 130.808594 170.519531 129.628906 168.683594 128.222656 167.046875 C 126.816406 165.40625 125.25 163.984375 123.519531 162.777344 C 121.789062 161.574219 119.925781 160.609375 117.921875 159.894531 C 115.917969 159.179688 113.882812 158.71875 111.816406 158.511719 C 109.75 158.308594 107.628906 158.382812 105.457031 158.730469 C 103.285156 159.078125 101.195312 159.726562 99.183594 160.683594 C 97.152344 161.632812 95.316406 162.808594 93.675781 164.214844 C 92.039062 165.621094 90.617188 167.191406 89.410156 168.917969 C 88.203125 170.648438 87.242188 172.515625 86.527344 174.519531 C 85.808594 176.523438 85.347656 178.558594 85.144531 180.625 C 84.941406 182.691406 85.011719 184.8125 85.359375 186.984375 C 85.707031 189.15625 86.359375 191.246094 87.316406 193.253906 C 88.261719 195.289062 89.441406 197.125 90.847656 198.761719 C 92.253906 200.398438 93.820312 201.824219 95.550781 203.027344 C 97.28125 204.234375 99.148438 205.199219 101.148438 205.914062 C 103.152344 206.628906 105.1875 207.089844 107.257812 207.292969 C 109.324219 207.5 111.441406 207.425781 113.613281 207.078125 C 115.785156 206.730469 117.875 206.078125 119.886719 205.125 Z M 119.886719 205.125 "/></g></g></g><g clip-rule="nonzero" clip-path="url(#2ae9831186)"><g clip-rule="nonzero" clip-path="url(#ed87a71314)"><path style=" stroke:none;fill-rule:nonzero;fill:#14ae5c;fill-opacity:1;" d="M 107.683594 189.039062 L 107.683594 182.292969 L 114.425781 182.292969 L 114.425781 189.039062 Z M 107.683594 189.039062 "/></g></g><g clip-rule="nonzero" clip-path="url(#a4ca0462f9)"><g clip-rule="nonzero" clip-path="url(#8f647a54fe)"><path style=" stroke:none;fill-rule:nonzero;fill:#14ae5c;fill-opacity:1;" d="M 107.683594 197.78125 L 107.683594 191.039062 L 114.425781 191.039062 L 114.425781 197.78125 Z M 107.683594 197.78125 "/></g></g><g clip-rule="nonzero" clip-path="url(#0fcd542127)"><g clip-rule="nonzero" clip-path="url(#6c7d89b4dc)"><path style=" stroke:none;fill-rule:nonzero;fill:#7ed957;fill-opacity:1;" d="M 115.648438 197.78125 L 115.648438 191.039062 L 122.390625 191.039062 L 122.390625 197.78125 Z M 115.648438 197.78125 "/></g></g><g clip-rule="nonzero" clip-path="url(#5697bbcc32)"><g clip-rule="nonzero" clip-path="url(#e7e8409c3f)"><path style=" stroke:none;fill-rule:nonzero;fill:#7ed957;fill-opacity:1;" d="M 115.648438 206.523438 L 115.648438 199.78125 L 122.390625 199.78125 L 122.390625 206.523438 Z M 115.648438 206.523438 "/></g></g><g clip-rule="nonzero" clip-path="url(#216d548155)"><g clip-rule="nonzero" clip-path="url(#2cb8f86687)"><path style=" stroke:none;fill-rule:nonzero;fill:#7ed957;fill-opacity:1;" d="M 123.625 197.78125 L 123.625 191.039062 L 130.371094 191.039062 L 130.371094 197.78125 Z M 123.625 197.78125 "/></g></g><g clip-rule="nonzero" clip-path="url(#413bb2fffb)"><g clip-rule="nonzero" clip-path="url(#9a076f1796)"><path style=" stroke:none;fill-rule:nonzero;fill:#7ed957;fill-opacity:1;" d="M 83.207031 180.042969 L 83.207031 173.300781 L 89.949219 173.300781 L 89.949219 180.042969 Z M 83.207031 180.042969 "/></g></g><g clip-rule="nonzero" clip-path="url(#bb2f26c40e)"><g clip-rule="nonzero" clip-path="url(#ba38b21e13)"><path style=" stroke:none;fill-rule:nonzero;fill:#c1ff72;fill-opacity:1;" d="M 83.207031 189.039062 L 83.207031 182.292969 L 89.949219 182.292969 L 89.949219 189.039062 Z M 83.207031 189.039062 "/></g></g><g clip-rule="nonzero" clip-path="url(#941e3e47e9)"><g clip-rule="nonzero" clip-path="url(#6e4621e987)"><path style=" stroke:none;fill-rule:nonzero;fill:#14ae5c;fill-opacity:1;" d="M 129.945312 175.578125 L 129.945312 168.835938 L 136.6875 168.835938 L 136.6875 175.578125 Z M 129.945312 175.578125 "/></g></g><g clip-rule="nonzero" clip-path="url(#573a40df29)"><g clip-rule="nonzero" clip-path="url(#c3400c947f)"><path style=" stroke:none;fill-rule:nonzero;fill:#7ed957;fill-opacity:1;" d="M 99.441406 206.523438 L 99.441406 199.78125 L 106.183594 199.78125 L 106.183594 206.523438 Z M 99.441406 206.523438 "/></g></g><g clip-rule="nonzero" clip-path="url(#cc19fe7e57)"><g clip-rule="nonzero" clip-path="url(#3cb0e091f4)"><g clip-rule="nonzero" clip-path="url(#45c685f9b4)"><path style=" stroke:none;fill-rule:nonzero;fill:#14ae5c;fill-opacity:1;" d="M 83.265625 173.253906 C 83.980469 170.785156 84.992188 168.496094 86.289062 166.386719 C 87.585938 164.277344 89.113281 162.394531 90.867188 160.738281 C 92.621094 159.082031 94.550781 157.679688 96.652344 156.523438 C 98.753906 155.371094 100.984375 154.5 103.339844 153.910156 C 105.695312 153.324219 108.101562 153.046875 110.5625 153.078125 C 113.023438 153.109375 115.496094 153.480469 117.988281 154.1875 C 120.457031 154.90625 122.75 155.914062 124.859375 157.210938 C 126.96875 158.507812 128.851562 160.035156 130.507812 161.789062 C 132.160156 163.542969 133.566406 165.472656 134.722656 167.574219 C 135.875 169.675781 136.746094 171.90625 137.332031 174.261719 C 137.921875 176.617188 138.199219 179.023438 138.167969 181.484375 C 138.132812 183.945312 137.765625 186.421875 137.058594 188.910156 C 136.339844 191.382812 135.332031 193.671875 134.035156 195.78125 C 132.734375 197.890625 131.210938 199.773438 129.457031 201.429688 C 127.703125 203.085938 125.773438 204.488281 123.671875 205.644531 C 121.566406 206.796875 119.339844 207.667969 116.984375 208.257812 C 114.628906 208.84375 112.230469 209.125 109.789062 209.097656 C 107.34375 209.070312 104.859375 208.699219 102.332031 207.980469 C 99.863281 207.261719 97.574219 206.253906 95.464844 204.957031 C 93.351562 203.660156 91.46875 202.132812 89.816406 200.378906 C 88.160156 198.625 86.757812 196.695312 85.601562 194.59375 C 84.445312 192.492188 83.574219 190.261719 82.988281 187.90625 C 82.402344 185.550781 82.121094 183.152344 82.148438 180.710938 C 82.175781 178.265625 82.546875 175.78125 83.265625 173.253906 Z M 133.695312 187.933594 C 134.324219 185.78125 134.648438 183.621094 134.667969 181.464844 C 134.6875 179.304688 134.445312 177.199219 133.941406 175.152344 C 133.433594 173.105469 132.664062 171.15625 131.628906 169.296875 C 130.59375 167.4375 129.363281 165.75 127.945312 164.234375 C 126.523438 162.71875 124.882812 161.378906 123.019531 160.207031 C 121.15625 159.039062 119.152344 158.152344 117.011719 157.546875 C 114.855469 156.921875 112.699219 156.597656 110.539062 156.578125 C 108.382812 156.554688 106.277344 156.800781 104.230469 157.304688 C 102.183594 157.8125 100.230469 158.582031 98.375 159.617188 C 96.515625 160.652344 94.828125 161.882812 93.3125 163.300781 C 91.796875 164.722656 90.453125 166.363281 89.285156 168.226562 C 88.117188 170.089844 87.230469 172.09375 86.625 174.234375 C 86 176.386719 85.675781 178.542969 85.65625 180.703125 C 85.632812 182.863281 85.875 184.964844 86.382812 187.011719 C 86.890625 189.058594 87.660156 191.011719 88.695312 192.871094 C 89.730469 194.730469 90.957031 196.417969 92.378906 197.933594 C 93.800781 199.449219 95.441406 200.789062 97.304688 201.960938 C 99.167969 203.128906 101.171875 204.015625 103.3125 204.621094 C 105.464844 205.246094 107.621094 205.570312 109.78125 205.589844 C 111.941406 205.609375 114.042969 205.367188 116.089844 204.863281 C 118.136719 204.355469 120.089844 203.585938 121.949219 202.550781 C 123.808594 201.515625 125.496094 200.285156 127.011719 198.867188 C 128.527344 197.445312 129.867188 195.804688 131.035156 193.941406 C 132.207031 192.078125 133.09375 190.074219 133.695312 187.933594 Z M 133.695312 187.933594 "/></g></g></g><g clip-rule="nonzero" clip-path="url(#2d84905227)"><g clip-rule="nonzero" clip-path="url(#ea01a6c91f)"><path style=" stroke:none;fill-rule:nonzero;fill:#7ed957;fill-opacity:1;" d="M 99.691406 197.78125 L 99.691406 191.039062 L 106.4375 191.039062 L 106.4375 197.78125 Z M 99.691406 197.78125 "/></g></g><g clip-rule="nonzero" clip-path="url(#a55e9ff3f5)"><g clip-rule="nonzero" clip-path="url(#2a5c7d2f91)"><path style=" stroke:none;fill-rule:nonzero;fill:#7ed957;fill-opacity:1;" d="M 91.449219 197.78125 L 91.449219 191.039062 L 98.191406 191.039062 L 98.191406 197.78125 Z M 91.449219 197.78125 "/></g></g><g clip-rule="nonzero" clip-path="url(#39ca2f5636)"><g clip-rule="nonzero" clip-path="url(#ae04faeb90)"><path style=" stroke:none;fill-rule:nonzero;fill:#c1ff72;fill-opacity:1;" d="M 99.691406 189.039062 L 99.691406 182.292969 L 106.4375 182.292969 L 106.4375 189.039062 Z M 99.691406 189.039062 "/></g></g><g clip-rule="nonzero" clip-path="url(#2e2b559ae9)"><g clip-rule="nonzero" clip-path="url(#5954c85c30)"><path style=" stroke:none;fill-rule:nonzero;fill:#c1ff72;fill-opacity:1;" d="M 91.449219 189.039062 L 91.449219 182.292969 L 98.191406 182.292969 L 98.191406 189.039062 Z M 91.449219 189.039062 "/></g></g><g clip-rule="nonzero" clip-path="url(#cb719ab289)"><g clip-rule="nonzero" clip-path="url(#0649320547)"><path style=" stroke:none;fill-rule:nonzero;fill:#7ed957;fill-opacity:1;" d="M 91.449219 180.042969 L 91.449219 173.300781 L 98.191406 173.300781 L 98.191406 180.042969 Z M 91.449219 180.042969 "/></g></g><g clip-rule="nonzero" clip-path="url(#2be372fa7c)"><g clip-rule="nonzero" clip-path="url(#c062b998be)"><path style=" stroke:none;fill-rule:nonzero;fill:#7ed957;fill-opacity:1;" d="M 91.449219 171.566406 L 91.449219 164.824219 L 98.191406 164.824219 L 98.191406 171.566406 Z M 91.449219 171.566406 "/></g></g><g clip-rule="nonzero" clip-path="url(#79f86c134e)"><g clip-rule="nonzero" clip-path="url(#79f0dc5a27)"><path style=" stroke:none;fill-rule:nonzero;fill:#7ed957;fill-opacity:1;" d="M 99.566406 180.238281 L 99.566406 173.492188 L 106.308594 173.492188 L 106.308594 180.238281 Z M 99.566406 180.238281 "/></g></g></g></svg>