<svg xmlns="http://www.w3.org/2000/svg" xmlns:xlink="http://www.w3.org/1999/xlink" width="500" zoomAndPan="magnify" viewBox="0 0 375 374.999991" height="500" preserveAspectRatio="xMidYMid meet" version="1.2"><defs><clipPath id="711282208d"><path d="M 132.84375 256.164062 L 139.480469 256.164062 L 139.480469 262.800781 L 132.84375 262.800781 Z M 132.84375 256.164062 "/></clipPath><clipPath id="01ce3b688d"><path d="M 132.84375 259.480469 C 132.84375 261.316406 134.328125 262.800781 136.160156 262.800781 C 137.992188 262.800781 139.480469 261.316406 139.480469 259.480469 C 139.480469 257.648438 137.992188 256.164062 136.160156 256.164062 C 134.328125 256.164062 132.84375 257.648438 132.84375 259.480469 Z M 132.84375 259.480469 "/></clipPath><clipPath id="b54ccce298"><path d="M 108.945312 273.65625 L 115.582031 273.65625 L 115.582031 280.292969 L 108.945312 280.292969 Z M 108.945312 273.65625 "/></clipPath><clipPath id="47b2202a8b"><path d="M 108.945312 276.972656 C 108.945312 278.808594 110.433594 280.292969 112.265625 280.292969 C 114.097656 280.292969 115.582031 278.808594 115.582031 276.972656 C 115.582031 275.140625 114.097656 273.65625 112.265625 273.65625 C 110.433594 273.65625 108.945312 275.140625 108.945312 276.972656 Z M 108.945312 276.972656 "/></clipPath><clipPath id="76d10b8ba6"><path d="M 116.785156 256.164062 L 123.421875 256.164062 L 123.421875 262.800781 L 116.785156 262.800781 Z M 116.785156 256.164062 "/></clipPath><clipPath id="bc3e5b25b9"><path d="M 116.785156 259.480469 C 116.785156 261.316406 118.269531 262.800781 120.101562 262.800781 C 121.933594 262.800781 123.421875 261.316406 123.421875 259.480469 C 123.421875 257.648438 121.933594 256.164062 120.101562 256.164062 C 118.269531 256.164062 116.785156 257.648438 116.785156 259.480469 Z M 116.785156 259.480469 "/></clipPath><clipPath id="080561936b"><path d="M 124.636719 256.164062 L 131.273438 256.164062 L 131.273438 262.800781 L 124.636719 262.800781 Z M 124.636719 256.164062 "/></clipPath><clipPath id="fb10857ffd"><path d="M 124.636719 259.480469 C 124.636719 261.316406 126.121094 262.800781 127.953125 262.800781 C 129.789062 262.800781 131.273438 261.316406 131.273438 259.480469 C 131.273438 257.648438 129.789062 256.164062 127.953125 256.164062 C 126.121094 256.164062 124.636719 257.648438 124.636719 259.480469 Z M 124.636719 259.480469 "/></clipPath><clipPath id="775695b21f"><path d="M 83 229 L 137 229 L 137 266 L 83 266 Z M 83 229 "/></clipPath><clipPath id="554a1571e8"><path d="M 81.730469 239.875 L 123.886719 220.238281 L 136.042969 246.332031 L 93.886719 265.96875 Z M 81.730469 239.875 "/></clipPath><clipPath id="d3658ceca4"><path d="M 74.132812 243.414062 L 124.316406 220.035156 L 147.695312 270.21875 L 97.511719 293.59375 Z M 74.132812 243.414062 "/></clipPath><clipPath id="025459f778"><path d="M 108.945312 256.164062 L 115.582031 256.164062 L 115.582031 262.800781 L 108.945312 262.800781 Z M 108.945312 256.164062 "/></clipPath><clipPath id="98b5f2e574"><path d="M 108.945312 259.480469 C 108.945312 261.316406 110.433594 262.800781 112.265625 262.800781 C 114.097656 262.800781 115.582031 261.316406 115.582031 259.480469 C 115.582031 257.648438 114.097656 256.164062 112.265625 256.164062 C 110.433594 256.164062 108.945312 257.648438 108.945312 259.480469 Z M 108.945312 259.480469 "/></clipPath><clipPath id="f178828f97"><path d="M 108.945312 264.769531 L 115.582031 264.769531 L 115.582031 271.40625 L 108.945312 271.40625 Z M 108.945312 264.769531 "/></clipPath><clipPath id="b32c7c7c19"><path d="M 108.945312 268.085938 C 108.945312 269.917969 110.433594 271.40625 112.265625 271.40625 C 114.097656 271.40625 115.582031 269.917969 115.582031 268.085938 C 115.582031 266.253906 114.097656 264.769531 112.265625 264.769531 C 110.433594 264.769531 108.945312 266.253906 108.945312 268.085938 Z M 108.945312 268.085938 "/></clipPath><clipPath id="670c9f8511"><path d="M 116.785156 264.769531 L 123.421875 264.769531 L 123.421875 271.40625 L 116.785156 271.40625 Z M 116.785156 264.769531 "/></clipPath><clipPath id="b9e95dae96"><path d="M 116.785156 268.085938 C 116.785156 269.917969 118.269531 271.40625 120.101562 271.40625 C 121.933594 271.40625 123.421875 269.917969 123.421875 268.085938 C 123.421875 266.253906 121.933594 264.769531 120.101562 264.769531 C 118.269531 264.769531 116.785156 266.253906 116.785156 268.085938 Z M 116.785156 268.085938 "/></clipPath><clipPath id="e16b9450d5"><path d="M 116.785156 273.375 L 123.421875 273.375 L 123.421875 280.011719 L 116.785156 280.011719 Z M 116.785156 273.375 "/></clipPath><clipPath id="28ffd0a07c"><path d="M 116.785156 276.691406 C 116.785156 278.523438 118.269531 280.011719 120.101562 280.011719 C 121.933594 280.011719 123.421875 278.523438 123.421875 276.691406 C 123.421875 274.859375 121.933594 273.375 120.101562 273.375 C 118.269531 273.375 116.785156 274.859375 116.785156 276.691406 Z M 116.785156 276.691406 "/></clipPath><clipPath id="4b8896a69f"><path d="M 124.636719 264.769531 L 131.273438 264.769531 L 131.273438 271.40625 L 124.636719 271.40625 Z M 124.636719 264.769531 "/></clipPath><clipPath id="295f4e2c5e"><path d="M 124.636719 268.085938 C 124.636719 269.917969 126.121094 271.40625 127.953125 271.40625 C 129.789062 271.40625 131.273438 269.917969 131.273438 268.085938 C 131.273438 266.253906 129.789062 264.769531 127.953125 264.769531 C 126.121094 264.769531 124.636719 266.253906 124.636719 268.085938 Z M 124.636719 268.085938 "/></clipPath><clipPath id="1ac0b10c94"><path d="M 84.855469 247.3125 L 91.492188 247.3125 L 91.492188 253.949219 L 84.855469 253.949219 Z M 84.855469 247.3125 "/></clipPath><clipPath id="b53ed95308"><path d="M 84.855469 250.628906 C 84.855469 252.464844 86.339844 253.949219 88.171875 253.949219 C 90.003906 253.949219 91.492188 252.464844 91.492188 250.628906 C 91.492188 248.796875 90.003906 247.3125 88.171875 247.3125 C 86.339844 247.3125 84.855469 248.796875 84.855469 250.628906 Z M 84.855469 250.628906 "/></clipPath><clipPath id="f847f0c2cb"><path d="M 84.855469 256.164062 L 91.492188 256.164062 L 91.492188 262.800781 L 84.855469 262.800781 Z M 84.855469 256.164062 "/></clipPath><clipPath id="8e269a7d5e"><path d="M 84.855469 259.480469 C 84.855469 261.316406 86.339844 262.800781 88.171875 262.800781 C 90.003906 262.800781 91.492188 261.316406 91.492188 259.480469 C 91.492188 257.648438 90.003906 256.164062 88.171875 256.164062 C 86.339844 256.164062 84.855469 257.648438 84.855469 259.480469 Z M 84.855469 259.480469 "/></clipPath><clipPath id="a98852ebe5"><path d="M 130.855469 242.917969 L 137.492188 242.917969 L 137.492188 249.554688 L 130.855469 249.554688 Z M 130.855469 242.917969 "/></clipPath><clipPath id="adb4fdfdfd"><path d="M 130.855469 246.234375 C 130.855469 248.066406 132.339844 249.554688 134.175781 249.554688 C 136.007812 249.554688 137.492188 248.066406 137.492188 246.234375 C 137.492188 244.402344 136.007812 242.917969 134.175781 242.917969 C 132.339844 242.917969 130.855469 244.402344 130.855469 246.234375 Z M 130.855469 246.234375 "/></clipPath><clipPath id="64c6f64107"><path d="M 100.832031 273.375 L 107.46875 273.375 L 107.46875 280.011719 L 100.832031 280.011719 Z M 100.832031 273.375 "/></clipPath><clipPath id="8ed8eb0be6"><path d="M 100.832031 276.691406 C 100.832031 278.523438 102.320312 280.011719 104.152344 280.011719 C 105.984375 280.011719 107.46875 278.523438 107.46875 276.691406 C 107.46875 274.859375 105.984375 273.375 104.152344 273.375 C 102.320312 273.375 100.832031 274.859375 100.832031 276.691406 Z M 100.832031 276.691406 "/></clipPath><clipPath id="b260881f54"><path d="M 83 246 L 139 246 L 139 283 L 83 283 Z M 83 246 "/></clipPath><clipPath id="3c29a5e38d"><path d="M 77.207031 273.738281 L 85.253906 246.097656 L 138.40625 261.570312 L 130.363281 289.210938 Z M 77.207031 273.738281 "/></clipPath><clipPath id="22a79e7243"><path d="M 77.207031 273.738281 L 92.675781 220.585938 L 145.832031 236.054688 L 130.363281 289.210938 Z M 77.207031 273.738281 "/></clipPath><clipPath id="e99c9f6cc3"><path d="M 101.082031 264.769531 L 107.71875 264.769531 L 107.71875 271.40625 L 101.082031 271.40625 Z M 101.082031 264.769531 "/></clipPath><clipPath id="01dc22f657"><path d="M 101.082031 268.085938 C 101.082031 269.917969 102.566406 271.40625 104.398438 271.40625 C 106.234375 271.40625 107.71875 269.917969 107.71875 268.085938 C 107.71875 266.253906 106.234375 264.769531 104.398438 264.769531 C 102.566406 264.769531 101.082031 266.253906 101.082031 268.085938 Z M 101.082031 268.085938 "/></clipPath><clipPath id="b80453a799"><path d="M 92.96875 264.769531 L 99.605469 264.769531 L 99.605469 271.40625 L 92.96875 271.40625 Z M 92.96875 264.769531 "/></clipPath><clipPath id="ac8afbbdd0"><path d="M 92.96875 268.085938 C 92.96875 269.917969 94.453125 271.40625 96.285156 271.40625 C 98.117188 271.40625 99.605469 269.917969 99.605469 268.085938 C 99.605469 266.253906 98.117188 264.769531 96.285156 264.769531 C 94.453125 264.769531 92.96875 266.253906 92.96875 268.085938 Z M 92.96875 268.085938 "/></clipPath><clipPath id="9045e423f8"><path d="M 101.082031 256.164062 L 107.71875 256.164062 L 107.71875 262.800781 L 101.082031 262.800781 Z M 101.082031 256.164062 "/></clipPath><clipPath id="66fb6e3744"><path d="M 101.082031 259.480469 C 101.082031 261.316406 102.566406 262.800781 104.398438 262.800781 C 106.234375 262.800781 107.71875 261.316406 107.71875 259.480469 C 107.71875 257.648438 106.234375 256.164062 104.398438 256.164062 C 102.566406 256.164062 101.082031 257.648438 101.082031 259.480469 Z M 101.082031 259.480469 "/></clipPath><clipPath id="e731d3e5b5"><path d="M 92.96875 256.164062 L 99.605469 256.164062 L 99.605469 262.800781 L 92.96875 262.800781 Z M 92.96875 256.164062 "/></clipPath><clipPath id="cef5f3457f"><path d="M 92.96875 259.480469 C 92.96875 261.316406 94.453125 262.800781 96.285156 262.800781 C 98.117188 262.800781 99.605469 261.316406 99.605469 259.480469 C 99.605469 257.648438 98.117188 256.164062 96.285156 256.164062 C 94.453125 256.164062 92.96875 257.648438 92.96875 259.480469 Z M 92.96875 259.480469 "/></clipPath><clipPath id="4d31d57cb9"><path d="M 92.96875 247.3125 L 99.605469 247.3125 L 99.605469 253.949219 L 92.96875 253.949219 Z M 92.96875 247.3125 "/></clipPath><clipPath id="1b26c196d5"><path d="M 92.96875 250.628906 C 92.96875 252.464844 94.453125 253.949219 96.285156 253.949219 C 98.117188 253.949219 99.605469 252.464844 99.605469 250.628906 C 99.605469 248.796875 98.117188 247.3125 96.285156 247.3125 C 94.453125 247.3125 92.96875 248.796875 92.96875 250.628906 Z M 92.96875 250.628906 "/></clipPath><clipPath id="69e6560a9b"><path d="M 92.96875 238.96875 L 99.605469 238.96875 L 99.605469 245.605469 L 92.96875 245.605469 Z M 92.96875 238.96875 "/></clipPath><clipPath id="b2ba9589dc"><path d="M 92.96875 242.285156 C 92.96875 244.121094 94.453125 245.605469 96.285156 245.605469 C 98.117188 245.605469 99.605469 244.121094 99.605469 242.285156 C 99.605469 240.453125 98.117188 238.96875 96.285156 238.96875 C 94.453125 238.96875 92.96875 240.453125 92.96875 242.285156 Z M 92.96875 242.285156 "/></clipPath><clipPath id="142c893007"><path d="M 100.957031 247.5 L 107.59375 247.5 L 107.59375 254.136719 L 100.957031 254.136719 Z M 100.957031 247.5 "/></clipPath><clipPath id="6dfe8ccaba"><path d="M 100.957031 250.820312 C 100.957031 252.652344 102.441406 254.136719 104.277344 254.136719 C 106.109375 254.136719 107.59375 252.652344 107.59375 250.820312 C 107.59375 248.984375 106.109375 247.5 104.277344 247.5 C 102.441406 247.5 100.957031 248.984375 100.957031 250.820312 Z M 100.957031 250.820312 "/></clipPath><clipPath id="6e8d1e284f"><path d="M 116.816406 76.957031 L 142.859375 76.957031 L 142.859375 103 L 116.816406 103 Z M 116.816406 76.957031 "/></clipPath><clipPath id="f7e96055de"><path d="M 129.839844 76.957031 C 122.644531 76.957031 116.816406 82.785156 116.816406 89.976562 C 116.816406 97.171875 122.644531 103 129.839844 103 C 137.03125 103 142.859375 97.171875 142.859375 89.976562 C 142.859375 82.785156 137.03125 76.957031 129.839844 76.957031 Z M 129.839844 76.957031 "/></clipPath><clipPath id="454bf23539"><path d="M 116.816406 116 L 142.859375 116 L 142.859375 142.042969 L 116.816406 142.042969 Z M 116.816406 116 "/></clipPath><clipPath id="6903f56a68"><path d="M 129.839844 116 C 122.644531 116 116.816406 121.828125 116.816406 129.019531 C 116.816406 136.214844 122.644531 142.042969 129.839844 142.042969 C 137.03125 142.042969 142.859375 136.214844 142.859375 129.019531 C 142.859375 121.828125 137.03125 116 129.839844 116 Z M 129.839844 116 "/></clipPath><clipPath id="94d9de2ee6"><path d="M 116.816406 155.042969 L 142.859375 155.042969 L 142.859375 181.085938 L 116.816406 181.085938 Z M 116.816406 155.042969 "/></clipPath><clipPath id="e113e57ae4"><path d="M 129.839844 155.042969 C 122.644531 155.042969 116.816406 160.871094 116.816406 168.0625 C 116.816406 175.253906 122.644531 181.085938 129.839844 181.085938 C 137.03125 181.085938 142.859375 175.253906 142.859375 168.0625 C 142.859375 160.871094 137.03125 155.042969 129.839844 155.042969 Z M 129.839844 155.042969 "/></clipPath><clipPath id="88f3f1e75b"><path d="M 116.816406 194.082031 L 142.859375 194.082031 L 142.859375 220.128906 L 116.816406 220.128906 Z M 116.816406 194.082031 "/></clipPath><clipPath id="bb7a609aa5"><path d="M 129.839844 194.082031 C 122.644531 194.082031 116.816406 199.914062 116.816406 207.105469 C 116.816406 214.296875 122.644531 220.128906 129.839844 220.128906 C 137.03125 220.128906 142.859375 214.296875 142.859375 207.105469 C 142.859375 199.914062 137.03125 194.082031 129.839844 194.082031 Z M 129.839844 194.082031 "/></clipPath><clipPath id="02a708b73f"><path d="M 155.257812 116 L 181.300781 116 L 181.300781 142.042969 L 155.257812 142.042969 Z M 155.257812 116 "/></clipPath><clipPath id="35242fbd8a"><path d="M 168.28125 116 C 161.085938 116 155.257812 121.828125 155.257812 129.019531 C 155.257812 136.214844 161.085938 142.042969 168.28125 142.042969 C 175.472656 142.042969 181.300781 136.214844 181.300781 129.019531 C 181.300781 121.828125 175.472656 116 168.28125 116 Z M 168.28125 116 "/></clipPath><clipPath id="e72546f447"><path d="M 155.257812 155.042969 L 181.300781 155.042969 L 181.300781 181.085938 L 155.257812 181.085938 Z M 155.257812 155.042969 "/></clipPath><clipPath id="72f014a146"><path d="M 168.28125 155.042969 C 161.085938 155.042969 155.257812 160.871094 155.257812 168.0625 C 155.257812 175.253906 161.085938 181.085938 168.28125 181.085938 C 175.472656 181.085938 181.300781 175.253906 181.300781 168.0625 C 181.300781 160.871094 175.472656 155.042969 168.28125 155.042969 Z M 168.28125 155.042969 "/></clipPath><clipPath id="b731302fc4"><path d="M 155.257812 194.082031 L 181.300781 194.082031 L 181.300781 220.128906 L 155.257812 220.128906 Z M 155.257812 194.082031 "/></clipPath><clipPath id="611d3ef091"><path d="M 168.28125 194.082031 C 161.085938 194.082031 155.257812 199.914062 155.257812 207.105469 C 155.257812 214.296875 161.085938 220.128906 168.28125 220.128906 C 175.472656 220.128906 181.300781 214.296875 181.300781 207.105469 C 181.300781 199.914062 175.472656 194.082031 168.28125 194.082031 Z M 168.28125 194.082031 "/></clipPath><clipPath id="859e072822"><path d="M 193.699219 155.042969 L 219.742188 155.042969 L 219.742188 181.085938 L 193.699219 181.085938 Z M 193.699219 155.042969 "/></clipPath><clipPath id="2017cf60c3"><path d="M 206.71875 155.042969 C 199.527344 155.042969 193.699219 160.871094 193.699219 168.0625 C 193.699219 175.253906 199.527344 181.085938 206.71875 181.085938 C 213.914062 181.085938 219.742188 175.253906 219.742188 168.0625 C 219.742188 160.871094 213.914062 155.042969 206.71875 155.042969 Z M 206.71875 155.042969 "/></clipPath><clipPath id="2cf44c7fcd"><path d="M 193.699219 194.082031 L 219.742188 194.082031 L 219.742188 220.128906 L 193.699219 220.128906 Z M 193.699219 194.082031 "/></clipPath><clipPath id="7ba8a8ba19"><path d="M 206.71875 194.082031 C 199.527344 194.082031 193.699219 199.914062 193.699219 207.105469 C 193.699219 214.296875 199.527344 220.128906 206.71875 220.128906 C 213.914062 220.128906 219.742188 214.296875 219.742188 207.105469 C 219.742188 199.914062 213.914062 194.082031 206.71875 194.082031 Z M 206.71875 194.082031 "/></clipPath><clipPath id="008c7a4aa4"><path d="M 231.074219 194.082031 L 257.121094 194.082031 L 257.121094 220.128906 L 231.074219 220.128906 Z M 231.074219 194.082031 "/></clipPath><clipPath id="b42f456ee1"><path d="M 244.097656 194.082031 C 236.90625 194.082031 231.074219 199.914062 231.074219 207.105469 C 231.074219 214.296875 236.90625 220.128906 244.097656 220.128906 C 251.289062 220.128906 257.121094 214.296875 257.121094 207.105469 C 257.121094 199.914062 251.289062 194.082031 244.097656 194.082031 Z M 244.097656 194.082031 "/></clipPath><clipPath id="db508b2f2f"><path d="M 232.128906 155.03125 L 258.171875 155.03125 L 258.171875 181.074219 L 232.128906 181.074219 Z M 232.128906 155.03125 "/></clipPath><clipPath id="63705e29c3"><path d="M 245.148438 181.074219 C 252.339844 181.074219 258.171875 175.242188 258.171875 168.050781 C 258.171875 160.859375 252.339844 155.03125 245.148438 155.03125 C 237.957031 155.03125 232.128906 160.859375 232.128906 168.050781 C 232.128906 175.242188 237.957031 181.074219 245.148438 181.074219 Z M 245.148438 181.074219 "/></clipPath><clipPath id="9fcc960e5b"><path d="M 232.128906 115.988281 L 258.171875 115.988281 L 258.171875 142.03125 L 232.128906 142.03125 Z M 232.128906 115.988281 "/></clipPath><clipPath id="9af3798d98"><path d="M 245.148438 142.03125 C 252.339844 142.03125 258.171875 136.203125 258.171875 129.007812 C 258.171875 121.816406 252.339844 115.988281 245.148438 115.988281 C 237.957031 115.988281 232.128906 121.816406 232.128906 129.007812 C 232.128906 136.203125 237.957031 142.03125 245.148438 142.03125 Z M 245.148438 142.03125 "/></clipPath><clipPath id="5581805ef4"><path d="M 232.128906 76.945312 L 258.171875 76.945312 L 258.171875 102.988281 L 232.128906 102.988281 Z M 232.128906 76.945312 "/></clipPath><clipPath id="5707645711"><path d="M 245.148438 102.988281 C 252.339844 102.988281 258.171875 97.160156 258.171875 89.964844 C 258.171875 82.773438 252.339844 76.945312 245.148438 76.945312 C 237.957031 76.945312 232.128906 82.773438 232.128906 89.964844 C 232.128906 97.160156 237.957031 102.988281 245.148438 102.988281 Z M 245.148438 102.988281 "/></clipPath><clipPath id="6a70bf7cec"><path d="M 193.6875 115.988281 L 219.730469 115.988281 L 219.730469 142.03125 L 193.6875 142.03125 Z M 193.6875 115.988281 "/></clipPath><clipPath id="7e0349c24e"><path d="M 206.707031 142.03125 C 213.902344 142.03125 219.730469 136.203125 219.730469 129.007812 C 219.730469 121.816406 213.902344 115.988281 206.707031 115.988281 C 199.515625 115.988281 193.6875 121.816406 193.6875 129.007812 C 193.6875 136.203125 199.515625 142.03125 206.707031 142.03125 Z M 206.707031 142.03125 "/></clipPath><clipPath id="b386f4fefe"><path d="M 193.6875 76.945312 L 219.730469 76.945312 L 219.730469 102.988281 L 193.6875 102.988281 Z M 193.6875 76.945312 "/></clipPath><clipPath id="92a4112d2d"><path d="M 206.707031 102.988281 C 213.902344 102.988281 219.730469 97.160156 219.730469 89.964844 C 219.730469 82.773438 213.902344 76.945312 206.707031 76.945312 C 199.515625 76.945312 193.6875 82.773438 193.6875 89.964844 C 193.6875 97.160156 199.515625 102.988281 206.707031 102.988281 Z M 206.707031 102.988281 "/></clipPath><clipPath id="a097673845"><path d="M 155.246094 76.945312 L 181.289062 76.945312 L 181.289062 102.988281 L 155.246094 102.988281 Z M 155.246094 76.945312 "/></clipPath><clipPath id="ce440a9b90"><path d="M 168.269531 102.988281 C 175.460938 102.988281 181.289062 97.160156 181.289062 89.964844 C 181.289062 82.773438 175.460938 76.945312 168.269531 76.945312 C 161.074219 76.945312 155.246094 82.773438 155.246094 89.964844 C 155.246094 97.160156 161.074219 102.988281 168.269531 102.988281 Z M 168.269531 102.988281 "/></clipPath></defs><g id="e0efc26b89"><g style="fill:#14ae5c;fill-opacity:1;"><g transform="translate(139.479809, 280.615518)"><path style="stroke:none" d="M 18.5 0.8125 C 16.269531 0.8125 14.195312 0.398438 12.28125 -0.421875 C 10.375 -1.253906 8.703125 -2.410156 7.265625 -3.890625 C 5.828125 -5.367188 4.703125 -7.082031 3.890625 -9.03125 C 3.078125 -10.988281 2.671875 -13.101562 2.671875 -15.375 C 2.671875 -17.632812 3.070312 -19.742188 3.875 -21.703125 C 4.675781 -23.671875 5.796875 -25.394531 7.234375 -26.875 C 8.671875 -28.351562 10.347656 -29.507812 12.265625 -30.34375 C 14.191406 -31.175781 16.269531 -31.59375 18.5 -31.59375 C 20.726562 -31.59375 22.800781 -31.175781 24.71875 -30.34375 C 26.644531 -29.507812 28.328125 -28.351562 29.765625 -26.875 C 31.203125 -25.394531 32.320312 -23.671875 33.125 -21.703125 C 33.9375 -19.742188 34.34375 -17.632812 34.34375 -15.375 C 34.34375 -13.125 33.9375 -11.015625 33.125 -9.046875 C 32.320312 -7.085938 31.203125 -5.367188 29.765625 -3.890625 C 28.328125 -2.410156 26.644531 -1.253906 24.71875 -0.421875 C 22.800781 0.398438 20.726562 0.8125 18.5 0.8125 Z M 18.53125 -2.515625 C 20.25 -2.515625 21.851562 -2.835938 23.34375 -3.484375 C 24.832031 -4.140625 26.132812 -5.046875 27.25 -6.203125 C 28.375 -7.367188 29.25 -8.734375 29.875 -10.296875 C 30.507812 -11.859375 30.828125 -13.5625 30.828125 -15.40625 C 30.828125 -17.21875 30.507812 -18.90625 29.875 -20.46875 C 29.25 -22.03125 28.375 -23.390625 27.25 -24.546875 C 26.132812 -25.710938 24.832031 -26.617188 23.34375 -27.265625 C 21.851562 -27.921875 20.25 -28.25 18.53125 -28.25 C 16.8125 -28.25 15.207031 -27.921875 13.71875 -27.265625 C 12.226562 -26.617188 10.914062 -25.710938 9.78125 -24.546875 C 8.644531 -23.390625 7.757812 -22.03125 7.125 -20.46875 C 6.488281 -18.90625 6.171875 -17.21875 6.171875 -15.40625 C 6.171875 -13.5625 6.488281 -11.859375 7.125 -10.296875 C 7.757812 -8.734375 8.644531 -7.367188 9.78125 -6.203125 C 10.914062 -5.046875 12.226562 -4.140625 13.71875 -3.484375 C 15.207031 -2.835938 16.8125 -2.515625 18.53125 -2.515625 Z M 18.53125 -2.515625 "/></g></g><g style="fill:#14ae5c;fill-opacity:1;"><g transform="translate(176.502083, 280.615518)"><path style="stroke:none" d="M 18.15625 0.8125 C 15.53125 0.8125 13.226562 0.453125 11.25 -0.265625 C 9.28125 -0.984375 7.640625 -1.9375 6.328125 -3.125 C 5.023438 -4.320312 4.050781 -5.660156 3.40625 -7.140625 C 2.757812 -8.617188 2.4375 -10.113281 2.4375 -11.625 L 6.046875 -11.625 C 6.046875 -10.457031 6.316406 -9.316406 6.859375 -8.203125 C 7.410156 -7.085938 8.207031 -6.085938 9.25 -5.203125 C 10.289062 -4.328125 11.5625 -3.628906 13.0625 -3.109375 C 14.5625 -2.597656 16.257812 -2.34375 18.15625 -2.34375 C 22.03125 -2.34375 25.0625 -3.085938 27.25 -4.578125 C 29.4375 -6.078125 30.53125 -8.304688 30.53125 -11.265625 C 30.53125 -12.703125 30.21875 -13.910156 29.59375 -14.890625 C 28.976562 -15.878906 28.125 -16.695312 27.03125 -17.34375 C 25.9375 -17.988281 24.675781 -18.503906 23.25 -18.890625 C 21.820312 -19.273438 20.296875 -19.566406 18.671875 -19.765625 C 17.296875 -19.953125 15.894531 -20.203125 14.46875 -20.515625 C 13.039062 -20.828125 11.671875 -21.242188 10.359375 -21.765625 C 9.054688 -22.296875 7.890625 -22.96875 6.859375 -23.78125 C 5.828125 -24.59375 5.007812 -25.582031 4.40625 -26.75 C 3.8125 -27.925781 3.515625 -29.328125 3.515625 -30.953125 C 3.515625 -32.390625 3.769531 -33.773438 4.28125 -35.109375 C 4.789062 -36.441406 5.609375 -37.640625 6.734375 -38.703125 C 7.867188 -39.765625 9.367188 -40.609375 11.234375 -41.234375 C 13.097656 -41.867188 15.378906 -42.1875 18.078125 -42.1875 C 21.148438 -42.1875 23.75 -41.695312 25.875 -40.71875 C 28 -39.75 29.613281 -38.421875 30.71875 -36.734375 C 31.820312 -35.046875 32.375 -33.117188 32.375 -30.953125 L 28.796875 -30.953125 C 28.796875 -32.566406 28.363281 -33.972656 27.5 -35.171875 C 26.644531 -36.367188 25.410156 -37.296875 23.796875 -37.953125 C 22.179688 -38.609375 20.265625 -38.9375 18.046875 -38.9375 C 15.929688 -38.9375 14.171875 -38.710938 12.765625 -38.265625 C 11.359375 -37.816406 10.238281 -37.210938 9.40625 -36.453125 C 8.582031 -35.703125 7.992188 -34.847656 7.640625 -33.890625 C 7.285156 -32.941406 7.109375 -31.960938 7.109375 -30.953125 C 7.109375 -29.265625 7.613281 -27.882812 8.625 -26.8125 C 9.632812 -25.738281 11.082031 -24.894531 12.96875 -24.28125 C 14.851562 -23.664062 17.09375 -23.207031 19.6875 -22.90625 C 20.9375 -22.738281 22.234375 -22.503906 23.578125 -22.203125 C 24.929688 -21.898438 26.234375 -21.476562 27.484375 -20.9375 C 28.742188 -20.40625 29.875 -19.71875 30.875 -18.875 C 31.875 -18.03125 32.671875 -16.984375 33.265625 -15.734375 C 33.867188 -14.492188 34.171875 -13.003906 34.171875 -11.265625 C 34.171875 -8.773438 33.539062 -6.625 32.28125 -4.8125 C 31.03125 -3 29.207031 -1.609375 26.8125 -0.640625 C 24.425781 0.328125 21.539062 0.8125 18.15625 0.8125 Z M 18.15625 0.8125 "/></g></g><g style="fill:#14ae5c;fill-opacity:1;"><g transform="translate(212.916938, 280.615518)"><path style="stroke:none" d="M 18.5 0.8125 C 16.269531 0.8125 14.195312 0.398438 12.28125 -0.421875 C 10.375 -1.253906 8.703125 -2.410156 7.265625 -3.890625 C 5.828125 -5.367188 4.703125 -7.082031 3.890625 -9.03125 C 3.078125 -10.988281 2.671875 -13.101562 2.671875 -15.375 C 2.671875 -17.632812 3.070312 -19.742188 3.875 -21.703125 C 4.675781 -23.671875 5.796875 -25.394531 7.234375 -26.875 C 8.671875 -28.351562 10.347656 -29.507812 12.265625 -30.34375 C 14.191406 -31.175781 16.269531 -31.59375 18.5 -31.59375 C 20.726562 -31.59375 22.800781 -31.175781 24.71875 -30.34375 C 26.644531 -29.507812 28.328125 -28.351562 29.765625 -26.875 C 31.203125 -25.394531 32.320312 -23.671875 33.125 -21.703125 C 33.9375 -19.742188 34.34375 -17.632812 34.34375 -15.375 C 34.34375 -13.125 33.9375 -11.015625 33.125 -9.046875 C 32.320312 -7.085938 31.203125 -5.367188 29.765625 -3.890625 C 28.328125 -2.410156 26.644531 -1.253906 24.71875 -0.421875 C 22.800781 0.398438 20.726562 0.8125 18.5 0.8125 Z M 18.53125 -2.515625 C 20.25 -2.515625 21.851562 -2.835938 23.34375 -3.484375 C 24.832031 -4.140625 26.132812 -5.046875 27.25 -6.203125 C 28.375 -7.367188 29.25 -8.734375 29.875 -10.296875 C 30.507812 -11.859375 30.828125 -13.5625 30.828125 -15.40625 C 30.828125 -17.21875 30.507812 -18.90625 29.875 -20.46875 C 29.25 -22.03125 28.375 -23.390625 27.25 -24.546875 C 26.132812 -25.710938 24.832031 -26.617188 23.34375 -27.265625 C 21.851562 -27.921875 20.25 -28.25 18.53125 -28.25 C 16.8125 -28.25 15.207031 -27.921875 13.71875 -27.265625 C 12.226562 -26.617188 10.914062 -25.710938 9.78125 -24.546875 C 8.644531 -23.390625 7.757812 -22.03125 7.125 -20.46875 C 6.488281 -18.90625 6.171875 -17.21875 6.171875 -15.40625 C 6.171875 -13.5625 6.488281 -11.859375 7.125 -10.296875 C 7.757812 -8.734375 8.644531 -7.367188 9.78125 -6.203125 C 10.914062 -5.046875 12.226562 -4.140625 13.71875 -3.484375 C 15.207031 -2.835938 16.8125 -2.515625 18.53125 -2.515625 Z M 18.53125 -2.515625 "/></g></g><g style="fill:#14ae5c;fill-opacity:1;"><g transform="translate(249.939212, 280.615518)"><path style="stroke:none" d="M 9.109375 0 L 5.59375 0 L 5.59375 -30.765625 L 8.984375 -30.765625 L 8.984375 -22.78125 C 9.773438 -25.289062 11.078125 -27.25 12.890625 -28.65625 C 14.703125 -30.0625 16.8125 -30.765625 19.21875 -30.765625 L 21.953125 -30.765625 L 21.953125 -27.609375 L 19.375 -27.609375 C 17.46875 -27.609375 15.738281 -27.09375 14.1875 -26.0625 C 12.644531 -25.03125 11.410156 -23.546875 10.484375 -21.609375 C 9.566406 -19.671875 9.109375 -17.347656 9.109375 -14.640625 Z M 9.109375 0 "/></g></g><g style="fill:#14ae5c;fill-opacity:1;"><g transform="translate(273.993113, 280.615518)"><path style="stroke:none" d="M 22.015625 0 L 16.859375 0 C 15.660156 0 14.507812 -0.15625 13.40625 -0.46875 C 12.300781 -0.78125 11.304688 -1.34375 10.421875 -2.15625 C 9.546875 -2.96875 8.847656 -4.097656 8.328125 -5.546875 C 7.816406 -6.992188 7.5625 -8.847656 7.5625 -11.109375 L 7.5625 -27.609375 L 0.296875 -27.609375 L 0.296875 -30.765625 L 7.5625 -30.765625 L 7.5625 -40.0625 L 11.0625 -40.0625 L 11.0625 -30.765625 L 22.015625 -30.765625 L 22.015625 -27.609375 L 11.0625 -27.609375 L 11.0625 -11 C 11.0625 -9.269531 11.242188 -7.878906 11.609375 -6.828125 C 11.984375 -5.773438 12.476562 -4.972656 13.09375 -4.421875 C 13.71875 -3.878906 14.410156 -3.515625 15.171875 -3.328125 C 15.929688 -3.148438 16.695312 -3.0625 17.46875 -3.0625 L 22.015625 -3.0625 Z M 22.015625 0 "/></g></g><g clip-rule="nonzero" clip-path="url(#711282208d)"><g clip-rule="nonzero" clip-path="url(#01ce3b688d)"><path style=" stroke:none;fill-rule:nonzero;fill:#14ae5c;fill-opacity:1;" d="M 132.84375 262.800781 L 132.84375 256.164062 L 139.480469 256.164062 L 139.480469 262.800781 Z M 132.84375 262.800781 "/></g></g><g clip-rule="nonzero" clip-path="url(#b54ccce298)"><g clip-rule="nonzero" clip-path="url(#47b2202a8b)"><path style=" stroke:none;fill-rule:nonzero;fill:#14ae5c;fill-opacity:1;" d="M 108.945312 280.292969 L 108.945312 273.65625 L 115.582031 273.65625 L 115.582031 280.292969 Z M 108.945312 280.292969 "/></g></g><g clip-rule="nonzero" clip-path="url(#76d10b8ba6)"><g clip-rule="nonzero" clip-path="url(#bc3e5b25b9)"><path style=" stroke:none;fill-rule:nonzero;fill:#14ae5c;fill-opacity:1;" d="M 116.785156 262.800781 L 116.785156 256.164062 L 123.421875 256.164062 L 123.421875 262.800781 Z M 116.785156 262.800781 "/></g></g><g clip-rule="nonzero" clip-path="url(#080561936b)"><g clip-rule="nonzero" clip-path="url(#fb10857ffd)"><path style=" stroke:none;fill-rule:nonzero;fill:#14ae5c;fill-opacity:1;" d="M 124.636719 262.800781 L 124.636719 256.164062 L 131.273438 256.164062 L 131.273438 262.800781 Z M 124.636719 262.800781 "/></g></g><g clip-rule="nonzero" clip-path="url(#775695b21f)"><g clip-rule="nonzero" clip-path="url(#554a1571e8)"><g clip-rule="nonzero" clip-path="url(#d3658ceca4)"><path style=" stroke:none;fill-rule:nonzero;fill:#14ae5c;fill-opacity:1;" d="M 99.125 231.769531 C 101.421875 230.703125 103.769531 229.964844 106.175781 229.558594 C 108.578125 229.148438 110.960938 229.058594 113.324219 229.285156 C 115.6875 229.511719 117.976562 230.027344 120.195312 230.835938 C 122.414062 231.644531 124.503906 232.730469 126.464844 234.09375 C 128.425781 235.457031 130.195312 237.0625 131.765625 238.902344 C 133.335938 240.746094 134.667969 242.816406 135.761719 245.121094 C 136.828125 247.414062 137.566406 249.765625 137.972656 252.167969 C 138.382812 254.574219 138.472656 256.957031 138.246094 259.320312 C 138.019531 261.683594 137.503906 263.972656 136.695312 266.191406 C 135.886719 268.410156 134.800781 270.5 133.4375 272.460938 C 132.074219 274.421875 130.46875 276.1875 128.628906 277.757812 C 126.785156 279.332031 124.714844 280.664062 122.410156 281.753906 C 120.117188 282.824219 117.765625 283.5625 115.363281 283.96875 C 112.957031 284.375 110.574219 284.464844 108.210938 284.242188 C 105.847656 284.015625 103.558594 283.496094 101.339844 282.6875 C 99.121094 281.878906 97.03125 280.792969 95.070312 279.429688 C 93.109375 278.066406 91.347656 276.472656 89.78125 274.648438 C 88.21875 272.820312 86.882812 270.742188 85.777344 268.40625 C 84.707031 266.109375 83.96875 263.761719 83.5625 261.355469 C 83.15625 258.953125 83.066406 256.570312 83.289062 254.207031 C 83.515625 251.84375 84.035156 249.554688 84.84375 247.335938 C 85.652344 245.117188 86.738281 243.027344 88.101562 241.066406 C 89.464844 239.105469 91.058594 237.339844 92.882812 235.777344 C 94.710938 234.214844 96.792969 232.878906 99.125 231.769531 Z M 120.953125 278.632812 C 122.957031 277.699219 124.761719 276.539062 126.375 275.15625 C 127.988281 273.769531 129.386719 272.226562 130.574219 270.527344 C 131.761719 268.824219 132.710938 266.988281 133.414062 265.015625 C 134.121094 263.042969 134.574219 261.039062 134.773438 259.007812 C 134.972656 256.972656 134.902344 254.886719 134.5625 252.75 C 134.21875 250.609375 133.578125 248.554688 132.636719 246.578125 C 131.703125 244.574219 130.546875 242.769531 129.160156 241.15625 C 127.777344 239.542969 126.234375 238.144531 124.53125 236.957031 C 122.828125 235.769531 120.992188 234.820312 119.019531 234.117188 C 117.050781 233.410156 115.046875 232.957031 113.011719 232.757812 C 110.976562 232.558594 108.890625 232.628906 106.753906 232.96875 C 104.617188 233.3125 102.558594 233.953125 100.582031 234.894531 C 98.582031 235.828125 96.773438 236.984375 95.160156 238.371094 C 93.550781 239.753906 92.148438 241.296875 90.960938 243 C 89.773438 244.703125 88.828125 246.539062 88.121094 248.511719 C 87.417969 250.480469 86.964844 252.484375 86.761719 254.519531 C 86.5625 256.554688 86.632812 258.640625 86.976562 260.777344 C 87.316406 262.914062 87.960938 264.972656 88.898438 266.949219 C 89.832031 268.949219 90.992188 270.757812 92.375 272.371094 C 93.761719 273.984375 95.304688 275.382812 97.003906 276.570312 C 98.707031 277.757812 100.542969 278.703125 102.515625 279.410156 C 104.488281 280.113281 106.492188 280.566406 108.523438 280.769531 C 110.558594 280.96875 112.644531 280.898438 114.78125 280.554688 C 116.921875 280.214844 118.976562 279.570312 120.953125 278.632812 Z M 120.953125 278.632812 "/></g></g></g><g clip-rule="nonzero" clip-path="url(#025459f778)"><g clip-rule="nonzero" clip-path="url(#98b5f2e574)"><path style=" stroke:none;fill-rule:nonzero;fill:#14ae5c;fill-opacity:1;" d="M 108.945312 262.800781 L 108.945312 256.164062 L 115.582031 256.164062 L 115.582031 262.800781 Z M 108.945312 262.800781 "/></g></g><g clip-rule="nonzero" clip-path="url(#f178828f97)"><g clip-rule="nonzero" clip-path="url(#b32c7c7c19)"><path style=" stroke:none;fill-rule:nonzero;fill:#14ae5c;fill-opacity:1;" d="M 108.945312 271.40625 L 108.945312 264.769531 L 115.582031 264.769531 L 115.582031 271.40625 Z M 108.945312 271.40625 "/></g></g><g clip-rule="nonzero" clip-path="url(#670c9f8511)"><g clip-rule="nonzero" clip-path="url(#b9e95dae96)"><path style=" stroke:none;fill-rule:nonzero;fill:#7ed957;fill-opacity:1;" d="M 116.785156 271.40625 L 116.785156 264.769531 L 123.421875 264.769531 L 123.421875 271.40625 Z M 116.785156 271.40625 "/></g></g><g clip-rule="nonzero" clip-path="url(#e16b9450d5)"><g clip-rule="nonzero" clip-path="url(#28ffd0a07c)"><path style=" stroke:none;fill-rule:nonzero;fill:#7ed957;fill-opacity:1;" d="M 116.785156 280.011719 L 116.785156 273.375 L 123.421875 273.375 L 123.421875 280.011719 Z M 116.785156 280.011719 "/></g></g><g clip-rule="nonzero" clip-path="url(#4b8896a69f)"><g clip-rule="nonzero" clip-path="url(#295f4e2c5e)"><path style=" stroke:none;fill-rule:nonzero;fill:#7ed957;fill-opacity:1;" d="M 124.636719 271.40625 L 124.636719 264.769531 L 131.273438 264.769531 L 131.273438 271.40625 Z M 124.636719 271.40625 "/></g></g><g clip-rule="nonzero" clip-path="url(#1ac0b10c94)"><g clip-rule="nonzero" clip-path="url(#b53ed95308)"><path style=" stroke:none;fill-rule:nonzero;fill:#7ed957;fill-opacity:1;" d="M 84.855469 253.949219 L 84.855469 247.3125 L 91.492188 247.3125 L 91.492188 253.949219 Z M 84.855469 253.949219 "/></g></g><g clip-rule="nonzero" clip-path="url(#f847f0c2cb)"><g clip-rule="nonzero" clip-path="url(#8e269a7d5e)"><path style=" stroke:none;fill-rule:nonzero;fill:#c1ff72;fill-opacity:1;" d="M 84.855469 262.800781 L 84.855469 256.164062 L 91.492188 256.164062 L 91.492188 262.800781 Z M 84.855469 262.800781 "/></g></g><g clip-rule="nonzero" clip-path="url(#a98852ebe5)"><g clip-rule="nonzero" clip-path="url(#adb4fdfdfd)"><path style=" stroke:none;fill-rule:nonzero;fill:#14ae5c;fill-opacity:1;" d="M 130.855469 249.554688 L 130.855469 242.917969 L 137.492188 242.917969 L 137.492188 249.554688 Z M 130.855469 249.554688 "/></g></g><g clip-rule="nonzero" clip-path="url(#64c6f64107)"><g clip-rule="nonzero" clip-path="url(#8ed8eb0be6)"><path style=" stroke:none;fill-rule:nonzero;fill:#7ed957;fill-opacity:1;" d="M 100.832031 280.011719 L 100.832031 273.375 L 107.46875 273.375 L 107.46875 280.011719 Z M 100.832031 280.011719 "/></g></g><g clip-rule="nonzero" clip-path="url(#b260881f54)"><g clip-rule="nonzero" clip-path="url(#3c29a5e38d)"><g clip-rule="nonzero" clip-path="url(#22a79e7243)"><path style=" stroke:none;fill-rule:nonzero;fill:#14ae5c;fill-opacity:1;" d="M 84.910156 247.265625 C 85.621094 244.835938 86.613281 242.582031 87.890625 240.507812 C 89.167969 238.429688 90.667969 236.578125 92.394531 234.949219 C 94.121094 233.320312 96.019531 231.9375 98.089844 230.800781 C 100.15625 229.664062 102.351562 228.804688 104.667969 228.230469 C 106.988281 227.652344 109.359375 227.378906 111.777344 227.410156 C 114.199219 227.441406 116.636719 227.804688 119.089844 228.5 C 121.519531 229.207031 123.773438 230.199219 125.847656 231.476562 C 127.925781 232.753906 129.78125 234.253906 131.410156 235.980469 C 133.035156 237.707031 134.417969 239.605469 135.554688 241.675781 C 136.691406 243.746094 137.550781 245.9375 138.128906 248.257812 C 138.707031 250.574219 138.976562 252.945312 138.945312 255.367188 C 138.914062 257.785156 138.550781 260.222656 137.855469 262.675781 C 137.148438 265.105469 136.15625 267.359375 134.878906 269.4375 C 133.601562 271.515625 132.101562 273.367188 130.375 274.996094 C 128.648438 276.625 126.75 278.007812 124.679688 279.144531 C 122.609375 280.277344 120.417969 281.136719 118.097656 281.714844 C 115.78125 282.292969 113.417969 282.566406 111.015625 282.542969 C 108.613281 282.515625 106.167969 282.148438 103.679688 281.445312 C 101.25 280.738281 98.996094 279.746094 96.917969 278.464844 C 94.84375 277.1875 92.988281 275.6875 91.359375 273.960938 C 89.730469 272.234375 88.347656 270.335938 87.210938 268.265625 C 86.078125 266.199219 85.21875 264.003906 84.640625 261.6875 C 84.0625 259.367188 83.789062 257.007812 83.816406 254.601562 C 83.839844 252.199219 84.207031 249.753906 84.910156 247.265625 Z M 134.546875 261.710938 C 135.164062 259.59375 135.484375 257.46875 135.503906 255.34375 C 135.523438 253.21875 135.285156 251.148438 134.785156 249.136719 C 134.289062 247.121094 133.53125 245.199219 132.511719 243.371094 C 131.492188 241.539062 130.285156 239.878906 128.886719 238.386719 C 127.488281 236.898438 125.871094 235.578125 124.039062 234.425781 C 122.203125 233.277344 120.234375 232.402344 118.125 231.808594 C 116.003906 231.191406 113.882812 230.871094 111.757812 230.851562 C 109.632812 230.832031 107.5625 231.070312 105.546875 231.570312 C 103.535156 232.066406 101.613281 232.824219 99.78125 233.84375 C 97.953125 234.863281 96.292969 236.074219 94.800781 237.46875 C 93.308594 238.867188 91.988281 240.484375 90.839844 242.316406 C 89.6875 244.152344 88.816406 246.121094 88.222656 248.230469 C 87.605469 250.351562 87.285156 252.472656 87.265625 254.597656 C 87.246094 256.722656 87.484375 258.792969 87.980469 260.808594 C 88.480469 262.820312 89.238281 264.742188 90.257812 266.574219 C 91.277344 268.402344 92.484375 270.0625 93.882812 271.554688 C 95.28125 273.046875 96.898438 274.367188 98.730469 275.515625 C 100.566406 276.667969 102.535156 277.539062 104.644531 278.136719 C 106.761719 278.75 108.886719 279.070312 111.011719 279.089844 C 113.136719 279.109375 115.207031 278.871094 117.21875 278.375 C 119.234375 277.875 121.15625 277.117188 122.984375 276.097656 C 124.816406 275.078125 126.476562 273.871094 127.96875 272.472656 C 129.457031 271.074219 130.777344 269.457031 131.929688 267.625 C 133.082031 265.789062 133.953125 263.820312 134.546875 261.710938 Z M 134.546875 261.710938 "/></g></g></g><g clip-rule="nonzero" clip-path="url(#e99c9f6cc3)"><g clip-rule="nonzero" clip-path="url(#01dc22f657)"><path style=" stroke:none;fill-rule:nonzero;fill:#7ed957;fill-opacity:1;" d="M 101.082031 271.40625 L 101.082031 264.769531 L 107.71875 264.769531 L 107.71875 271.40625 Z M 101.082031 271.40625 "/></g></g><g clip-rule="nonzero" clip-path="url(#b80453a799)"><g clip-rule="nonzero" clip-path="url(#ac8afbbdd0)"><path style=" stroke:none;fill-rule:nonzero;fill:#7ed957;fill-opacity:1;" d="M 92.96875 271.40625 L 92.96875 264.769531 L 99.605469 264.769531 L 99.605469 271.40625 Z M 92.96875 271.40625 "/></g></g><g clip-rule="nonzero" clip-path="url(#9045e423f8)"><g clip-rule="nonzero" clip-path="url(#66fb6e3744)"><path style=" stroke:none;fill-rule:nonzero;fill:#c1ff72;fill-opacity:1;" d="M 101.082031 262.800781 L 101.082031 256.164062 L 107.71875 256.164062 L 107.71875 262.800781 Z M 101.082031 262.800781 "/></g></g><g clip-rule="nonzero" clip-path="url(#e731d3e5b5)"><g clip-rule="nonzero" clip-path="url(#cef5f3457f)"><path style=" stroke:none;fill-rule:nonzero;fill:#c1ff72;fill-opacity:1;" d="M 92.96875 262.800781 L 92.96875 256.164062 L 99.605469 256.164062 L 99.605469 262.800781 Z M 92.96875 262.800781 "/></g></g><g clip-rule="nonzero" clip-path="url(#4d31d57cb9)"><g clip-rule="nonzero" clip-path="url(#1b26c196d5)"><path style=" stroke:none;fill-rule:nonzero;fill:#7ed957;fill-opacity:1;" d="M 92.96875 253.949219 L 92.96875 247.3125 L 99.605469 247.3125 L 99.605469 253.949219 Z M 92.96875 253.949219 "/></g></g><g clip-rule="nonzero" clip-path="url(#69e6560a9b)"><g clip-rule="nonzero" clip-path="url(#b2ba9589dc)"><path style=" stroke:none;fill-rule:nonzero;fill:#7ed957;fill-opacity:1;" d="M 92.96875 245.605469 L 92.96875 238.96875 L 99.605469 238.96875 L 99.605469 245.605469 Z M 92.96875 245.605469 "/></g></g><g clip-rule="nonzero" clip-path="url(#142c893007)"><g clip-rule="nonzero" clip-path="url(#6dfe8ccaba)"><path style=" stroke:none;fill-rule:nonzero;fill:#7ed957;fill-opacity:1;" d="M 100.957031 254.136719 L 100.957031 247.5 L 107.59375 247.5 L 107.59375 254.136719 Z M 100.957031 254.136719 "/></g></g><g clip-rule="nonzero" clip-path="url(#6e8d1e284f)"><g clip-rule="nonzero" clip-path="url(#f7e96055de)"><path style=" stroke:none;fill-rule:nonzero;fill:#c1ff72;fill-opacity:1;" d="M 116.816406 76.957031 L 142.859375 76.957031 L 142.859375 103 L 116.816406 103 Z M 116.816406 76.957031 "/></g></g><g clip-rule="nonzero" clip-path="url(#454bf23539)"><g clip-rule="nonzero" clip-path="url(#6903f56a68)"><path style=" stroke:none;fill-rule:nonzero;fill:#99e579;fill-opacity:1;" d="M 116.816406 116 L 142.859375 116 L 142.859375 142.042969 L 116.816406 142.042969 Z M 116.816406 116 "/></g></g><g clip-rule="nonzero" clip-path="url(#94d9de2ee6)"><g clip-rule="nonzero" clip-path="url(#e113e57ae4)"><path style=" stroke:none;fill-rule:nonzero;fill:#58c542;fill-opacity:1;" d="M 116.816406 155.042969 L 142.859375 155.042969 L 142.859375 181.085938 L 116.816406 181.085938 Z M 116.816406 155.042969 "/></g></g><g clip-rule="nonzero" clip-path="url(#88f3f1e75b)"><g clip-rule="nonzero" clip-path="url(#bb7a609aa5)"><path style=" stroke:none;fill-rule:nonzero;fill:#14ae31;fill-opacity:1;" d="M 116.816406 194.082031 L 142.859375 194.082031 L 142.859375 220.128906 L 116.816406 220.128906 Z M 116.816406 194.082031 "/></g></g><g clip-rule="nonzero" clip-path="url(#02a708b73f)"><g clip-rule="nonzero" clip-path="url(#35242fbd8a)"><path style=" stroke:none;fill-rule:nonzero;fill:#c1ff72;fill-opacity:1;" d="M 155.257812 116 L 181.300781 116 L 181.300781 142.042969 L 155.257812 142.042969 Z M 155.257812 116 "/></g></g><g clip-rule="nonzero" clip-path="url(#e72546f447)"><g clip-rule="nonzero" clip-path="url(#72f014a146)"><path style=" stroke:none;fill-rule:nonzero;fill:#99e579;fill-opacity:1;" d="M 155.257812 155.042969 L 181.300781 155.042969 L 181.300781 181.085938 L 155.257812 181.085938 Z M 155.257812 155.042969 "/></g></g><g clip-rule="nonzero" clip-path="url(#b731302fc4)"><g clip-rule="nonzero" clip-path="url(#611d3ef091)"><path style=" stroke:none;fill-rule:nonzero;fill:#58c542;fill-opacity:1;" d="M 155.257812 194.082031 L 181.300781 194.082031 L 181.300781 220.128906 L 155.257812 220.128906 Z M 155.257812 194.082031 "/></g></g><g clip-rule="nonzero" clip-path="url(#859e072822)"><g clip-rule="nonzero" clip-path="url(#2017cf60c3)"><path style=" stroke:none;fill-rule:nonzero;fill:#c1ff72;fill-opacity:1;" d="M 193.699219 155.042969 L 219.742188 155.042969 L 219.742188 181.085938 L 193.699219 181.085938 Z M 193.699219 155.042969 "/></g></g><g clip-rule="nonzero" clip-path="url(#2cf44c7fcd)"><g clip-rule="nonzero" clip-path="url(#7ba8a8ba19)"><path style=" stroke:none;fill-rule:nonzero;fill:#99e579;fill-opacity:1;" d="M 193.699219 194.082031 L 219.742188 194.082031 L 219.742188 220.128906 L 193.699219 220.128906 Z M 193.699219 194.082031 "/></g></g><g clip-rule="nonzero" clip-path="url(#008c7a4aa4)"><g clip-rule="nonzero" clip-path="url(#b42f456ee1)"><path style=" stroke:none;fill-rule:nonzero;fill:#c1ff72;fill-opacity:1;" d="M 231.074219 194.082031 L 257.121094 194.082031 L 257.121094 220.128906 L 231.074219 220.128906 Z M 231.074219 194.082031 "/></g></g><g clip-rule="nonzero" clip-path="url(#db508b2f2f)"><g clip-rule="nonzero" clip-path="url(#63705e29c3)"><path style=" stroke:none;fill-rule:nonzero;fill:#99e579;fill-opacity:1;" d="M 258.171875 181.074219 L 232.128906 181.074219 L 232.128906 155.03125 L 258.171875 155.03125 Z M 258.171875 181.074219 "/></g></g><g clip-rule="nonzero" clip-path="url(#9fcc960e5b)"><g clip-rule="nonzero" clip-path="url(#9af3798d98)"><path style=" stroke:none;fill-rule:nonzero;fill:#58c542;fill-opacity:1;" d="M 258.171875 142.03125 L 232.128906 142.03125 L 232.128906 115.988281 L 258.171875 115.988281 Z M 258.171875 142.03125 "/></g></g><g clip-rule="nonzero" clip-path="url(#5581805ef4)"><g clip-rule="nonzero" clip-path="url(#5707645711)"><path style=" stroke:none;fill-rule:nonzero;fill:#14ae31;fill-opacity:1;" d="M 258.171875 102.988281 L 232.128906 102.988281 L 232.128906 76.945312 L 258.171875 76.945312 Z M 258.171875 102.988281 "/></g></g><g clip-rule="nonzero" clip-path="url(#6a70bf7cec)"><g clip-rule="nonzero" clip-path="url(#7e0349c24e)"><path style=" stroke:none;fill-rule:nonzero;fill:#99e579;fill-opacity:1;" d="M 219.730469 142.03125 L 193.6875 142.03125 L 193.6875 115.988281 L 219.730469 115.988281 Z M 219.730469 142.03125 "/></g></g><g clip-rule="nonzero" clip-path="url(#b386f4fefe)"><g clip-rule="nonzero" clip-path="url(#92a4112d2d)"><path style=" stroke:none;fill-rule:nonzero;fill:#58c542;fill-opacity:1;" d="M 219.730469 102.988281 L 193.6875 102.988281 L 193.6875 76.945312 L 219.730469 76.945312 Z M 219.730469 102.988281 "/></g></g><g clip-rule="nonzero" clip-path="url(#a097673845)"><g clip-rule="nonzero" clip-path="url(#ce440a9b90)"><path style=" stroke:none;fill-rule:nonzero;fill:#99e579;fill-opacity:1;" d="M 181.289062 102.988281 L 155.246094 102.988281 L 155.246094 76.945312 L 181.289062 76.945312 Z M 181.289062 102.988281 "/></g></g></g></svg>