<svg xmlns="http://www.w3.org/2000/svg" xmlns:xlink="http://www.w3.org/1999/xlink" width="500" zoomAndPan="magnify" viewBox="0 0 375 374.999991" height="500" preserveAspectRatio="xMidYMid meet" version="1.2"><defs><clipPath id="e0e5ef10aa"><path d="M 82 272 L 138 272 L 138 310 L 82 310 Z M 82 272 "/></clipPath><clipPath id="c7b7fd6328"><path d="M 75.4375 300.585938 L 83.609375 272.5 L 137.617188 288.21875 L 129.445312 316.300781 Z M 75.4375 300.585938 "/></clipPath><clipPath id="9dcc6fbac2"><path d="M 75.4375 300.585938 L 91.152344 246.574219 L 145.164062 262.292969 L 129.445312 316.300781 Z M 75.4375 300.585938 "/></clipPath><clipPath id="75ec374489"><path d="M 131.964844 282.726562 L 138.707031 282.726562 L 138.707031 289.46875 L 131.964844 289.46875 Z M 131.964844 282.726562 "/></clipPath><clipPath id="27db7d031d"><path d="M 131.964844 286.097656 C 131.964844 287.960938 133.472656 289.46875 135.335938 289.46875 C 137.199219 289.46875 138.707031 287.960938 138.707031 286.097656 C 138.707031 284.234375 137.199219 282.726562 135.335938 282.726562 C 133.472656 282.726562 131.964844 284.234375 131.964844 286.097656 Z M 131.964844 286.097656 "/></clipPath><clipPath id="08df5da9b8"><path d="M 107.683594 300.5 L 114.425781 300.5 L 114.425781 307.242188 L 107.683594 307.242188 Z M 107.683594 300.5 "/></clipPath><clipPath id="a2c945f214"><path d="M 107.683594 303.871094 C 107.683594 305.734375 109.195312 307.242188 111.054688 307.242188 C 112.917969 307.242188 114.425781 305.734375 114.425781 303.871094 C 114.425781 302.007812 112.917969 300.5 111.054688 300.5 C 109.195312 300.5 107.683594 302.007812 107.683594 303.871094 Z M 107.683594 303.871094 "/></clipPath><clipPath id="8498a991af"><path d="M 115.648438 282.726562 L 122.390625 282.726562 L 122.390625 289.46875 L 115.648438 289.46875 Z M 115.648438 282.726562 "/></clipPath><clipPath id="53cb54486e"><path d="M 115.648438 286.097656 C 115.648438 287.960938 117.15625 289.46875 119.019531 289.46875 C 120.882812 289.46875 122.390625 287.960938 122.390625 286.097656 C 122.390625 284.234375 120.882812 282.726562 119.019531 282.726562 C 117.15625 282.726562 115.648438 284.234375 115.648438 286.097656 Z M 115.648438 286.097656 "/></clipPath><clipPath id="c2ae47d637"><path d="M 123.625 282.726562 L 130.371094 282.726562 L 130.371094 289.46875 L 123.625 289.46875 Z M 123.625 282.726562 "/></clipPath><clipPath id="0070cc9090"><path d="M 123.625 286.097656 C 123.625 287.960938 125.136719 289.46875 126.996094 289.46875 C 128.859375 289.46875 130.371094 287.960938 130.371094 286.097656 C 130.371094 284.234375 128.859375 282.726562 126.996094 282.726562 C 125.136719 282.726562 123.625 284.234375 123.625 286.097656 Z M 123.625 286.097656 "/></clipPath><clipPath id="d4d1db14df"><path d="M 81 255 L 136 255 L 136 293 L 81 293 Z M 81 255 "/></clipPath><clipPath id="9bf6c71a09"><path d="M 80.03125 266.175781 L 122.863281 246.222656 L 135.214844 272.738281 L 92.382812 292.6875 Z M 80.03125 266.175781 "/></clipPath><clipPath id="c4743c5a2d"><path d="M 72.3125 269.769531 L 123.300781 246.019531 L 147.054688 297.007812 L 96.066406 320.757812 Z M 72.3125 269.769531 "/></clipPath><clipPath id="69093436d2"><path d="M 107.683594 282.726562 L 114.425781 282.726562 L 114.425781 289.46875 L 107.683594 289.46875 Z M 107.683594 282.726562 "/></clipPath><clipPath id="f07b4aa45c"><path d="M 107.683594 286.097656 C 107.683594 287.960938 109.195312 289.46875 111.054688 289.46875 C 112.917969 289.46875 114.425781 287.960938 114.425781 286.097656 C 114.425781 284.234375 112.917969 282.726562 111.054688 282.726562 C 109.195312 282.726562 107.683594 284.234375 107.683594 286.097656 Z M 107.683594 286.097656 "/></clipPath><clipPath id="402fdcdce0"><path d="M 107.683594 291.46875 L 114.425781 291.46875 L 114.425781 298.210938 L 107.683594 298.210938 Z M 107.683594 291.46875 "/></clipPath><clipPath id="450f97c370"><path d="M 107.683594 294.839844 C 107.683594 296.703125 109.195312 298.210938 111.054688 298.210938 C 112.917969 298.210938 114.425781 296.703125 114.425781 294.839844 C 114.425781 292.976562 112.917969 291.46875 111.054688 291.46875 C 109.195312 291.46875 107.683594 292.976562 107.683594 294.839844 Z M 107.683594 294.839844 "/></clipPath><clipPath id="34744a4eeb"><path d="M 115.648438 291.46875 L 122.390625 291.46875 L 122.390625 298.210938 L 115.648438 298.210938 Z M 115.648438 291.46875 "/></clipPath><clipPath id="03a7dcefa6"><path d="M 115.648438 294.839844 C 115.648438 296.703125 117.15625 298.210938 119.019531 298.210938 C 120.882812 298.210938 122.390625 296.703125 122.390625 294.839844 C 122.390625 292.976562 120.882812 291.46875 119.019531 291.46875 C 117.15625 291.46875 115.648438 292.976562 115.648438 294.839844 Z M 115.648438 294.839844 "/></clipPath><clipPath id="0a6ae9cfe4"><path d="M 115.648438 300.210938 L 122.390625 300.210938 L 122.390625 306.957031 L 115.648438 306.957031 Z M 115.648438 300.210938 "/></clipPath><clipPath id="fc76d09812"><path d="M 115.648438 303.582031 C 115.648438 305.445312 117.15625 306.957031 119.019531 306.957031 C 120.882812 306.957031 122.390625 305.445312 122.390625 303.582031 C 122.390625 301.722656 120.882812 300.210938 119.019531 300.210938 C 117.15625 300.210938 115.648438 301.722656 115.648438 303.582031 Z M 115.648438 303.582031 "/></clipPath><clipPath id="1b7a0f6cc1"><path d="M 123.625 291.46875 L 130.371094 291.46875 L 130.371094 298.210938 L 123.625 298.210938 Z M 123.625 291.46875 "/></clipPath><clipPath id="3904d77209"><path d="M 123.625 294.839844 C 123.625 296.703125 125.136719 298.210938 126.996094 298.210938 C 128.859375 298.210938 130.371094 296.703125 130.371094 294.839844 C 130.371094 292.976562 128.859375 291.46875 126.996094 291.46875 C 125.136719 291.46875 123.625 292.976562 123.625 294.839844 Z M 123.625 294.839844 "/></clipPath><clipPath id="92cf5f89fd"><path d="M 83.207031 273.730469 L 89.949219 273.730469 L 89.949219 280.476562 L 83.207031 280.476562 Z M 83.207031 273.730469 "/></clipPath><clipPath id="102743ea7c"><path d="M 83.207031 277.105469 C 83.207031 278.964844 84.714844 280.476562 86.578125 280.476562 C 88.4375 280.476562 89.949219 278.964844 89.949219 277.105469 C 89.949219 275.242188 88.4375 273.730469 86.578125 273.730469 C 84.714844 273.730469 83.207031 275.242188 83.207031 277.105469 Z M 83.207031 277.105469 "/></clipPath><clipPath id="133f45cdf7"><path d="M 83.207031 282.726562 L 89.949219 282.726562 L 89.949219 289.46875 L 83.207031 289.46875 Z M 83.207031 282.726562 "/></clipPath><clipPath id="004a99e6a1"><path d="M 83.207031 286.097656 C 83.207031 287.960938 84.714844 289.46875 86.578125 289.46875 C 88.4375 289.46875 89.949219 287.960938 89.949219 286.097656 C 89.949219 284.234375 88.4375 282.726562 86.578125 282.726562 C 84.714844 282.726562 83.207031 284.234375 83.207031 286.097656 Z M 83.207031 286.097656 "/></clipPath><clipPath id="45ae110435"><path d="M 129.945312 269.265625 L 136.6875 269.265625 L 136.6875 276.011719 L 129.945312 276.011719 Z M 129.945312 269.265625 "/></clipPath><clipPath id="c9593ccd00"><path d="M 129.945312 272.636719 C 129.945312 274.5 131.457031 276.011719 133.316406 276.011719 C 135.179688 276.011719 136.6875 274.5 136.6875 272.636719 C 136.6875 270.777344 135.179688 269.265625 133.316406 269.265625 C 131.457031 269.265625 129.945312 270.777344 129.945312 272.636719 Z M 129.945312 272.636719 "/></clipPath><clipPath id="8a58aead78"><path d="M 99.441406 300.210938 L 106.183594 300.210938 L 106.183594 306.957031 L 99.441406 306.957031 Z M 99.441406 300.210938 "/></clipPath><clipPath id="3c35553911"><path d="M 99.441406 303.582031 C 99.441406 305.445312 100.949219 306.957031 102.8125 306.957031 C 104.675781 306.957031 106.183594 305.445312 106.183594 303.582031 C 106.183594 301.722656 104.675781 300.210938 102.8125 300.210938 C 100.949219 300.210938 99.441406 301.722656 99.441406 303.582031 Z M 99.441406 303.582031 "/></clipPath><clipPath id="18c7fecd08"><path d="M 99.691406 291.46875 L 106.4375 291.46875 L 106.4375 298.210938 L 99.691406 298.210938 Z M 99.691406 291.46875 "/></clipPath><clipPath id="c67ecfcc4a"><path d="M 99.691406 294.839844 C 99.691406 296.703125 101.203125 298.210938 103.066406 298.210938 C 104.925781 298.210938 106.4375 296.703125 106.4375 294.839844 C 106.4375 292.976562 104.925781 291.46875 103.066406 291.46875 C 101.203125 291.46875 99.691406 292.976562 99.691406 294.839844 Z M 99.691406 294.839844 "/></clipPath><clipPath id="22ab047e67"><path d="M 91.449219 291.46875 L 98.191406 291.46875 L 98.191406 298.210938 L 91.449219 298.210938 Z M 91.449219 291.46875 "/></clipPath><clipPath id="416560e805"><path d="M 91.449219 294.839844 C 91.449219 296.703125 92.957031 298.210938 94.820312 298.210938 C 96.683594 298.210938 98.191406 296.703125 98.191406 294.839844 C 98.191406 292.976562 96.683594 291.46875 94.820312 291.46875 C 92.957031 291.46875 91.449219 292.976562 91.449219 294.839844 Z M 91.449219 294.839844 "/></clipPath><clipPath id="caf0d9efc7"><path d="M 99.691406 282.726562 L 106.4375 282.726562 L 106.4375 289.46875 L 99.691406 289.46875 Z M 99.691406 282.726562 "/></clipPath><clipPath id="1d9c753e5d"><path d="M 99.691406 286.097656 C 99.691406 287.960938 101.203125 289.46875 103.066406 289.46875 C 104.925781 289.46875 106.4375 287.960938 106.4375 286.097656 C 106.4375 284.234375 104.925781 282.726562 103.066406 282.726562 C 101.203125 282.726562 99.691406 284.234375 99.691406 286.097656 Z M 99.691406 286.097656 "/></clipPath><clipPath id="ea77bb58ac"><path d="M 91.449219 282.726562 L 98.191406 282.726562 L 98.191406 289.46875 L 91.449219 289.46875 Z M 91.449219 282.726562 "/></clipPath><clipPath id="ff477f6bb7"><path d="M 91.449219 286.097656 C 91.449219 287.960938 92.957031 289.46875 94.820312 289.46875 C 96.683594 289.46875 98.191406 287.960938 98.191406 286.097656 C 98.191406 284.234375 96.683594 282.726562 94.820312 282.726562 C 92.957031 282.726562 91.449219 284.234375 91.449219 286.097656 Z M 91.449219 286.097656 "/></clipPath><clipPath id="376b865bea"><path d="M 91.449219 273.730469 L 98.191406 273.730469 L 98.191406 280.476562 L 91.449219 280.476562 Z M 91.449219 273.730469 "/></clipPath><clipPath id="12439a68d3"><path d="M 91.449219 277.105469 C 91.449219 278.964844 92.957031 280.476562 94.820312 280.476562 C 96.683594 280.476562 98.191406 278.964844 98.191406 277.105469 C 98.191406 275.242188 96.683594 273.730469 94.820312 273.730469 C 92.957031 273.730469 91.449219 275.242188 91.449219 277.105469 Z M 91.449219 277.105469 "/></clipPath><clipPath id="2107b79cdd"><path d="M 91.449219 265.253906 L 98.191406 265.253906 L 98.191406 272 L 91.449219 272 Z M 91.449219 265.253906 "/></clipPath><clipPath id="3da37650c8"><path d="M 91.449219 268.625 C 91.449219 270.488281 92.957031 272 94.820312 272 C 96.683594 272 98.191406 270.488281 98.191406 268.625 C 98.191406 266.765625 96.683594 265.253906 94.820312 265.253906 C 92.957031 265.253906 91.449219 266.765625 91.449219 268.625 Z M 91.449219 268.625 "/></clipPath><clipPath id="11bdf0089e"><path d="M 99.566406 273.921875 L 106.308594 273.921875 L 106.308594 280.667969 L 99.566406 280.667969 Z M 99.566406 273.921875 "/></clipPath><clipPath id="ba29135dd6"><path d="M 99.566406 277.296875 C 99.566406 279.15625 101.074219 280.667969 102.9375 280.667969 C 104.800781 280.667969 106.308594 279.15625 106.308594 277.296875 C 106.308594 275.433594 104.800781 273.921875 102.9375 273.921875 C 101.074219 273.921875 99.566406 275.433594 99.566406 277.296875 Z M 99.566406 277.296875 "/></clipPath><clipPath id="3f3b0a09c8"><path d="M 116.816406 76.957031 L 142.859375 76.957031 L 142.859375 103 L 116.816406 103 Z M 116.816406 76.957031 "/></clipPath><clipPath id="c8a258f717"><path d="M 129.839844 76.957031 C 122.644531 76.957031 116.816406 82.785156 116.816406 89.980469 C 116.816406 97.171875 122.644531 103 129.839844 103 C 137.03125 103 142.859375 97.171875 142.859375 89.980469 C 142.859375 82.785156 137.03125 76.957031 129.839844 76.957031 Z M 129.839844 76.957031 "/></clipPath><clipPath id="8e84595243"><path d="M 116.816406 116 L 142.859375 116 L 142.859375 142.042969 L 116.816406 142.042969 Z M 116.816406 116 "/></clipPath><clipPath id="af440db9c0"><path d="M 129.839844 116 C 122.644531 116 116.816406 121.828125 116.816406 129.019531 C 116.816406 136.214844 122.644531 142.042969 129.839844 142.042969 C 137.03125 142.042969 142.859375 136.214844 142.859375 129.019531 C 142.859375 121.828125 137.03125 116 129.839844 116 Z M 129.839844 116 "/></clipPath><clipPath id="10e4c94e86"><path d="M 116.816406 155.042969 L 142.859375 155.042969 L 142.859375 181.085938 L 116.816406 181.085938 Z M 116.816406 155.042969 "/></clipPath><clipPath id="0941e99b34"><path d="M 129.839844 155.042969 C 122.644531 155.042969 116.816406 160.871094 116.816406 168.0625 C 116.816406 175.253906 122.644531 181.085938 129.839844 181.085938 C 137.03125 181.085938 142.859375 175.253906 142.859375 168.0625 C 142.859375 160.871094 137.03125 155.042969 129.839844 155.042969 Z M 129.839844 155.042969 "/></clipPath><clipPath id="14c20702dd"><path d="M 116.816406 194.082031 L 142.859375 194.082031 L 142.859375 220.128906 L 116.816406 220.128906 Z M 116.816406 194.082031 "/></clipPath><clipPath id="3336cb0e90"><path d="M 129.839844 194.082031 C 122.644531 194.082031 116.816406 199.914062 116.816406 207.105469 C 116.816406 214.296875 122.644531 220.128906 129.839844 220.128906 C 137.03125 220.128906 142.859375 214.296875 142.859375 207.105469 C 142.859375 199.914062 137.03125 194.082031 129.839844 194.082031 Z M 129.839844 194.082031 "/></clipPath><clipPath id="da692376d8"><path d="M 155.257812 116 L 181.300781 116 L 181.300781 142.042969 L 155.257812 142.042969 Z M 155.257812 116 "/></clipPath><clipPath id="ab9a4485ce"><path d="M 168.28125 116 C 161.085938 116 155.257812 121.828125 155.257812 129.019531 C 155.257812 136.214844 161.085938 142.042969 168.28125 142.042969 C 175.472656 142.042969 181.300781 136.214844 181.300781 129.019531 C 181.300781 121.828125 175.472656 116 168.28125 116 Z M 168.28125 116 "/></clipPath><clipPath id="daaa58f190"><path d="M 155.257812 155.042969 L 181.300781 155.042969 L 181.300781 181.085938 L 155.257812 181.085938 Z M 155.257812 155.042969 "/></clipPath><clipPath id="a6d907a3fa"><path d="M 168.28125 155.042969 C 161.085938 155.042969 155.257812 160.871094 155.257812 168.0625 C 155.257812 175.253906 161.085938 181.085938 168.28125 181.085938 C 175.472656 181.085938 181.300781 175.253906 181.300781 168.0625 C 181.300781 160.871094 175.472656 155.042969 168.28125 155.042969 Z M 168.28125 155.042969 "/></clipPath><clipPath id="afc710f0e4"><path d="M 155.257812 194.082031 L 181.300781 194.082031 L 181.300781 220.128906 L 155.257812 220.128906 Z M 155.257812 194.082031 "/></clipPath><clipPath id="2d929bedac"><path d="M 168.28125 194.082031 C 161.085938 194.082031 155.257812 199.914062 155.257812 207.105469 C 155.257812 214.296875 161.085938 220.128906 168.28125 220.128906 C 175.472656 220.128906 181.300781 214.296875 181.300781 207.105469 C 181.300781 199.914062 175.472656 194.082031 168.28125 194.082031 Z M 168.28125 194.082031 "/></clipPath><clipPath id="1cef5da57d"><path d="M 193.699219 155.042969 L 219.742188 155.042969 L 219.742188 181.085938 L 193.699219 181.085938 Z M 193.699219 155.042969 "/></clipPath><clipPath id="6dbc313564"><path d="M 206.71875 155.042969 C 199.527344 155.042969 193.699219 160.871094 193.699219 168.0625 C 193.699219 175.253906 199.527344 181.085938 206.71875 181.085938 C 213.914062 181.085938 219.742188 175.253906 219.742188 168.0625 C 219.742188 160.871094 213.914062 155.042969 206.71875 155.042969 Z M 206.71875 155.042969 "/></clipPath><clipPath id="b762a2c8b4"><path d="M 193.699219 194.082031 L 219.742188 194.082031 L 219.742188 220.128906 L 193.699219 220.128906 Z M 193.699219 194.082031 "/></clipPath><clipPath id="ad4fa06950"><path d="M 206.71875 194.082031 C 199.527344 194.082031 193.699219 199.914062 193.699219 207.105469 C 193.699219 214.296875 199.527344 220.128906 206.71875 220.128906 C 213.914062 220.128906 219.742188 214.296875 219.742188 207.105469 C 219.742188 199.914062 213.914062 194.082031 206.71875 194.082031 Z M 206.71875 194.082031 "/></clipPath><clipPath id="8354d2fb6b"><path d="M 231.074219 194.082031 L 257.121094 194.082031 L 257.121094 220.128906 L 231.074219 220.128906 Z M 231.074219 194.082031 "/></clipPath><clipPath id="e9a3ae55b8"><path d="M 244.097656 194.082031 C 236.90625 194.082031 231.074219 199.914062 231.074219 207.105469 C 231.074219 214.296875 236.90625 220.128906 244.097656 220.128906 C 251.289062 220.128906 257.121094 214.296875 257.121094 207.105469 C 257.121094 199.914062 251.289062 194.082031 244.097656 194.082031 Z M 244.097656 194.082031 "/></clipPath><clipPath id="68735409d5"><path d="M 232.132812 155.035156 L 258.179688 155.035156 L 258.179688 181.082031 L 232.132812 181.082031 Z M 232.132812 155.035156 "/></clipPath><clipPath id="87f699050b"><path d="M 245.15625 181.082031 C 252.347656 181.082031 258.179688 175.25 258.179688 168.058594 C 258.179688 160.867188 252.347656 155.035156 245.15625 155.035156 C 237.964844 155.035156 232.132812 160.867188 232.132812 168.058594 C 232.132812 175.25 237.964844 181.082031 245.15625 181.082031 Z M 245.15625 181.082031 "/></clipPath><clipPath id="bfc6a2d30b"><path d="M 232.132812 115.992188 L 258.179688 115.992188 L 258.179688 142.039062 L 232.132812 142.039062 Z M 232.132812 115.992188 "/></clipPath><clipPath id="ec33b885af"><path d="M 245.15625 142.039062 C 252.347656 142.039062 258.179688 136.207031 258.179688 129.015625 C 258.179688 121.824219 252.347656 115.992188 245.15625 115.992188 C 237.964844 115.992188 232.132812 121.824219 232.132812 129.015625 C 232.132812 136.207031 237.964844 142.039062 245.15625 142.039062 Z M 245.15625 142.039062 "/></clipPath><clipPath id="f4296f9694"><path d="M 232.132812 76.949219 L 258.179688 76.949219 L 258.179688 102.996094 L 232.132812 102.996094 Z M 232.132812 76.949219 "/></clipPath><clipPath id="884eea4103"><path d="M 245.15625 102.996094 C 252.347656 102.996094 258.179688 97.164062 258.179688 89.972656 C 258.179688 82.78125 252.347656 76.949219 245.15625 76.949219 C 237.964844 76.949219 232.132812 82.78125 232.132812 89.972656 C 232.132812 97.164062 237.964844 102.996094 245.15625 102.996094 Z M 245.15625 102.996094 "/></clipPath><clipPath id="3c04bbe19c"><path d="M 193.691406 115.992188 L 219.738281 115.992188 L 219.738281 142.039062 L 193.691406 142.039062 Z M 193.691406 115.992188 "/></clipPath><clipPath id="8fb41c3017"><path d="M 206.714844 142.039062 C 213.90625 142.039062 219.738281 136.207031 219.738281 129.015625 C 219.738281 121.824219 213.90625 115.992188 206.714844 115.992188 C 199.523438 115.992188 193.691406 121.824219 193.691406 129.015625 C 193.691406 136.207031 199.523438 142.039062 206.714844 142.039062 Z M 206.714844 142.039062 "/></clipPath><clipPath id="284051bac9"><path d="M 193.691406 76.949219 L 219.738281 76.949219 L 219.738281 102.996094 L 193.691406 102.996094 Z M 193.691406 76.949219 "/></clipPath><clipPath id="2bb3de04d3"><path d="M 206.714844 102.996094 C 213.90625 102.996094 219.738281 97.164062 219.738281 89.972656 C 219.738281 82.78125 213.90625 76.949219 206.714844 76.949219 C 199.523438 76.949219 193.691406 82.78125 193.691406 89.972656 C 193.691406 97.164062 199.523438 102.996094 206.714844 102.996094 Z M 206.714844 102.996094 "/></clipPath><clipPath id="c25c1bf059"><path d="M 155.25 76.949219 L 181.296875 76.949219 L 181.296875 102.996094 L 155.25 102.996094 Z M 155.25 76.949219 "/></clipPath><clipPath id="4e9a212d97"><path d="M 168.273438 102.996094 C 175.464844 102.996094 181.296875 97.164062 181.296875 89.972656 C 181.296875 82.78125 175.464844 76.949219 168.273438 76.949219 C 161.082031 76.949219 155.25 82.78125 155.25 89.972656 C 155.25 97.164062 161.082031 102.996094 168.273438 102.996094 Z M 168.273438 102.996094 "/></clipPath></defs><g id="23da87b07c"><g style="fill:#737373;fill-opacity:1;"><g transform="translate(138.708262, 307.570497)"><path style="stroke:none" d="M 18.796875 0.828125 C 16.535156 0.828125 14.429688 0.40625 12.484375 -0.4375 C 10.535156 -1.28125 8.832031 -2.453125 7.375 -3.953125 C 5.914062 -5.453125 4.773438 -7.191406 3.953125 -9.171875 C 3.128906 -11.160156 2.71875 -13.304688 2.71875 -15.609375 C 2.71875 -17.921875 3.125 -20.070312 3.9375 -22.0625 C 4.75 -24.0625 5.882812 -25.8125 7.34375 -27.3125 C 8.800781 -28.8125 10.507812 -29.984375 12.46875 -30.828125 C 14.425781 -31.671875 16.535156 -32.09375 18.796875 -32.09375 C 21.054688 -32.09375 23.160156 -31.671875 25.109375 -30.828125 C 27.066406 -29.984375 28.773438 -28.8125 30.234375 -27.3125 C 31.703125 -25.8125 32.847656 -24.0625 33.671875 -22.0625 C 34.492188 -20.070312 34.90625 -17.921875 34.90625 -15.609375 C 34.90625 -13.328125 34.492188 -11.1875 33.671875 -9.1875 C 32.847656 -7.195312 31.703125 -5.453125 30.234375 -3.953125 C 28.773438 -2.453125 27.066406 -1.28125 25.109375 -0.4375 C 23.160156 0.40625 21.054688 0.828125 18.796875 0.828125 Z M 18.828125 -2.5625 C 20.578125 -2.5625 22.207031 -2.890625 23.71875 -3.546875 C 25.226562 -4.203125 26.550781 -5.117188 27.6875 -6.296875 C 28.832031 -7.484375 29.722656 -8.867188 30.359375 -10.453125 C 31.003906 -12.046875 31.328125 -13.773438 31.328125 -15.640625 C 31.328125 -17.492188 31.003906 -19.210938 30.359375 -20.796875 C 29.722656 -22.378906 28.832031 -23.757812 27.6875 -24.9375 C 26.550781 -26.125 25.226562 -27.046875 23.71875 -27.703125 C 22.207031 -28.367188 20.578125 -28.703125 18.828125 -28.703125 C 17.078125 -28.703125 15.445312 -28.367188 13.9375 -27.703125 C 12.425781 -27.046875 11.09375 -26.125 9.9375 -24.9375 C 8.78125 -23.757812 7.878906 -22.378906 7.234375 -20.796875 C 6.585938 -19.210938 6.265625 -17.492188 6.265625 -15.640625 C 6.265625 -13.773438 6.585938 -12.046875 7.234375 -10.453125 C 7.878906 -8.867188 8.78125 -7.484375 9.9375 -6.296875 C 11.09375 -5.117188 12.425781 -4.203125 13.9375 -3.546875 C 15.445312 -2.890625 17.078125 -2.5625 18.828125 -2.5625 Z M 18.828125 -2.5625 "/></g></g><g style="fill:#737373;fill-opacity:1;"><g transform="translate(176.325378, 307.570497)"><path style="stroke:none" d="M 18.453125 0.828125 C 15.773438 0.828125 13.429688 0.460938 11.421875 -0.265625 C 9.421875 -0.992188 7.753906 -1.960938 6.421875 -3.171875 C 5.097656 -4.390625 4.109375 -5.75 3.453125 -7.25 C 2.796875 -8.75 2.46875 -10.269531 2.46875 -11.8125 L 6.140625 -11.8125 C 6.140625 -10.625 6.414062 -9.460938 6.96875 -8.328125 C 7.53125 -7.203125 8.335938 -6.191406 9.390625 -5.296875 C 10.453125 -4.398438 11.742188 -3.6875 13.265625 -3.15625 C 14.785156 -2.632812 16.515625 -2.375 18.453125 -2.375 C 22.378906 -2.375 25.453125 -3.132812 27.671875 -4.65625 C 29.898438 -6.175781 31.015625 -8.441406 31.015625 -11.453125 C 31.015625 -12.910156 30.695312 -14.140625 30.0625 -15.140625 C 29.4375 -16.140625 28.566406 -16.96875 27.453125 -17.625 C 26.347656 -18.28125 25.070312 -18.800781 23.625 -19.1875 C 22.175781 -19.582031 20.628906 -19.882812 18.984375 -20.09375 C 17.578125 -20.28125 16.148438 -20.53125 14.703125 -20.84375 C 13.253906 -21.164062 11.863281 -21.59375 10.53125 -22.125 C 9.207031 -22.65625 8.019531 -23.332031 6.96875 -24.15625 C 5.925781 -24.988281 5.097656 -26 4.484375 -27.1875 C 3.878906 -28.382812 3.578125 -29.804688 3.578125 -31.453125 C 3.578125 -32.910156 3.832031 -34.316406 4.34375 -35.671875 C 4.863281 -37.035156 5.695312 -38.253906 6.84375 -39.328125 C 8 -40.410156 9.519531 -41.269531 11.40625 -41.90625 C 13.300781 -42.539062 15.617188 -42.859375 18.359375 -42.859375 C 21.484375 -42.859375 24.125 -42.363281 26.28125 -41.375 C 28.445312 -40.394531 30.085938 -39.046875 31.203125 -37.328125 C 32.328125 -35.609375 32.890625 -33.648438 32.890625 -31.453125 L 29.25 -31.453125 C 29.25 -33.097656 28.8125 -34.523438 27.9375 -35.734375 C 27.070312 -36.953125 25.816406 -37.894531 24.171875 -38.5625 C 22.535156 -39.226562 20.585938 -39.5625 18.328125 -39.5625 C 16.191406 -39.5625 14.40625 -39.332031 12.96875 -38.875 C 11.539062 -38.425781 10.40625 -37.816406 9.5625 -37.046875 C 8.71875 -36.273438 8.113281 -35.40625 7.75 -34.4375 C 7.394531 -33.46875 7.21875 -32.472656 7.21875 -31.453125 C 7.21875 -29.742188 7.734375 -28.34375 8.765625 -27.25 C 9.796875 -26.15625 11.265625 -25.296875 13.171875 -24.671875 C 15.085938 -24.046875 17.363281 -23.578125 20 -23.265625 C 21.269531 -23.097656 22.585938 -22.859375 23.953125 -22.546875 C 25.328125 -22.242188 26.648438 -21.816406 27.921875 -21.265625 C 29.203125 -20.722656 30.347656 -20.023438 31.359375 -19.171875 C 32.378906 -18.328125 33.191406 -17.269531 33.796875 -16 C 34.410156 -14.738281 34.71875 -13.222656 34.71875 -11.453125 C 34.71875 -8.921875 34.078125 -6.734375 32.796875 -4.890625 C 31.523438 -3.046875 29.675781 -1.628906 27.25 -0.640625 C 24.820312 0.335938 21.890625 0.828125 18.453125 0.828125 Z M 18.453125 0.828125 "/></g></g><g style="fill:#737373;fill-opacity:1;"><g transform="translate(213.325314, 307.570497)"><path style="stroke:none" d="M 18.796875 0.828125 C 16.535156 0.828125 14.429688 0.40625 12.484375 -0.4375 C 10.535156 -1.28125 8.832031 -2.453125 7.375 -3.953125 C 5.914062 -5.453125 4.773438 -7.191406 3.953125 -9.171875 C 3.128906 -11.160156 2.71875 -13.304688 2.71875 -15.609375 C 2.71875 -17.921875 3.125 -20.070312 3.9375 -22.0625 C 4.75 -24.0625 5.882812 -25.8125 7.34375 -27.3125 C 8.800781 -28.8125 10.507812 -29.984375 12.46875 -30.828125 C 14.425781 -31.671875 16.535156 -32.09375 18.796875 -32.09375 C 21.054688 -32.09375 23.160156 -31.671875 25.109375 -30.828125 C 27.066406 -29.984375 28.773438 -28.8125 30.234375 -27.3125 C 31.703125 -25.8125 32.847656 -24.0625 33.671875 -22.0625 C 34.492188 -20.070312 34.90625 -17.921875 34.90625 -15.609375 C 34.90625 -13.328125 34.492188 -11.1875 33.671875 -9.1875 C 32.847656 -7.195312 31.703125 -5.453125 30.234375 -3.953125 C 28.773438 -2.453125 27.066406 -1.28125 25.109375 -0.4375 C 23.160156 0.40625 21.054688 0.828125 18.796875 0.828125 Z M 18.828125 -2.5625 C 20.578125 -2.5625 22.207031 -2.890625 23.71875 -3.546875 C 25.226562 -4.203125 26.550781 -5.117188 27.6875 -6.296875 C 28.832031 -7.484375 29.722656 -8.867188 30.359375 -10.453125 C 31.003906 -12.046875 31.328125 -13.773438 31.328125 -15.640625 C 31.328125 -17.492188 31.003906 -19.210938 30.359375 -20.796875 C 29.722656 -22.378906 28.832031 -23.757812 27.6875 -24.9375 C 26.550781 -26.125 25.226562 -27.046875 23.71875 -27.703125 C 22.207031 -28.367188 20.578125 -28.703125 18.828125 -28.703125 C 17.078125 -28.703125 15.445312 -28.367188 13.9375 -27.703125 C 12.425781 -27.046875 11.09375 -26.125 9.9375 -24.9375 C 8.78125 -23.757812 7.878906 -22.378906 7.234375 -20.796875 C 6.585938 -19.210938 6.265625 -17.492188 6.265625 -15.640625 C 6.265625 -13.773438 6.585938 -12.046875 7.234375 -10.453125 C 7.878906 -8.867188 8.78125 -7.484375 9.9375 -6.296875 C 11.09375 -5.117188 12.425781 -4.203125 13.9375 -3.546875 C 15.445312 -2.890625 17.078125 -2.5625 18.828125 -2.5625 Z M 18.828125 -2.5625 "/></g></g><g style="fill:#737373;fill-opacity:1;"><g transform="translate(250.94243, 307.570497)"><path style="stroke:none" d="M 9.265625 0 L 5.671875 0 L 5.671875 -31.265625 L 9.140625 -31.265625 L 9.140625 -23.140625 C 9.941406 -25.691406 11.257812 -27.679688 13.09375 -29.109375 C 14.9375 -30.546875 17.082031 -31.265625 19.53125 -31.265625 L 22.3125 -31.265625 L 22.3125 -28.046875 L 19.6875 -28.046875 C 17.75 -28.046875 15.992188 -27.519531 14.421875 -26.46875 C 12.847656 -25.425781 11.59375 -23.921875 10.65625 -21.953125 C 9.726562 -19.992188 9.265625 -17.632812 9.265625 -14.875 Z M 9.265625 0 "/></g></g><g style="fill:#737373;fill-opacity:1;"><g transform="translate(275.382809, 307.570497)"><path style="stroke:none" d="M 22.375 0 L 17.125 0 C 15.914062 0 14.75 -0.15625 13.625 -0.46875 C 12.5 -0.789062 11.488281 -1.363281 10.59375 -2.1875 C 9.707031 -3.007812 9 -4.15625 8.46875 -5.625 C 7.945312 -7.101562 7.6875 -8.992188 7.6875 -11.296875 L 7.6875 -28.046875 L 0.3125 -28.046875 L 0.3125 -31.265625 L 7.6875 -31.265625 L 7.6875 -40.703125 L 11.234375 -40.703125 L 11.234375 -31.265625 L 22.375 -31.265625 L 22.375 -28.046875 L 11.234375 -28.046875 L 11.234375 -11.171875 C 11.234375 -9.421875 11.421875 -8.007812 11.796875 -6.9375 C 12.179688 -5.875 12.6875 -5.0625 13.3125 -4.5 C 13.9375 -3.945312 14.632812 -3.578125 15.40625 -3.390625 C 16.1875 -3.203125 16.96875 -3.109375 17.75 -3.109375 L 22.375 -3.109375 Z M 22.375 0 "/></g></g><g clip-rule="nonzero" clip-path="url(#e0e5ef10aa)"><g clip-rule="nonzero" clip-path="url(#c7b7fd6328)"><g clip-rule="nonzero" clip-path="url(#9dcc6fbac2)"><path style=" stroke:none;fill-rule:nonzero;fill:#737373;fill-opacity:1;" d="M 83.265625 273.6875 C 83.980469 271.21875 84.992188 268.925781 86.289062 266.816406 C 87.585938 264.707031 89.113281 262.824219 90.867188 261.167969 C 92.621094 259.515625 94.550781 258.109375 96.652344 256.953125 C 98.753906 255.800781 100.984375 254.929688 103.339844 254.34375 C 105.695312 253.753906 108.101562 253.476562 110.5625 253.507812 C 113.023438 253.542969 115.496094 253.910156 117.988281 254.617188 C 120.457031 255.335938 122.75 256.34375 124.859375 257.640625 C 126.96875 258.941406 128.851562 260.464844 130.507812 262.21875 C 132.160156 263.972656 133.566406 265.902344 134.722656 268.003906 C 135.875 270.109375 136.746094 272.335938 137.332031 274.691406 C 137.921875 277.046875 138.199219 279.453125 138.167969 281.914062 C 138.132812 284.375 137.765625 286.851562 137.058594 289.34375 C 136.339844 291.8125 135.332031 294.101562 134.035156 296.210938 C 132.734375 298.324219 131.210938 300.207031 129.457031 301.859375 C 127.703125 303.515625 125.773438 304.917969 123.671875 306.074219 C 121.566406 307.230469 119.339844 308.101562 116.984375 308.6875 C 114.628906 309.273438 112.230469 309.554688 109.789062 309.527344 C 107.34375 309.5 104.859375 309.128906 102.332031 308.414062 C 99.863281 307.695312 97.574219 306.683594 95.464844 305.386719 C 93.351562 304.089844 91.46875 302.5625 89.816406 300.808594 C 88.160156 299.054688 86.757812 297.125 85.601562 295.023438 C 84.445312 292.921875 83.574219 290.691406 82.988281 288.335938 C 82.402344 285.980469 82.121094 283.582031 82.148438 281.140625 C 82.175781 278.699219 82.546875 276.214844 83.265625 273.6875 Z M 133.695312 288.363281 C 134.324219 286.210938 134.648438 284.054688 134.667969 281.894531 C 134.6875 279.734375 134.445312 277.632812 133.941406 275.585938 C 133.433594 273.539062 132.664062 271.585938 131.628906 269.726562 C 130.59375 267.867188 129.363281 266.179688 127.945312 264.664062 C 126.523438 263.148438 124.882812 261.808594 123.019531 260.640625 C 121.15625 259.46875 119.152344 258.582031 117.011719 257.980469 C 114.855469 257.351562 112.699219 257.027344 110.539062 257.007812 C 108.382812 256.988281 106.277344 257.230469 104.230469 257.734375 C 102.183594 258.242188 100.230469 259.011719 98.375 260.046875 C 96.515625 261.082031 94.828125 262.3125 93.3125 263.730469 C 91.796875 265.152344 90.453125 266.792969 89.285156 268.65625 C 88.117188 270.519531 87.230469 272.523438 86.625 274.664062 C 86 276.820312 85.675781 278.976562 85.65625 281.136719 C 85.632812 283.292969 85.875 285.398438 86.382812 287.445312 C 86.890625 289.492188 87.660156 291.445312 88.695312 293.300781 C 89.730469 295.160156 90.957031 296.847656 92.378906 298.363281 C 93.800781 299.878906 95.441406 301.222656 97.304688 302.390625 C 99.167969 303.558594 101.171875 304.445312 103.3125 305.050781 C 105.464844 305.675781 107.621094 306 109.78125 306.019531 C 111.941406 306.042969 114.042969 305.800781 116.089844 305.292969 C 118.136719 304.785156 120.089844 304.015625 121.949219 302.980469 C 123.808594 301.945312 125.496094 300.71875 127.011719 299.296875 C 128.527344 297.875 129.867188 296.234375 131.035156 294.371094 C 132.207031 292.507812 133.09375 290.503906 133.695312 288.363281 Z M 133.695312 288.363281 "/></g></g></g><g clip-rule="nonzero" clip-path="url(#75ec374489)"><g clip-rule="nonzero" clip-path="url(#27db7d031d)"><path style=" stroke:none;fill-rule:nonzero;fill:#737373;fill-opacity:1;" d="M 131.964844 289.46875 L 131.964844 282.726562 L 138.707031 282.726562 L 138.707031 289.46875 Z M 131.964844 289.46875 "/></g></g><g clip-rule="nonzero" clip-path="url(#08df5da9b8)"><g clip-rule="nonzero" clip-path="url(#a2c945f214)"><path style=" stroke:none;fill-rule:nonzero;fill:#737373;fill-opacity:1;" d="M 107.683594 307.242188 L 107.683594 300.5 L 114.425781 300.5 L 114.425781 307.242188 Z M 107.683594 307.242188 "/></g></g><g clip-rule="nonzero" clip-path="url(#8498a991af)"><g clip-rule="nonzero" clip-path="url(#53cb54486e)"><path style=" stroke:none;fill-rule:nonzero;fill:#737373;fill-opacity:1;" d="M 115.648438 289.46875 L 115.648438 282.726562 L 122.390625 282.726562 L 122.390625 289.46875 Z M 115.648438 289.46875 "/></g></g><g clip-rule="nonzero" clip-path="url(#c2ae47d637)"><g clip-rule="nonzero" clip-path="url(#0070cc9090)"><path style=" stroke:none;fill-rule:nonzero;fill:#737373;fill-opacity:1;" d="M 123.625 289.46875 L 123.625 282.726562 L 130.371094 282.726562 L 130.371094 289.46875 Z M 123.625 289.46875 "/></g></g><g clip-rule="nonzero" clip-path="url(#d4d1db14df)"><g clip-rule="nonzero" clip-path="url(#9bf6c71a09)"><g clip-rule="nonzero" clip-path="url(#c4743c5a2d)"><path style=" stroke:none;fill-rule:nonzero;fill:#737373;fill-opacity:1;" d="M 97.707031 257.941406 C 100.039062 256.855469 102.425781 256.105469 104.867188 255.691406 C 107.3125 255.277344 109.734375 255.1875 112.132812 255.414062 C 114.535156 255.644531 116.859375 256.171875 119.113281 256.992188 C 121.367188 257.8125 123.492188 258.917969 125.484375 260.300781 C 127.480469 261.6875 129.273438 263.316406 130.871094 265.1875 C 132.464844 267.058594 133.820312 269.164062 134.929688 271.503906 C 136.015625 273.835938 136.765625 276.222656 137.179688 278.667969 C 137.59375 281.109375 137.683594 283.53125 137.453125 285.933594 C 137.226562 288.332031 136.699219 290.660156 135.878906 292.914062 C 135.054688 295.167969 133.953125 297.292969 132.566406 299.285156 C 131.183594 301.277344 129.554688 303.074219 127.683594 304.667969 C 125.808594 306.265625 123.703125 307.617188 121.363281 308.730469 C 119.035156 309.8125 116.644531 310.5625 114.203125 310.976562 C 111.761719 311.390625 109.339844 311.484375 106.9375 311.253906 C 104.539062 311.023438 102.210938 310.5 99.957031 309.675781 C 97.703125 308.855469 95.578125 307.753906 93.585938 306.367188 C 91.59375 304.980469 89.800781 303.363281 88.214844 301.507812 C 86.625 299.652344 85.265625 297.535156 84.140625 295.164062 C 83.054688 292.832031 82.304688 290.445312 81.890625 288.003906 C 81.480469 285.558594 81.386719 283.136719 81.617188 280.738281 C 81.847656 278.335938 82.371094 276.007812 83.191406 273.753906 C 84.015625 271.5 85.117188 269.378906 86.503906 267.386719 C 87.886719 265.390625 89.507812 263.601562 91.363281 262.011719 C 93.21875 260.421875 95.332031 259.066406 97.707031 257.941406 Z M 119.886719 305.554688 C 121.917969 304.605469 123.753906 303.429688 125.394531 302.023438 C 127.03125 300.617188 128.453125 299.046875 129.660156 297.320312 C 130.867188 295.589844 131.828125 293.722656 132.546875 291.71875 C 133.261719 289.714844 133.722656 287.679688 133.925781 285.613281 C 134.128906 283.546875 134.058594 281.429688 133.710938 279.257812 C 133.363281 277.085938 132.710938 274.992188 131.753906 272.984375 C 130.808594 270.949219 129.628906 269.113281 128.222656 267.476562 C 126.816406 265.839844 125.25 264.417969 123.519531 263.210938 C 121.789062 262.003906 119.925781 261.042969 117.921875 260.324219 C 115.917969 259.609375 113.882812 259.148438 111.816406 258.945312 C 109.75 258.738281 107.628906 258.8125 105.457031 259.160156 C 103.285156 259.507812 101.195312 260.160156 99.183594 261.117188 C 97.152344 262.0625 95.316406 263.238281 93.675781 264.648438 C 92.039062 266.054688 90.617188 267.621094 89.410156 269.351562 C 88.203125 271.078125 87.242188 272.945312 86.527344 274.949219 C 85.808594 276.953125 85.347656 278.988281 85.144531 281.054688 C 84.941406 283.121094 85.011719 285.242188 85.359375 287.414062 C 85.707031 289.585938 86.359375 291.675781 87.316406 293.683594 C 88.261719 295.71875 89.441406 297.554688 90.847656 299.191406 C 92.253906 300.832031 93.820312 302.253906 95.550781 303.460938 C 97.28125 304.667969 99.148438 305.628906 101.148438 306.34375 C 103.152344 307.0625 105.1875 307.519531 107.257812 307.726562 C 109.324219 307.929688 111.441406 307.859375 113.613281 307.511719 C 115.785156 307.164062 117.875 306.511719 119.886719 305.554688 Z M 119.886719 305.554688 "/></g></g></g><g clip-rule="nonzero" clip-path="url(#69093436d2)"><g clip-rule="nonzero" clip-path="url(#f07b4aa45c)"><path style=" stroke:none;fill-rule:nonzero;fill:#737373;fill-opacity:1;" d="M 107.683594 289.46875 L 107.683594 282.726562 L 114.425781 282.726562 L 114.425781 289.46875 Z M 107.683594 289.46875 "/></g></g><g clip-rule="nonzero" clip-path="url(#402fdcdce0)"><g clip-rule="nonzero" clip-path="url(#450f97c370)"><path style=" stroke:none;fill-rule:nonzero;fill:#737373;fill-opacity:1;" d="M 107.683594 298.210938 L 107.683594 291.46875 L 114.425781 291.46875 L 114.425781 298.210938 Z M 107.683594 298.210938 "/></g></g><g clip-rule="nonzero" clip-path="url(#34744a4eeb)"><g clip-rule="nonzero" clip-path="url(#03a7dcefa6)"><path style=" stroke:none;fill-rule:nonzero;fill:#b4b4b4;fill-opacity:1;" d="M 115.648438 298.210938 L 115.648438 291.46875 L 122.390625 291.46875 L 122.390625 298.210938 Z M 115.648438 298.210938 "/></g></g><g clip-rule="nonzero" clip-path="url(#0a6ae9cfe4)"><g clip-rule="nonzero" clip-path="url(#fc76d09812)"><path style=" stroke:none;fill-rule:nonzero;fill:#b4b4b4;fill-opacity:1;" d="M 115.648438 306.957031 L 115.648438 300.210938 L 122.390625 300.210938 L 122.390625 306.957031 Z M 115.648438 306.957031 "/></g></g><g clip-rule="nonzero" clip-path="url(#1b7a0f6cc1)"><g clip-rule="nonzero" clip-path="url(#3904d77209)"><path style=" stroke:none;fill-rule:nonzero;fill:#b4b4b4;fill-opacity:1;" d="M 123.625 298.210938 L 123.625 291.46875 L 130.371094 291.46875 L 130.371094 298.210938 Z M 123.625 298.210938 "/></g></g><g clip-rule="nonzero" clip-path="url(#92cf5f89fd)"><g clip-rule="nonzero" clip-path="url(#102743ea7c)"><path style=" stroke:none;fill-rule:nonzero;fill:#b4b4b4;fill-opacity:1;" d="M 83.207031 280.476562 L 83.207031 273.730469 L 89.949219 273.730469 L 89.949219 280.476562 Z M 83.207031 280.476562 "/></g></g><g clip-rule="nonzero" clip-path="url(#133f45cdf7)"><g clip-rule="nonzero" clip-path="url(#004a99e6a1)"><path style=" stroke:none;fill-rule:nonzero;fill:#d9d9d9;fill-opacity:1;" d="M 83.207031 289.46875 L 83.207031 282.726562 L 89.949219 282.726562 L 89.949219 289.46875 Z M 83.207031 289.46875 "/></g></g><g clip-rule="nonzero" clip-path="url(#45ae110435)"><g clip-rule="nonzero" clip-path="url(#c9593ccd00)"><path style=" stroke:none;fill-rule:nonzero;fill:#737373;fill-opacity:1;" d="M 129.945312 276.011719 L 129.945312 269.265625 L 136.6875 269.265625 L 136.6875 276.011719 Z M 129.945312 276.011719 "/></g></g><g clip-rule="nonzero" clip-path="url(#8a58aead78)"><g clip-rule="nonzero" clip-path="url(#3c35553911)"><path style=" stroke:none;fill-rule:nonzero;fill:#b4b4b4;fill-opacity:1;" d="M 99.441406 306.957031 L 99.441406 300.210938 L 106.183594 300.210938 L 106.183594 306.957031 Z M 99.441406 306.957031 "/></g></g><g clip-rule="nonzero" clip-path="url(#18c7fecd08)"><g clip-rule="nonzero" clip-path="url(#c67ecfcc4a)"><path style=" stroke:none;fill-rule:nonzero;fill:#b4b4b4;fill-opacity:1;" d="M 99.691406 298.210938 L 99.691406 291.46875 L 106.4375 291.46875 L 106.4375 298.210938 Z M 99.691406 298.210938 "/></g></g><g clip-rule="nonzero" clip-path="url(#22ab047e67)"><g clip-rule="nonzero" clip-path="url(#416560e805)"><path style=" stroke:none;fill-rule:nonzero;fill:#b4b4b4;fill-opacity:1;" d="M 91.449219 298.210938 L 91.449219 291.46875 L 98.191406 291.46875 L 98.191406 298.210938 Z M 91.449219 298.210938 "/></g></g><g clip-rule="nonzero" clip-path="url(#caf0d9efc7)"><g clip-rule="nonzero" clip-path="url(#1d9c753e5d)"><path style=" stroke:none;fill-rule:nonzero;fill:#d9d9d9;fill-opacity:1;" d="M 99.691406 289.46875 L 99.691406 282.726562 L 106.4375 282.726562 L 106.4375 289.46875 Z M 99.691406 289.46875 "/></g></g><g clip-rule="nonzero" clip-path="url(#ea77bb58ac)"><g clip-rule="nonzero" clip-path="url(#ff477f6bb7)"><path style=" stroke:none;fill-rule:nonzero;fill:#d9d9d9;fill-opacity:1;" d="M 91.449219 289.46875 L 91.449219 282.726562 L 98.191406 282.726562 L 98.191406 289.46875 Z M 91.449219 289.46875 "/></g></g><g clip-rule="nonzero" clip-path="url(#376b865bea)"><g clip-rule="nonzero" clip-path="url(#12439a68d3)"><path style=" stroke:none;fill-rule:nonzero;fill:#b4b4b4;fill-opacity:1;" d="M 91.449219 280.476562 L 91.449219 273.730469 L 98.191406 273.730469 L 98.191406 280.476562 Z M 91.449219 280.476562 "/></g></g><g clip-rule="nonzero" clip-path="url(#2107b79cdd)"><g clip-rule="nonzero" clip-path="url(#3da37650c8)"><path style=" stroke:none;fill-rule:nonzero;fill:#b4b4b4;fill-opacity:1;" d="M 91.449219 272 L 91.449219 265.253906 L 98.191406 265.253906 L 98.191406 272 Z M 91.449219 272 "/></g></g><g clip-rule="nonzero" clip-path="url(#11bdf0089e)"><g clip-rule="nonzero" clip-path="url(#ba29135dd6)"><path style=" stroke:none;fill-rule:nonzero;fill:#b4b4b4;fill-opacity:1;" d="M 99.566406 280.667969 L 99.566406 273.921875 L 106.308594 273.921875 L 106.308594 280.667969 Z M 99.566406 280.667969 "/></g></g><g clip-rule="nonzero" clip-path="url(#3f3b0a09c8)"><g clip-rule="nonzero" clip-path="url(#c8a258f717)"><path style=" stroke:none;fill-rule:nonzero;fill:#d9d9d9;fill-opacity:1;" d="M 116.816406 76.957031 L 142.859375 76.957031 L 142.859375 103 L 116.816406 103 Z M 116.816406 76.957031 "/></g></g><g clip-rule="nonzero" clip-path="url(#8e84595243)"><g clip-rule="nonzero" clip-path="url(#af440db9c0)"><path style=" stroke:none;fill-rule:nonzero;fill:#b4b4b4;fill-opacity:1;" d="M 116.816406 116 L 142.859375 116 L 142.859375 142.042969 L 116.816406 142.042969 Z M 116.816406 116 "/></g></g><g clip-rule="nonzero" clip-path="url(#10e4c94e86)"><g clip-rule="nonzero" clip-path="url(#0941e99b34)"><path style=" stroke:none;fill-rule:nonzero;fill:#737373;fill-opacity:1;" d="M 116.816406 155.042969 L 142.859375 155.042969 L 142.859375 181.085938 L 116.816406 181.085938 Z M 116.816406 155.042969 "/></g></g><g clip-rule="nonzero" clip-path="url(#14c20702dd)"><g clip-rule="nonzero" clip-path="url(#3336cb0e90)"><path style=" stroke:none;fill-rule:nonzero;fill:#545454;fill-opacity:1;" d="M 116.816406 194.082031 L 142.859375 194.082031 L 142.859375 220.128906 L 116.816406 220.128906 Z M 116.816406 194.082031 "/></g></g><g clip-rule="nonzero" clip-path="url(#da692376d8)"><g clip-rule="nonzero" clip-path="url(#ab9a4485ce)"><path style=" stroke:none;fill-rule:nonzero;fill:#d9d9d9;fill-opacity:1;" d="M 155.257812 116 L 181.300781 116 L 181.300781 142.042969 L 155.257812 142.042969 Z M 155.257812 116 "/></g></g><g clip-rule="nonzero" clip-path="url(#daaa58f190)"><g clip-rule="nonzero" clip-path="url(#a6d907a3fa)"><path style=" stroke:none;fill-rule:nonzero;fill:#b4b4b4;fill-opacity:1;" d="M 155.257812 155.042969 L 181.300781 155.042969 L 181.300781 181.085938 L 155.257812 181.085938 Z M 155.257812 155.042969 "/></g></g><g clip-rule="nonzero" clip-path="url(#afc710f0e4)"><g clip-rule="nonzero" clip-path="url(#2d929bedac)"><path style=" stroke:none;fill-rule:nonzero;fill:#737373;fill-opacity:1;" d="M 155.257812 194.082031 L 181.300781 194.082031 L 181.300781 220.128906 L 155.257812 220.128906 Z M 155.257812 194.082031 "/></g></g><g clip-rule="nonzero" clip-path="url(#1cef5da57d)"><g clip-rule="nonzero" clip-path="url(#6dbc313564)"><path style=" stroke:none;fill-rule:nonzero;fill:#d9d9d9;fill-opacity:1;" d="M 193.699219 155.042969 L 219.742188 155.042969 L 219.742188 181.085938 L 193.699219 181.085938 Z M 193.699219 155.042969 "/></g></g><g clip-rule="nonzero" clip-path="url(#b762a2c8b4)"><g clip-rule="nonzero" clip-path="url(#ad4fa06950)"><path style=" stroke:none;fill-rule:nonzero;fill:#b4b4b4;fill-opacity:1;" d="M 193.699219 194.082031 L 219.742188 194.082031 L 219.742188 220.128906 L 193.699219 220.128906 Z M 193.699219 194.082031 "/></g></g><g clip-rule="nonzero" clip-path="url(#8354d2fb6b)"><g clip-rule="nonzero" clip-path="url(#e9a3ae55b8)"><path style=" stroke:none;fill-rule:nonzero;fill:#d9d9d9;fill-opacity:1;" d="M 231.074219 194.082031 L 257.121094 194.082031 L 257.121094 220.128906 L 231.074219 220.128906 Z M 231.074219 194.082031 "/></g></g><g clip-rule="nonzero" clip-path="url(#68735409d5)"><g clip-rule="nonzero" clip-path="url(#87f699050b)"><path style=" stroke:none;fill-rule:nonzero;fill:#b4b4b4;fill-opacity:1;" d="M 258.179688 181.082031 L 232.132812 181.082031 L 232.132812 155.035156 L 258.179688 155.035156 Z M 258.179688 181.082031 "/></g></g><g clip-rule="nonzero" clip-path="url(#bfc6a2d30b)"><g clip-rule="nonzero" clip-path="url(#ec33b885af)"><path style=" stroke:none;fill-rule:nonzero;fill:#737373;fill-opacity:1;" d="M 258.179688 142.039062 L 232.132812 142.039062 L 232.132812 115.992188 L 258.179688 115.992188 Z M 258.179688 142.039062 "/></g></g><g clip-rule="nonzero" clip-path="url(#f4296f9694)"><g clip-rule="nonzero" clip-path="url(#884eea4103)"><path style=" stroke:none;fill-rule:nonzero;fill:#545454;fill-opacity:1;" d="M 258.179688 102.996094 L 232.132812 102.996094 L 232.132812 76.949219 L 258.179688 76.949219 Z M 258.179688 102.996094 "/></g></g><g clip-rule="nonzero" clip-path="url(#3c04bbe19c)"><g clip-rule="nonzero" clip-path="url(#8fb41c3017)"><path style=" stroke:none;fill-rule:nonzero;fill:#b4b4b4;fill-opacity:1;" d="M 219.738281 142.039062 L 193.691406 142.039062 L 193.691406 115.992188 L 219.738281 115.992188 Z M 219.738281 142.039062 "/></g></g><g clip-rule="nonzero" clip-path="url(#284051bac9)"><g clip-rule="nonzero" clip-path="url(#2bb3de04d3)"><path style=" stroke:none;fill-rule:nonzero;fill:#737373;fill-opacity:1;" d="M 219.738281 102.996094 L 193.691406 102.996094 L 193.691406 76.949219 L 219.738281 76.949219 Z M 219.738281 102.996094 "/></g></g><g clip-rule="nonzero" clip-path="url(#c25c1bf059)"><g clip-rule="nonzero" clip-path="url(#4e9a212d97)"><path style=" stroke:none;fill-rule:nonzero;fill:#b4b4b4;fill-opacity:1;" d="M 181.296875 102.996094 L 155.25 102.996094 L 155.25 76.949219 L 181.296875 76.949219 Z M 181.296875 102.996094 "/></g></g></g></svg>