<svg xmlns="http://www.w3.org/2000/svg" xmlns:xlink="http://www.w3.org/1999/xlink" width="500" zoomAndPan="magnify" viewBox="0 0 375 374.999991" height="500" preserveAspectRatio="xMidYMid meet" version="1.2"><defs><clipPath id="a870494d22"><path d="M 60.523438 58.902344 L 107.3125 58.902344 L 107.3125 105.691406 L 60.523438 105.691406 Z M 60.523438 58.902344 "/></clipPath><clipPath id="8242c7dce3"><path d="M 83.917969 58.902344 C 71 58.902344 60.523438 69.378906 60.523438 82.296875 C 60.523438 95.21875 71 105.691406 83.917969 105.691406 C 96.835938 105.691406 107.3125 95.21875 107.3125 82.296875 C 107.3125 69.378906 96.835938 58.902344 83.917969 58.902344 Z M 83.917969 58.902344 "/></clipPath><clipPath id="3d5228216a"><path d="M 60.523438 129.039062 L 107.3125 129.039062 L 107.3125 175.824219 L 60.523438 175.824219 Z M 60.523438 129.039062 "/></clipPath><clipPath id="98748b9a0f"><path d="M 83.917969 129.039062 C 71 129.039062 60.523438 139.511719 60.523438 152.433594 C 60.523438 165.351562 71 175.824219 83.917969 175.824219 C 96.835938 175.824219 107.3125 165.351562 107.3125 152.433594 C 107.3125 139.511719 96.835938 129.039062 83.917969 129.039062 Z M 83.917969 129.039062 "/></clipPath><clipPath id="6c1fb60dc5"><path d="M 60.523438 199.175781 L 107.3125 199.175781 L 107.3125 245.960938 L 60.523438 245.960938 Z M 60.523438 199.175781 "/></clipPath><clipPath id="009b704291"><path d="M 83.917969 199.175781 C 71 199.175781 60.523438 209.648438 60.523438 222.566406 C 60.523438 235.488281 71 245.960938 83.917969 245.960938 C 96.835938 245.960938 107.3125 235.488281 107.3125 222.566406 C 107.3125 209.648438 96.835938 199.175781 83.917969 199.175781 Z M 83.917969 199.175781 "/></clipPath><clipPath id="2ef92d52a9"><path d="M 60.523438 269.308594 L 107.3125 269.308594 L 107.3125 316.097656 L 60.523438 316.097656 Z M 60.523438 269.308594 "/></clipPath><clipPath id="b56111ea9e"><path d="M 83.917969 269.308594 C 71 269.308594 60.523438 279.78125 60.523438 292.703125 C 60.523438 305.621094 71 316.097656 83.917969 316.097656 C 96.835938 316.097656 107.3125 305.621094 107.3125 292.703125 C 107.3125 279.78125 96.835938 269.308594 83.917969 269.308594 Z M 83.917969 269.308594 "/></clipPath><clipPath id="26c723a539"><path d="M 129.578125 129.039062 L 176.367188 129.039062 L 176.367188 175.824219 L 129.578125 175.824219 Z M 129.578125 129.039062 "/></clipPath><clipPath id="27365e04a5"><path d="M 152.972656 129.039062 C 140.054688 129.039062 129.578125 139.511719 129.578125 152.433594 C 129.578125 165.351562 140.054688 175.824219 152.972656 175.824219 C 165.890625 175.824219 176.367188 165.351562 176.367188 152.433594 C 176.367188 139.511719 165.890625 129.039062 152.972656 129.039062 Z M 152.972656 129.039062 "/></clipPath><clipPath id="33c76a284d"><path d="M 129.578125 199.175781 L 176.367188 199.175781 L 176.367188 245.960938 L 129.578125 245.960938 Z M 129.578125 199.175781 "/></clipPath><clipPath id="89f0aa587f"><path d="M 152.972656 199.175781 C 140.054688 199.175781 129.578125 209.648438 129.578125 222.566406 C 129.578125 235.488281 140.054688 245.960938 152.972656 245.960938 C 165.890625 245.960938 176.367188 235.488281 176.367188 222.566406 C 176.367188 209.648438 165.890625 199.175781 152.972656 199.175781 Z M 152.972656 199.175781 "/></clipPath><clipPath id="113713be53"><path d="M 129.578125 269.308594 L 176.367188 269.308594 L 176.367188 316.097656 L 129.578125 316.097656 Z M 129.578125 269.308594 "/></clipPath><clipPath id="f7ce5dec6a"><path d="M 152.972656 269.308594 C 140.054688 269.308594 129.578125 279.78125 129.578125 292.703125 C 129.578125 305.621094 140.054688 316.097656 152.972656 316.097656 C 165.890625 316.097656 176.367188 305.621094 176.367188 292.703125 C 176.367188 279.78125 165.890625 269.308594 152.972656 269.308594 Z M 152.972656 269.308594 "/></clipPath><clipPath id="8a53e30e98"><path d="M 198.632812 199.175781 L 245.421875 199.175781 L 245.421875 245.960938 L 198.632812 245.960938 Z M 198.632812 199.175781 "/></clipPath><clipPath id="e10456975d"><path d="M 222.027344 199.175781 C 209.109375 199.175781 198.632812 209.648438 198.632812 222.566406 C 198.632812 235.488281 209.109375 245.960938 222.027344 245.960938 C 234.945312 245.960938 245.421875 235.488281 245.421875 222.566406 C 245.421875 209.648438 234.945312 199.175781 222.027344 199.175781 Z M 222.027344 199.175781 "/></clipPath><clipPath id="82493fad86"><path d="M 198.632812 269.308594 L 245.421875 269.308594 L 245.421875 316.097656 L 198.632812 316.097656 Z M 198.632812 269.308594 "/></clipPath><clipPath id="2495a3eb09"><path d="M 222.027344 269.308594 C 209.109375 269.308594 198.632812 279.78125 198.632812 292.703125 C 198.632812 305.621094 209.109375 316.097656 222.027344 316.097656 C 234.945312 316.097656 245.421875 305.621094 245.421875 292.703125 C 245.421875 279.78125 234.945312 269.308594 222.027344 269.308594 Z M 222.027344 269.308594 "/></clipPath><clipPath id="187dfda543"><path d="M 265.777344 269.308594 L 312.566406 269.308594 L 312.566406 316.097656 L 265.777344 316.097656 Z M 265.777344 269.308594 "/></clipPath><clipPath id="e299e3986d"><path d="M 289.171875 269.308594 C 276.253906 269.308594 265.777344 279.78125 265.777344 292.703125 C 265.777344 305.621094 276.253906 316.097656 289.171875 316.097656 C 302.089844 316.097656 312.566406 305.621094 312.566406 292.703125 C 312.566406 279.78125 302.089844 269.308594 289.171875 269.308594 Z M 289.171875 269.308594 "/></clipPath><clipPath id="91713f6349"><path d="M 267.667969 199.152344 L 314.453125 199.152344 L 314.453125 245.9375 L 267.667969 245.9375 Z M 267.667969 199.152344 "/></clipPath><clipPath id="132ff5faff"><path d="M 291.0625 245.9375 C 303.980469 245.9375 314.453125 235.464844 314.453125 222.546875 C 314.453125 209.625 303.980469 199.152344 291.0625 199.152344 C 278.140625 199.152344 267.667969 209.625 267.667969 222.546875 C 267.667969 235.464844 278.140625 245.9375 291.0625 245.9375 Z M 291.0625 245.9375 "/></clipPath><clipPath id="a9ca141897"><path d="M 267.667969 129.019531 L 314.453125 129.019531 L 314.453125 175.804688 L 267.667969 175.804688 Z M 267.667969 129.019531 "/></clipPath><clipPath id="409c4e7dcb"><path d="M 291.0625 175.804688 C 303.980469 175.804688 314.453125 165.332031 314.453125 152.410156 C 314.453125 139.492188 303.980469 129.019531 291.0625 129.019531 C 278.140625 129.019531 267.667969 139.492188 267.667969 152.410156 C 267.667969 165.332031 278.140625 175.804688 291.0625 175.804688 Z M 291.0625 175.804688 "/></clipPath><clipPath id="2a2bfbfca8"><path d="M 267.667969 58.882812 L 314.453125 58.882812 L 314.453125 105.667969 L 267.667969 105.667969 Z M 267.667969 58.882812 "/></clipPath><clipPath id="2586b18ae4"><path d="M 291.0625 105.667969 C 303.980469 105.667969 314.453125 95.195312 314.453125 82.277344 C 314.453125 69.355469 303.980469 58.882812 291.0625 58.882812 C 278.140625 58.882812 267.667969 69.355469 267.667969 82.277344 C 267.667969 95.195312 278.140625 105.667969 291.0625 105.667969 Z M 291.0625 105.667969 "/></clipPath><clipPath id="a7bfccf8d3"><path d="M 198.613281 129.019531 L 245.398438 129.019531 L 245.398438 175.804688 L 198.613281 175.804688 Z M 198.613281 129.019531 "/></clipPath><clipPath id="d0c92ff547"><path d="M 222.007812 175.804688 C 234.925781 175.804688 245.398438 165.332031 245.398438 152.410156 C 245.398438 139.492188 234.925781 129.019531 222.007812 129.019531 C 209.085938 129.019531 198.613281 139.492188 198.613281 152.410156 C 198.613281 165.332031 209.085938 175.804688 222.007812 175.804688 Z M 222.007812 175.804688 "/></clipPath><clipPath id="d4f9ee68c6"><path d="M 198.613281 58.882812 L 245.398438 58.882812 L 245.398438 105.667969 L 198.613281 105.667969 Z M 198.613281 58.882812 "/></clipPath><clipPath id="d3b579db60"><path d="M 222.007812 105.667969 C 234.925781 105.667969 245.398438 95.195312 245.398438 82.277344 C 245.398438 69.355469 234.925781 58.882812 222.007812 58.882812 C 209.085938 58.882812 198.613281 69.355469 198.613281 82.277344 C 198.613281 95.195312 209.085938 105.667969 222.007812 105.667969 Z M 222.007812 105.667969 "/></clipPath><clipPath id="481df8f5fe"><path d="M 129.558594 58.882812 L 176.34375 58.882812 L 176.34375 105.667969 L 129.558594 105.667969 Z M 129.558594 58.882812 "/></clipPath><clipPath id="e63c91ba6b"><path d="M 152.953125 105.667969 C 165.871094 105.667969 176.34375 95.195312 176.34375 82.277344 C 176.34375 69.355469 165.871094 58.882812 152.953125 58.882812 C 140.03125 58.882812 129.558594 69.355469 129.558594 82.277344 C 129.558594 95.195312 140.03125 105.667969 152.953125 105.667969 Z M 152.953125 105.667969 "/></clipPath></defs><g id="ec4e8a9c6f"><g clip-rule="nonzero" clip-path="url(#a870494d22)"><g clip-rule="nonzero" clip-path="url(#8242c7dce3)"><path style=" stroke:none;fill-rule:nonzero;fill:#c1ff72;fill-opacity:1;" d="M 60.523438 58.902344 L 107.3125 58.902344 L 107.3125 105.691406 L 60.523438 105.691406 Z M 60.523438 58.902344 "/></g></g><g clip-rule="nonzero" clip-path="url(#3d5228216a)"><g clip-rule="nonzero" clip-path="url(#98748b9a0f)"><path style=" stroke:none;fill-rule:nonzero;fill:#99e579;fill-opacity:1;" d="M 60.523438 129.039062 L 107.3125 129.039062 L 107.3125 175.824219 L 60.523438 175.824219 Z M 60.523438 129.039062 "/></g></g><g clip-rule="nonzero" clip-path="url(#6c1fb60dc5)"><g clip-rule="nonzero" clip-path="url(#009b704291)"><path style=" stroke:none;fill-rule:nonzero;fill:#58c542;fill-opacity:1;" d="M 60.523438 199.175781 L 107.3125 199.175781 L 107.3125 245.960938 L 60.523438 245.960938 Z M 60.523438 199.175781 "/></g></g><g clip-rule="nonzero" clip-path="url(#2ef92d52a9)"><g clip-rule="nonzero" clip-path="url(#b56111ea9e)"><path style=" stroke:none;fill-rule:nonzero;fill:#14ae31;fill-opacity:1;" d="M 60.523438 269.308594 L 107.3125 269.308594 L 107.3125 316.097656 L 60.523438 316.097656 Z M 60.523438 269.308594 "/></g></g><g clip-rule="nonzero" clip-path="url(#26c723a539)"><g clip-rule="nonzero" clip-path="url(#27365e04a5)"><path style=" stroke:none;fill-rule:nonzero;fill:#c1ff72;fill-opacity:1;" d="M 129.578125 129.039062 L 176.367188 129.039062 L 176.367188 175.824219 L 129.578125 175.824219 Z M 129.578125 129.039062 "/></g></g><g clip-rule="nonzero" clip-path="url(#33c76a284d)"><g clip-rule="nonzero" clip-path="url(#89f0aa587f)"><path style=" stroke:none;fill-rule:nonzero;fill:#99e579;fill-opacity:1;" d="M 129.578125 199.175781 L 176.367188 199.175781 L 176.367188 245.960938 L 129.578125 245.960938 Z M 129.578125 199.175781 "/></g></g><g clip-rule="nonzero" clip-path="url(#113713be53)"><g clip-rule="nonzero" clip-path="url(#f7ce5dec6a)"><path style=" stroke:none;fill-rule:nonzero;fill:#58c542;fill-opacity:1;" d="M 129.578125 269.308594 L 176.367188 269.308594 L 176.367188 316.097656 L 129.578125 316.097656 Z M 129.578125 269.308594 "/></g></g><g clip-rule="nonzero" clip-path="url(#8a53e30e98)"><g clip-rule="nonzero" clip-path="url(#e10456975d)"><path style=" stroke:none;fill-rule:nonzero;fill:#c1ff72;fill-opacity:1;" d="M 198.632812 199.175781 L 245.421875 199.175781 L 245.421875 245.960938 L 198.632812 245.960938 Z M 198.632812 199.175781 "/></g></g><g clip-rule="nonzero" clip-path="url(#82493fad86)"><g clip-rule="nonzero" clip-path="url(#2495a3eb09)"><path style=" stroke:none;fill-rule:nonzero;fill:#99e579;fill-opacity:1;" d="M 198.632812 269.308594 L 245.421875 269.308594 L 245.421875 316.097656 L 198.632812 316.097656 Z M 198.632812 269.308594 "/></g></g><g clip-rule="nonzero" clip-path="url(#187dfda543)"><g clip-rule="nonzero" clip-path="url(#e299e3986d)"><path style=" stroke:none;fill-rule:nonzero;fill:#c1ff72;fill-opacity:1;" d="M 265.777344 269.308594 L 312.566406 269.308594 L 312.566406 316.097656 L 265.777344 316.097656 Z M 265.777344 269.308594 "/></g></g><g clip-rule="nonzero" clip-path="url(#91713f6349)"><g clip-rule="nonzero" clip-path="url(#132ff5faff)"><path style=" stroke:none;fill-rule:nonzero;fill:#99e579;fill-opacity:1;" d="M 314.453125 245.9375 L 267.667969 245.9375 L 267.667969 199.152344 L 314.453125 199.152344 Z M 314.453125 245.9375 "/></g></g><g clip-rule="nonzero" clip-path="url(#a9ca141897)"><g clip-rule="nonzero" clip-path="url(#409c4e7dcb)"><path style=" stroke:none;fill-rule:nonzero;fill:#58c542;fill-opacity:1;" d="M 314.453125 175.804688 L 267.667969 175.804688 L 267.667969 129.019531 L 314.453125 129.019531 Z M 314.453125 175.804688 "/></g></g><g clip-rule="nonzero" clip-path="url(#2a2bfbfca8)"><g clip-rule="nonzero" clip-path="url(#2586b18ae4)"><path style=" stroke:none;fill-rule:nonzero;fill:#14ae31;fill-opacity:1;" d="M 314.453125 105.667969 L 267.667969 105.667969 L 267.667969 58.882812 L 314.453125 58.882812 Z M 314.453125 105.667969 "/></g></g><g clip-rule="nonzero" clip-path="url(#a7bfccf8d3)"><g clip-rule="nonzero" clip-path="url(#d0c92ff547)"><path style=" stroke:none;fill-rule:nonzero;fill:#99e579;fill-opacity:1;" d="M 245.398438 175.804688 L 198.613281 175.804688 L 198.613281 129.019531 L 245.398438 129.019531 Z M 245.398438 175.804688 "/></g></g><g clip-rule="nonzero" clip-path="url(#d4f9ee68c6)"><g clip-rule="nonzero" clip-path="url(#d3b579db60)"><path style=" stroke:none;fill-rule:nonzero;fill:#58c542;fill-opacity:1;" d="M 245.398438 105.667969 L 198.613281 105.667969 L 198.613281 58.882812 L 245.398438 58.882812 Z M 245.398438 105.667969 "/></g></g><g clip-rule="nonzero" clip-path="url(#481df8f5fe)"><g clip-rule="nonzero" clip-path="url(#e63c91ba6b)"><path style=" stroke:none;fill-rule:nonzero;fill:#99e579;fill-opacity:1;" d="M 176.34375 105.667969 L 129.558594 105.667969 L 129.558594 58.882812 L 176.34375 58.882812 Z M 176.34375 105.667969 "/></g></g></g></svg>