<svg xmlns="http://www.w3.org/2000/svg" xmlns:xlink="http://www.w3.org/1999/xlink" width="500" zoomAndPan="magnify" viewBox="0 0 375 374.999991" height="500" preserveAspectRatio="xMidYMid meet" version="1.2"><defs><clipPath id="ef0a9b7514"><path d="M 60.523438 58.902344 L 107.3125 58.902344 L 107.3125 105.691406 L 60.523438 105.691406 Z M 60.523438 58.902344 "/></clipPath><clipPath id="dfd1553e65"><path d="M 83.917969 58.902344 C 71 58.902344 60.523438 69.378906 60.523438 82.296875 C 60.523438 95.21875 71 105.691406 83.917969 105.691406 C 96.835938 105.691406 107.3125 95.21875 107.3125 82.296875 C 107.3125 69.378906 96.835938 58.902344 83.917969 58.902344 Z M 83.917969 58.902344 "/></clipPath><clipPath id="7937f48b80"><path d="M 60.523438 129.039062 L 107.3125 129.039062 L 107.3125 175.824219 L 60.523438 175.824219 Z M 60.523438 129.039062 "/></clipPath><clipPath id="5ad1ed3895"><path d="M 83.917969 129.039062 C 71 129.039062 60.523438 139.511719 60.523438 152.433594 C 60.523438 165.351562 71 175.824219 83.917969 175.824219 C 96.835938 175.824219 107.3125 165.351562 107.3125 152.433594 C 107.3125 139.511719 96.835938 129.039062 83.917969 129.039062 Z M 83.917969 129.039062 "/></clipPath><clipPath id="c90bf551fe"><path d="M 60.523438 199.175781 L 107.3125 199.175781 L 107.3125 245.960938 L 60.523438 245.960938 Z M 60.523438 199.175781 "/></clipPath><clipPath id="6a10ac5272"><path d="M 83.917969 199.175781 C 71 199.175781 60.523438 209.648438 60.523438 222.566406 C 60.523438 235.488281 71 245.960938 83.917969 245.960938 C 96.835938 245.960938 107.3125 235.488281 107.3125 222.566406 C 107.3125 209.648438 96.835938 199.175781 83.917969 199.175781 Z M 83.917969 199.175781 "/></clipPath><clipPath id="ef8a6e2e4b"><path d="M 60.523438 269.308594 L 107.3125 269.308594 L 107.3125 316.097656 L 60.523438 316.097656 Z M 60.523438 269.308594 "/></clipPath><clipPath id="a13bb53f2e"><path d="M 83.917969 269.308594 C 71 269.308594 60.523438 279.78125 60.523438 292.703125 C 60.523438 305.621094 71 316.097656 83.917969 316.097656 C 96.835938 316.097656 107.3125 305.621094 107.3125 292.703125 C 107.3125 279.78125 96.835938 269.308594 83.917969 269.308594 Z M 83.917969 269.308594 "/></clipPath><clipPath id="bea3243416"><path d="M 129.578125 129.039062 L 176.367188 129.039062 L 176.367188 175.824219 L 129.578125 175.824219 Z M 129.578125 129.039062 "/></clipPath><clipPath id="4c73761987"><path d="M 152.972656 129.039062 C 140.054688 129.039062 129.578125 139.511719 129.578125 152.433594 C 129.578125 165.351562 140.054688 175.824219 152.972656 175.824219 C 165.890625 175.824219 176.367188 165.351562 176.367188 152.433594 C 176.367188 139.511719 165.890625 129.039062 152.972656 129.039062 Z M 152.972656 129.039062 "/></clipPath><clipPath id="7a68ae0ef1"><path d="M 129.578125 199.175781 L 176.367188 199.175781 L 176.367188 245.960938 L 129.578125 245.960938 Z M 129.578125 199.175781 "/></clipPath><clipPath id="87c0166c3d"><path d="M 152.972656 199.175781 C 140.054688 199.175781 129.578125 209.648438 129.578125 222.566406 C 129.578125 235.488281 140.054688 245.960938 152.972656 245.960938 C 165.890625 245.960938 176.367188 235.488281 176.367188 222.566406 C 176.367188 209.648438 165.890625 199.175781 152.972656 199.175781 Z M 152.972656 199.175781 "/></clipPath><clipPath id="2c7bdc9610"><path d="M 129.578125 269.308594 L 176.367188 269.308594 L 176.367188 316.097656 L 129.578125 316.097656 Z M 129.578125 269.308594 "/></clipPath><clipPath id="6f114858fa"><path d="M 152.972656 269.308594 C 140.054688 269.308594 129.578125 279.78125 129.578125 292.703125 C 129.578125 305.621094 140.054688 316.097656 152.972656 316.097656 C 165.890625 316.097656 176.367188 305.621094 176.367188 292.703125 C 176.367188 279.78125 165.890625 269.308594 152.972656 269.308594 Z M 152.972656 269.308594 "/></clipPath><clipPath id="9e14a537ed"><path d="M 198.632812 199.175781 L 245.421875 199.175781 L 245.421875 245.960938 L 198.632812 245.960938 Z M 198.632812 199.175781 "/></clipPath><clipPath id="4279381a72"><path d="M 222.027344 199.175781 C 209.109375 199.175781 198.632812 209.648438 198.632812 222.566406 C 198.632812 235.488281 209.109375 245.960938 222.027344 245.960938 C 234.945312 245.960938 245.421875 235.488281 245.421875 222.566406 C 245.421875 209.648438 234.945312 199.175781 222.027344 199.175781 Z M 222.027344 199.175781 "/></clipPath><clipPath id="4695b40fa3"><path d="M 198.632812 269.308594 L 245.421875 269.308594 L 245.421875 316.097656 L 198.632812 316.097656 Z M 198.632812 269.308594 "/></clipPath><clipPath id="7c2c749fda"><path d="M 222.027344 269.308594 C 209.109375 269.308594 198.632812 279.78125 198.632812 292.703125 C 198.632812 305.621094 209.109375 316.097656 222.027344 316.097656 C 234.945312 316.097656 245.421875 305.621094 245.421875 292.703125 C 245.421875 279.78125 234.945312 269.308594 222.027344 269.308594 Z M 222.027344 269.308594 "/></clipPath><clipPath id="30adad836d"><path d="M 265.777344 269.308594 L 312.566406 269.308594 L 312.566406 316.097656 L 265.777344 316.097656 Z M 265.777344 269.308594 "/></clipPath><clipPath id="b29400304b"><path d="M 289.171875 269.308594 C 276.253906 269.308594 265.777344 279.78125 265.777344 292.703125 C 265.777344 305.621094 276.253906 316.097656 289.171875 316.097656 C 302.089844 316.097656 312.566406 305.621094 312.566406 292.703125 C 312.566406 279.78125 302.089844 269.308594 289.171875 269.308594 Z M 289.171875 269.308594 "/></clipPath><clipPath id="676b798b0d"><path d="M 267.679688 199.164062 L 314.464844 199.164062 L 314.464844 245.949219 L 267.679688 245.949219 Z M 267.679688 199.164062 "/></clipPath><clipPath id="bd3ada371a"><path d="M 291.070312 245.949219 C 303.992188 245.949219 314.464844 235.476562 314.464844 222.558594 C 314.464844 209.636719 303.992188 199.164062 291.070312 199.164062 C 278.152344 199.164062 267.679688 209.636719 267.679688 222.558594 C 267.679688 235.476562 278.152344 245.949219 291.070312 245.949219 Z M 291.070312 245.949219 "/></clipPath><clipPath id="e8260e7354"><path d="M 267.679688 129.027344 L 314.464844 129.027344 L 314.464844 175.816406 L 267.679688 175.816406 Z M 267.679688 129.027344 "/></clipPath><clipPath id="78f51fb6a0"><path d="M 291.070312 175.816406 C 303.992188 175.816406 314.464844 165.34375 314.464844 152.421875 C 314.464844 139.503906 303.992188 129.027344 291.070312 129.027344 C 278.152344 129.027344 267.679688 139.503906 267.679688 152.421875 C 267.679688 165.34375 278.152344 175.816406 291.070312 175.816406 Z M 291.070312 175.816406 "/></clipPath><clipPath id="ffedd9e886"><path d="M 267.679688 58.894531 L 314.464844 58.894531 L 314.464844 105.679688 L 267.679688 105.679688 Z M 267.679688 58.894531 "/></clipPath><clipPath id="13bf42ecc8"><path d="M 291.070312 105.679688 C 303.992188 105.679688 314.464844 95.207031 314.464844 82.285156 C 314.464844 69.367188 303.992188 58.894531 291.070312 58.894531 C 278.152344 58.894531 267.679688 69.367188 267.679688 82.285156 C 267.679688 95.207031 278.152344 105.679688 291.070312 105.679688 Z M 291.070312 105.679688 "/></clipPath><clipPath id="e757dac40a"><path d="M 198.625 129.027344 L 245.410156 129.027344 L 245.410156 175.816406 L 198.625 175.816406 Z M 198.625 129.027344 "/></clipPath><clipPath id="e8c07bbb93"><path d="M 222.015625 175.816406 C 234.9375 175.816406 245.410156 165.34375 245.410156 152.421875 C 245.410156 139.503906 234.9375 129.027344 222.015625 129.027344 C 209.097656 129.027344 198.625 139.503906 198.625 152.421875 C 198.625 165.34375 209.097656 175.816406 222.015625 175.816406 Z M 222.015625 175.816406 "/></clipPath><clipPath id="9cf7ba5a19"><path d="M 198.625 58.894531 L 245.410156 58.894531 L 245.410156 105.679688 L 198.625 105.679688 Z M 198.625 58.894531 "/></clipPath><clipPath id="6ab75d3235"><path d="M 222.015625 105.679688 C 234.9375 105.679688 245.410156 95.207031 245.410156 82.285156 C 245.410156 69.367188 234.9375 58.894531 222.015625 58.894531 C 209.097656 58.894531 198.625 69.367188 198.625 82.285156 C 198.625 95.207031 209.097656 105.679688 222.015625 105.679688 Z M 222.015625 105.679688 "/></clipPath><clipPath id="47cc82bdd2"><path d="M 129.570312 58.894531 L 176.355469 58.894531 L 176.355469 105.679688 L 129.570312 105.679688 Z M 129.570312 58.894531 "/></clipPath><clipPath id="0a06524e56"><path d="M 152.960938 105.679688 C 165.882812 105.679688 176.355469 95.207031 176.355469 82.285156 C 176.355469 69.367188 165.882812 58.894531 152.960938 58.894531 C 140.042969 58.894531 129.570312 69.367188 129.570312 82.285156 C 129.570312 95.207031 140.042969 105.679688 152.960938 105.679688 Z M 152.960938 105.679688 "/></clipPath></defs><g id="d175edc1ae"><g clip-rule="nonzero" clip-path="url(#ef0a9b7514)"><g clip-rule="nonzero" clip-path="url(#dfd1553e65)"><path style=" stroke:none;fill-rule:nonzero;fill:#d9d9d9;fill-opacity:1;" d="M 60.523438 58.902344 L 107.3125 58.902344 L 107.3125 105.691406 L 60.523438 105.691406 Z M 60.523438 58.902344 "/></g></g><g clip-rule="nonzero" clip-path="url(#7937f48b80)"><g clip-rule="nonzero" clip-path="url(#5ad1ed3895)"><path style=" stroke:none;fill-rule:nonzero;fill:#b4b4b4;fill-opacity:1;" d="M 60.523438 129.039062 L 107.3125 129.039062 L 107.3125 175.824219 L 60.523438 175.824219 Z M 60.523438 129.039062 "/></g></g><g clip-rule="nonzero" clip-path="url(#c90bf551fe)"><g clip-rule="nonzero" clip-path="url(#6a10ac5272)"><path style=" stroke:none;fill-rule:nonzero;fill:#737373;fill-opacity:1;" d="M 60.523438 199.175781 L 107.3125 199.175781 L 107.3125 245.960938 L 60.523438 245.960938 Z M 60.523438 199.175781 "/></g></g><g clip-rule="nonzero" clip-path="url(#ef8a6e2e4b)"><g clip-rule="nonzero" clip-path="url(#a13bb53f2e)"><path style=" stroke:none;fill-rule:nonzero;fill:#545454;fill-opacity:1;" d="M 60.523438 269.308594 L 107.3125 269.308594 L 107.3125 316.097656 L 60.523438 316.097656 Z M 60.523438 269.308594 "/></g></g><g clip-rule="nonzero" clip-path="url(#bea3243416)"><g clip-rule="nonzero" clip-path="url(#4c73761987)"><path style=" stroke:none;fill-rule:nonzero;fill:#d9d9d9;fill-opacity:1;" d="M 129.578125 129.039062 L 176.367188 129.039062 L 176.367188 175.824219 L 129.578125 175.824219 Z M 129.578125 129.039062 "/></g></g><g clip-rule="nonzero" clip-path="url(#7a68ae0ef1)"><g clip-rule="nonzero" clip-path="url(#87c0166c3d)"><path style=" stroke:none;fill-rule:nonzero;fill:#b4b4b4;fill-opacity:1;" d="M 129.578125 199.175781 L 176.367188 199.175781 L 176.367188 245.960938 L 129.578125 245.960938 Z M 129.578125 199.175781 "/></g></g><g clip-rule="nonzero" clip-path="url(#2c7bdc9610)"><g clip-rule="nonzero" clip-path="url(#6f114858fa)"><path style=" stroke:none;fill-rule:nonzero;fill:#737373;fill-opacity:1;" d="M 129.578125 269.308594 L 176.367188 269.308594 L 176.367188 316.097656 L 129.578125 316.097656 Z M 129.578125 269.308594 "/></g></g><g clip-rule="nonzero" clip-path="url(#9e14a537ed)"><g clip-rule="nonzero" clip-path="url(#4279381a72)"><path style=" stroke:none;fill-rule:nonzero;fill:#d9d9d9;fill-opacity:1;" d="M 198.632812 199.175781 L 245.421875 199.175781 L 245.421875 245.960938 L 198.632812 245.960938 Z M 198.632812 199.175781 "/></g></g><g clip-rule="nonzero" clip-path="url(#4695b40fa3)"><g clip-rule="nonzero" clip-path="url(#7c2c749fda)"><path style=" stroke:none;fill-rule:nonzero;fill:#b4b4b4;fill-opacity:1;" d="M 198.632812 269.308594 L 245.421875 269.308594 L 245.421875 316.097656 L 198.632812 316.097656 Z M 198.632812 269.308594 "/></g></g><g clip-rule="nonzero" clip-path="url(#30adad836d)"><g clip-rule="nonzero" clip-path="url(#b29400304b)"><path style=" stroke:none;fill-rule:nonzero;fill:#d9d9d9;fill-opacity:1;" d="M 265.777344 269.308594 L 312.566406 269.308594 L 312.566406 316.097656 L 265.777344 316.097656 Z M 265.777344 269.308594 "/></g></g><g clip-rule="nonzero" clip-path="url(#676b798b0d)"><g clip-rule="nonzero" clip-path="url(#bd3ada371a)"><path style=" stroke:none;fill-rule:nonzero;fill:#b4b4b4;fill-opacity:1;" d="M 314.464844 245.949219 L 267.679688 245.949219 L 267.679688 199.164062 L 314.464844 199.164062 Z M 314.464844 245.949219 "/></g></g><g clip-rule="nonzero" clip-path="url(#e8260e7354)"><g clip-rule="nonzero" clip-path="url(#78f51fb6a0)"><path style=" stroke:none;fill-rule:nonzero;fill:#737373;fill-opacity:1;" d="M 314.464844 175.816406 L 267.679688 175.816406 L 267.679688 129.027344 L 314.464844 129.027344 Z M 314.464844 175.816406 "/></g></g><g clip-rule="nonzero" clip-path="url(#ffedd9e886)"><g clip-rule="nonzero" clip-path="url(#13bf42ecc8)"><path style=" stroke:none;fill-rule:nonzero;fill:#545454;fill-opacity:1;" d="M 314.464844 105.679688 L 267.679688 105.679688 L 267.679688 58.894531 L 314.464844 58.894531 Z M 314.464844 105.679688 "/></g></g><g clip-rule="nonzero" clip-path="url(#e757dac40a)"><g clip-rule="nonzero" clip-path="url(#e8c07bbb93)"><path style=" stroke:none;fill-rule:nonzero;fill:#b4b4b4;fill-opacity:1;" d="M 245.410156 175.816406 L 198.625 175.816406 L 198.625 129.027344 L 245.410156 129.027344 Z M 245.410156 175.816406 "/></g></g><g clip-rule="nonzero" clip-path="url(#9cf7ba5a19)"><g clip-rule="nonzero" clip-path="url(#6ab75d3235)"><path style=" stroke:none;fill-rule:nonzero;fill:#737373;fill-opacity:1;" d="M 245.410156 105.679688 L 198.625 105.679688 L 198.625 58.894531 L 245.410156 58.894531 Z M 245.410156 105.679688 "/></g></g><g clip-rule="nonzero" clip-path="url(#47cc82bdd2)"><g clip-rule="nonzero" clip-path="url(#0a06524e56)"><path style=" stroke:none;fill-rule:nonzero;fill:#b4b4b4;fill-opacity:1;" d="M 176.355469 105.679688 L 129.570312 105.679688 L 129.570312 58.894531 L 176.355469 58.894531 Z M 176.355469 105.679688 "/></g></g></g></svg>