<svg width="184" height="35" viewBox="0 0 184 35" fill="none" xmlns="http://www.w3.org/2000/svg">
<mask id="mask0_293_2" style="mask-type:luminance" maskUnits="userSpaceOnUse" x="9" y="15" width="24" height="20">
<path d="M9.10004 15.4L32.2001 15.4V35H9.10004L9.10004 15.4Z" fill="white"/>
</mask>
<g mask="url(#mask0_293_2)">
<mask id="mask1_293_2" style="mask-type:luminance" maskUnits="userSpaceOnUse" x="-8" y="-9" width="51" height="50">
<path d="M13.9097 -8.57773L42.1887 13.2098L21.0383 40.6574L-7.24066 18.8672L13.9097 -8.57773Z" fill="white"/>
</mask>
<g mask="url(#mask1_293_2)">
<mask id="mask2_293_2" style="mask-type:luminance" maskUnits="userSpaceOnUse" x="-8" y="-9" width="51" height="50">
<path d="M13.9097 -8.57773L42.1887 13.2098L21.0383 40.6574L-7.24066 18.8672L13.9097 -8.57773Z" fill="white"/>
</mask>
<g mask="url(#mask2_293_2)">
<mask id="mask3_293_2" style="mask-type:luminance" maskUnits="userSpaceOnUse" x="-8" y="-9" width="51" height="50">
<path d="M13.9097 -8.57773L42.1887 13.2098L21.0383 40.6574L-7.24066 18.8672L13.9097 -8.57773Z" fill="white"/>
</mask>
<g mask="url(#mask3_293_2)">
<mask id="mask4_293_2" style="mask-type:luminance" maskUnits="userSpaceOnUse" x="9" y="11" width="27" height="30">
<path d="M23.4637 11.8316L35.875 21.3937L21.4594 40.105L9.04529 30.5429L23.4637 11.8316Z" fill="white"/>
</mask>
<g mask="url(#mask4_293_2)">
<path d="M23.9148 33.9391C29.7801 31.5219 33.6875 24.8582 31.4918 19.2528C30.759 17.3852 28.998 15.4356 26.9336 15.8074C28.3582 16.4938 29.1512 18.2082 29.2906 19.8981C29.5723 23.3352 27.1332 27.5434 22.3726 30.6496L23.2176 31.161L19.9172 31.6531L21.5551 28.5879L21.834 29.7281C23.2531 29.0309 26.6 25.8043 26.641 22.0336C26.6793 18.5746 23.6004 18.118 21.916 20.0102C20.2152 21.9215 19.8734 24.7242 18.3805 26.7969C16.3597 29.5996 12.6027 30.9969 9.23669 30.2969C12.7094 34.4805 18.6211 36.1211 23.9148 33.9391Z" fill="#274A21"/>
</g>
</g>
</g>
</g>
</g>
<mask id="mask5_293_2" style="mask-type:luminance" maskUnits="userSpaceOnUse" x="0" y="2" width="15" height="26">
<path d="M0 2.80002L14.7 2.80002L14.7 28H0L0 2.80002Z" fill="white"/>
</mask>
<g mask="url(#mask5_293_2)">
<mask id="mask6_293_2" style="mask-type:luminance" maskUnits="userSpaceOnUse" x="-8" y="-9" width="51" height="50">
<path d="M13.9097 -8.57773L42.1887 13.2098L21.0383 40.6574L-7.24066 18.8672L13.9097 -8.57773Z" fill="white"/>
</mask>
<g mask="url(#mask6_293_2)">
<mask id="mask7_293_2" style="mask-type:luminance" maskUnits="userSpaceOnUse" x="-8" y="-9" width="51" height="50">
<path d="M13.9097 -8.57773L42.1887 13.2098L21.0383 40.6574L-7.24066 18.8672L13.9097 -8.57773Z" fill="white"/>
</mask>
<g mask="url(#mask7_293_2)">
<mask id="mask8_293_2" style="mask-type:luminance" maskUnits="userSpaceOnUse" x="-8" y="-9" width="51" height="50">
<path d="M13.9097 -8.57773L42.1887 13.2098L21.0383 40.6574L-7.24066 18.8672L13.9097 -8.57773Z" fill="white"/>
</mask>
<g mask="url(#mask8_293_2)">
<path d="M0.207846 13.8988C-0.634342 20.1851 3.18011 26.898 9.13285 27.7976C11.1153 28.0957 13.6883 27.5461 14.3993 25.5691C13.0922 26.4633 11.211 26.2937 9.67699 25.5691C6.5598 24.0953 4.13715 19.8816 3.82816 14.2051L2.9641 14.6836L4.1891 11.5773L6.02113 14.5277L4.8973 14.1996C4.79066 15.7773 5.91176 20.2863 9.15199 22.2058C12.1297 23.9668 14.0684 21.5305 13.27 19.1242C12.4661 16.6988 10.2102 15.0008 9.16293 12.6711C7.74652 9.52108 8.41645 5.56991 10.7079 3.00507C5.34574 3.92108 0.968002 8.22499 0.207846 13.8988Z" fill="#368137"/>
</g>
</g>
</g>
</g>
<mask id="mask9_293_2" style="mask-type:luminance" maskUnits="userSpaceOnUse" x="11" y="0" width="24" height="19">
<path d="M11.2 0L35 0V18.2H11.2L11.2 0Z" fill="white"/>
</mask>
<g mask="url(#mask9_293_2)">
<mask id="mask10_293_2" style="mask-type:luminance" maskUnits="userSpaceOnUse" x="-8" y="-9" width="51" height="50">
<path d="M13.9097 -8.57773L42.1887 13.2098L21.0383 40.6574L-7.24066 18.8672L13.9097 -8.57773Z" fill="white"/>
</mask>
<g mask="url(#mask10_293_2)">
<mask id="mask11_293_2" style="mask-type:luminance" maskUnits="userSpaceOnUse" x="-8" y="-9" width="51" height="50">
<path d="M13.9097 -8.57773L42.1887 13.2098L21.0383 40.6574L-7.24066 18.8672L13.9097 -8.57773Z" fill="white"/>
</mask>
<g mask="url(#mask11_293_2)">
<mask id="mask12_293_2" style="mask-type:luminance" maskUnits="userSpaceOnUse" x="-8" y="-9" width="51" height="50">
<path d="M13.9097 -8.57773L42.1887 13.2098L21.0383 40.6574L-7.24066 18.8672L13.9097 -8.57773Z" fill="white"/>
</mask>
<g mask="url(#mask12_293_2)">
<path d="M29.4246 3.37689C24.4015 -0.494987 16.6824 -0.544207 12.9254 4.16439C11.673 5.73118 10.8636 8.23587 12.2172 9.83548C12.0996 8.26048 13.1879 6.71556 14.5824 5.74759C17.4179 3.78431 22.2797 3.78978 27.3492 6.35736L27.3683 5.37025L29.4437 7.98431L25.9711 8.09915L26.8187 7.28704C25.5062 6.40658 21.041 5.12415 17.757 6.97533C14.741 8.67337 15.8812 11.5691 18.364 12.0804C20.866 12.5945 23.4664 11.4898 26.0066 11.7468C29.4437 12.0941 32.5281 14.648 33.6055 17.9128C35.4949 12.8132 33.9582 6.86868 29.4246 3.37689Z" fill="#6BB44A"/>
</g>
</g>
</g>
</g>
<path d="M64.2403 17.4446H69.521V26.9614C68.3172 27.9035 66.9288 28.6275 65.3558 29.1334C63.7869 29.6328 62.2199 29.8836 60.6529 29.8836C58.4379 29.8836 56.4436 29.3755 54.674 28.3571C52.9024 27.3409 51.514 25.9234 50.5088 24.109C49.5016 22.2946 49 20.2403 49 17.9418C49 15.6455 49.5016 13.589 50.5088 11.7746C51.514 9.95589 52.9104 8.5384 54.6981 7.52653C56.4897 6.5103 58.5141 6 60.7733 6C62.7415 6 64.5091 6.362 66.0781 7.08165C67.6511 7.80348 68.9613 8.84152 70.0106 10.1958L66.2065 13.9379C64.778 12.2282 63.0646 11.3734 61.0702 11.3734C59.2605 11.3734 57.8039 11.9709 56.6964 13.1616C55.5889 14.3545 55.0351 15.9486 55.0351 17.9418C55.0351 19.211 55.2859 20.3406 55.7895 21.3351C56.2911 22.3295 56.9953 23.1058 57.9002 23.6641C58.8091 24.2224 59.8464 24.5015 61.0141 24.5015C62.1577 24.5015 63.2331 24.2485 64.2403 23.7426V17.4446Z" fill="#56B22E"/>
<path d="M83.9808 29.8836C81.7437 29.8836 79.7354 29.369 77.9537 28.3396C76.1761 27.3103 74.7797 25.8885 73.7645 24.0741C72.7472 22.2597 72.2396 20.2163 72.2396 17.9418C72.2396 15.6695 72.7472 13.6239 73.7645 11.8095C74.7797 9.99078 76.1761 8.56893 77.9537 7.54397C79.7354 6.51466 81.7437 6 83.9808 6C86.2119 6 88.2183 6.51466 89.9999 7.54397C91.7815 8.56893 93.18 9.99078 94.1972 11.8095C95.2124 13.6239 95.722 15.6695 95.722 17.9418C95.722 20.2163 95.2124 22.2597 94.1972 24.0741C93.18 25.8885 91.7815 27.3103 89.9999 28.3396C88.2183 29.369 86.2119 29.8836 83.9808 29.8836ZM83.9808 24.5015C85.0442 24.5015 86.0113 24.2289 86.878 23.6816C87.7448 23.1364 88.4289 22.3644 88.9325 21.37C89.4341 20.3755 89.6869 19.2328 89.6869 17.9418C89.6869 16.6508 89.4341 15.5081 88.9325 14.5137C88.4289 13.5149 87.7448 12.7407 86.878 12.1933C86.0113 11.6482 85.0442 11.3734 83.9808 11.3734C82.9155 11.3734 81.9504 11.6482 81.0836 12.1933C80.2169 12.7407 79.5307 13.5149 79.0291 14.5137C78.5255 15.5081 78.2747 16.6508 78.2747 17.9418C78.2747 19.2328 78.5255 20.3755 79.0291 21.37C79.5307 22.3644 80.2169 23.1364 81.0836 23.6816C81.9504 24.2289 82.9155 24.5015 83.9808 24.5015Z" fill="black"/>
<path d="M129.693 30C127.456 30 125.447 29.4854 123.666 28.456C121.888 27.4267 120.492 26.0049 119.476 24.1905C118.459 22.3761 117.952 20.3327 117.952 18.0582C117.952 15.7859 118.459 13.7403 119.476 11.9259C120.492 10.1072 121.888 8.68532 123.666 7.66037C125.447 6.63105 127.456 6.11639 129.693 6.11639C131.924 6.11639 133.93 6.63105 135.712 7.66037C137.494 8.68532 138.892 10.1072 139.909 11.9259C140.924 13.7403 141.434 15.7859 141.434 18.0582C141.434 20.3327 140.924 22.3761 139.909 24.1905C138.892 26.0049 137.494 27.4267 135.712 28.456C133.93 29.4854 131.924 30 129.693 30ZM129.693 24.6179C130.756 24.6179 131.723 24.3453 132.59 23.7979C133.457 23.2528 134.141 22.4808 134.644 21.4863C135.146 20.4919 135.399 19.3492 135.399 18.0582C135.399 16.7672 135.146 15.6245 134.644 14.6301C134.141 13.6313 133.457 12.8571 132.59 12.3097C131.723 11.7645 130.756 11.4898 129.693 11.4898C128.627 11.4898 127.662 11.7645 126.796 12.3097C125.929 12.8571 125.243 13.6313 124.741 14.6301C124.238 15.6245 123.987 16.7672 123.987 18.0582C123.987 19.3492 124.238 20.4919 124.741 21.4863C125.243 22.4808 125.929 23.2528 126.796 23.7979C127.662 24.3453 128.627 24.6179 129.693 24.6179Z" fill="black"/>
<path d="M106.279 29.8836C104.571 29.8836 102.912 29.6525 101.303 29.1945C99.6917 28.7365 98.3835 28.1216 97.3784 27.3539L99.3366 22.565C100.284 23.2454 101.379 23.7928 102.627 24.2049C103.879 24.6193 105.107 24.8243 106.311 24.8243C108.606 24.8243 109.754 24.2028 109.754 22.9575C109.754 22.3011 109.427 21.8148 108.774 21.5008C108.12 21.1824 107.069 20.8466 105.62 20.4977C104.031 20.1269 102.701 19.7278 101.632 19.3026C100.566 18.873 99.6516 18.1904 98.8871 17.2527C98.1207 16.3106 97.7395 15.0414 97.7395 13.4407C97.7395 12.0451 98.0886 10.7846 98.7908 9.65494C99.4971 8.52749 100.548 7.63775 101.945 6.9857C103.345 6.32929 105.063 6 107.097 6C108.488 6 109.858 6.1701 111.206 6.50593C112.554 6.84395 113.738 7.34116 114.761 7.99757L112.924 12.8214C110.911 11.6416 108.959 11.0506 107.065 11.0506C105.877 11.0506 105.011 11.2425 104.465 11.6263C103.923 12.0058 103.654 12.503 103.654 13.118C103.654 13.7286 103.975 14.1887 104.617 14.4962C105.263 14.7993 106.303 15.1156 107.731 15.447C109.34 15.8199 110.672 16.219 111.728 16.6421C112.787 17.0673 113.702 17.7455 114.473 18.6745C115.247 19.6057 115.636 20.8706 115.636 22.4691C115.636 23.8473 115.283 25.0947 114.577 26.2112C113.875 27.3234 112.821 28.2132 111.415 28.8805C110.006 29.5478 108.295 29.8836 106.279 29.8836Z" fill="black"/>
<path d="M153.971 23.3152H150.712V29.4213H144.733V6.45358H154.396C156.306 6.45358 157.963 6.80032 159.372 7.49162C160.784 8.17856 161.87 9.16208 162.63 10.44C163.394 11.7201 163.778 13.2226 163.778 14.9498C163.778 16.6137 163.419 18.0639 162.702 19.3026C161.99 20.5369 160.971 21.5051 159.645 22.2073L164.203 29.4213H157.807L153.971 23.3152ZM157.743 14.9498C157.743 13.8812 157.43 13.0525 156.804 12.4637C156.182 11.8706 155.259 11.574 154.035 11.574H150.712V18.2994H154.035C155.259 18.2994 156.182 18.0116 156.804 17.4359C157.43 16.8558 157.743 16.0271 157.743 14.9498Z" fill="black"/>
<path d="M171.569 11.6089H165.076V6.45358H184V11.6089H177.54V29.4213H171.569V11.6089Z" fill="black"/>
</svg>
