<svg xmlns="http://www.w3.org/2000/svg" xmlns:xlink="http://www.w3.org/1999/xlink" width="500" zoomAndPan="magnify" viewBox="0 0 375 374.999991" height="500" preserveAspectRatio="xMidYMid meet" version="1.2"><defs><clipPath id="75a701a90a"><path d="M 35 140 L 332 140 L 332 339 L 35 339 Z M 35 140 "/></clipPath><clipPath id="241916c237"><path d="M 0 290.59375 L 43.800781 140.085938 L 331.132812 223.710938 L 287.328125 374.214844 Z M 0 290.59375 "/></clipPath><clipPath id="b086d098a2"><path d="M 0 290.59375 L 83.621094 3.265625 L 370.953125 86.886719 L 287.328125 374.214844 Z M 0 290.59375 "/></clipPath><clipPath id="238e7940f0"><path d="M 301.527344 195.320312 L 337.5 195.320312 L 337.5 231.292969 L 301.527344 231.292969 Z M 301.527344 195.320312 "/></clipPath><clipPath id="2e0b8ccc35"><path d="M 301.527344 213.308594 C 301.527344 223.242188 309.582031 231.292969 319.515625 231.292969 C 329.449219 231.292969 337.5 223.242188 337.5 213.308594 C 337.5 203.375 329.449219 195.320312 319.515625 195.320312 C 309.582031 195.320312 301.527344 203.375 301.527344 213.308594 Z M 301.527344 213.308594 "/></clipPath><clipPath id="19a2a52d31"><path d="M 172.015625 290.125 L 207.984375 290.125 L 207.984375 326.097656 L 172.015625 326.097656 Z M 172.015625 290.125 "/></clipPath><clipPath id="01622ee99b"><path d="M 172.015625 308.113281 C 172.015625 318.046875 180.066406 326.097656 190 326.097656 C 199.933594 326.097656 207.984375 318.046875 207.984375 308.113281 C 207.984375 298.179688 199.933594 290.125 190 290.125 C 180.066406 290.125 172.015625 298.179688 172.015625 308.113281 Z M 172.015625 308.113281 "/></clipPath><clipPath id="f82e447361"><path d="M 214.492188 195.320312 L 250.460938 195.320312 L 250.460938 231.292969 L 214.492188 231.292969 Z M 214.492188 195.320312 "/></clipPath><clipPath id="00540dd453"><path d="M 214.492188 213.308594 C 214.492188 223.242188 222.542969 231.292969 232.476562 231.292969 C 242.410156 231.292969 250.460938 223.242188 250.460938 213.308594 C 250.460938 203.375 242.410156 195.320312 232.476562 195.320312 C 222.542969 195.320312 214.492188 203.375 214.492188 213.308594 Z M 214.492188 213.308594 "/></clipPath><clipPath id="4104787214"><path d="M 257.050781 195.320312 L 293.019531 195.320312 L 293.019531 231.292969 L 257.050781 231.292969 Z M 257.050781 195.320312 "/></clipPath><clipPath id="d82d4a0fe0"><path d="M 257.050781 213.308594 C 257.050781 223.242188 265.101562 231.292969 275.035156 231.292969 C 284.96875 231.292969 293.019531 223.242188 293.019531 213.308594 C 293.019531 203.375 284.96875 195.320312 275.035156 195.320312 C 265.101562 195.320312 257.050781 203.375 257.050781 213.308594 Z M 257.050781 213.308594 "/></clipPath><clipPath id="c3647e0ff4"><path d="M 32 48 L 320 48 L 320 248 L 32 248 Z M 32 48 "/></clipPath><clipPath id="e0fa5a3d68"><path d="M 24.515625 107.027344 L 254.308594 -0.015625 L 319.546875 140.035156 L 89.753906 247.078125 Z M 24.515625 107.027344 "/></clipPath><clipPath id="e4bb63cad6"><path d="M -16.660156 126.207031 L 254.601562 -0.152344 L 380.964844 271.109375 L 109.699219 397.472656 Z M -16.660156 126.207031 "/></clipPath><clipPath id="1a0a1e298d"><path d="M 172.015625 195.320312 L 207.984375 195.320312 L 207.984375 231.292969 L 172.015625 231.292969 Z M 172.015625 195.320312 "/></clipPath><clipPath id="59eda17154"><path d="M 172.015625 213.308594 C 172.015625 223.242188 180.066406 231.292969 190 231.292969 C 199.933594 231.292969 207.984375 223.242188 207.984375 213.308594 C 207.984375 203.375 199.933594 195.320312 190 195.320312 C 180.066406 195.320312 172.015625 203.375 172.015625 213.308594 Z M 172.015625 213.308594 "/></clipPath><clipPath id="01dee7fec9"><path d="M 172.015625 241.960938 L 207.984375 241.960938 L 207.984375 277.929688 L 172.015625 277.929688 Z M 172.015625 241.960938 "/></clipPath><clipPath id="afa5af71f5"><path d="M 172.015625 259.945312 C 172.015625 269.878906 180.066406 277.929688 190 277.929688 C 199.933594 277.929688 207.984375 269.878906 207.984375 259.945312 C 207.984375 250.011719 199.933594 241.960938 190 241.960938 C 180.066406 241.960938 172.015625 250.011719 172.015625 259.945312 Z M 172.015625 259.945312 "/></clipPath><clipPath id="8576941fa9"><path d="M 214.492188 241.960938 L 250.460938 241.960938 L 250.460938 277.929688 L 214.492188 277.929688 Z M 214.492188 241.960938 "/></clipPath><clipPath id="288c5b5008"><path d="M 214.492188 259.945312 C 214.492188 269.878906 222.542969 277.929688 232.476562 277.929688 C 242.410156 277.929688 250.460938 269.878906 250.460938 259.945312 C 250.460938 250.011719 242.410156 241.960938 232.476562 241.960938 C 222.542969 241.960938 214.492188 250.011719 214.492188 259.945312 Z M 214.492188 259.945312 "/></clipPath><clipPath id="6bc4621bd2"><path d="M 214.492188 288.597656 L 250.460938 288.597656 L 250.460938 324.570312 L 214.492188 324.570312 Z M 214.492188 288.597656 "/></clipPath><clipPath id="3a7ff00dd8"><path d="M 214.492188 306.582031 C 214.492188 316.515625 222.542969 324.570312 232.476562 324.570312 C 242.410156 324.570312 250.460938 316.515625 250.460938 306.582031 C 250.460938 296.648438 242.410156 288.597656 232.476562 288.597656 C 222.542969 288.597656 214.492188 296.648438 214.492188 306.582031 Z M 214.492188 306.582031 "/></clipPath><clipPath id="e4e93ff544"><path d="M 257.050781 241.960938 L 293.019531 241.960938 L 293.019531 277.929688 L 257.050781 277.929688 Z M 257.050781 241.960938 "/></clipPath><clipPath id="b522452796"><path d="M 257.050781 259.945312 C 257.050781 269.878906 265.101562 277.929688 275.035156 277.929688 C 284.96875 277.929688 293.019531 269.878906 293.019531 259.945312 C 293.019531 250.011719 284.96875 241.960938 275.035156 241.960938 C 265.101562 241.960938 257.050781 250.011719 257.050781 259.945312 Z M 257.050781 259.945312 "/></clipPath><clipPath id="32827d0fa5"><path d="M 41.445312 147.347656 L 77.414062 147.347656 L 77.414062 183.320312 L 41.445312 183.320312 Z M 41.445312 147.347656 "/></clipPath><clipPath id="0c1db65334"><path d="M 41.445312 165.335938 C 41.445312 175.269531 49.496094 183.320312 59.429688 183.320312 C 69.363281 183.320312 77.414062 175.269531 77.414062 165.335938 C 77.414062 155.402344 69.363281 147.347656 59.429688 147.347656 C 49.496094 147.347656 41.445312 155.402344 41.445312 165.335938 Z M 41.445312 165.335938 "/></clipPath><clipPath id="3e9e4a39d4"><path d="M 41.445312 195.320312 L 77.414062 195.320312 L 77.414062 231.292969 L 41.445312 231.292969 Z M 41.445312 195.320312 "/></clipPath><clipPath id="8c11546ede"><path d="M 41.445312 213.308594 C 41.445312 223.242188 49.496094 231.292969 59.429688 231.292969 C 69.363281 231.292969 77.414062 223.242188 77.414062 213.308594 C 77.414062 203.375 69.363281 195.320312 59.429688 195.320312 C 49.496094 195.320312 41.445312 203.375 41.445312 213.308594 Z M 41.445312 213.308594 "/></clipPath><clipPath id="64c79a2069"><path d="M 290.757812 123.53125 L 326.730469 123.53125 L 326.730469 159.503906 L 290.757812 159.503906 Z M 290.757812 123.53125 "/></clipPath><clipPath id="f4f7fb1c34"><path d="M 290.757812 141.515625 C 290.757812 151.449219 298.8125 159.503906 308.746094 159.503906 C 318.679688 159.503906 326.730469 151.449219 326.730469 141.515625 C 326.730469 131.582031 318.679688 123.53125 308.746094 123.53125 C 298.8125 123.53125 290.757812 131.582031 290.757812 141.515625 Z M 290.757812 141.515625 "/></clipPath><clipPath id="239ffadbdf"><path d="M 128.042969 288.597656 L 164.011719 288.597656 L 164.011719 324.570312 L 128.042969 324.570312 Z M 128.042969 288.597656 "/></clipPath><clipPath id="249f37fea1"><path d="M 128.042969 306.582031 C 128.042969 316.515625 136.09375 324.570312 146.027344 324.570312 C 155.960938 324.570312 164.011719 316.515625 164.011719 306.582031 C 164.011719 296.648438 155.960938 288.597656 146.027344 288.597656 C 136.09375 288.597656 128.042969 296.648438 128.042969 306.582031 Z M 128.042969 306.582031 "/></clipPath><clipPath id="cc8312c9d1"><path d="M 129.390625 241.960938 L 165.359375 241.960938 L 165.359375 277.929688 L 129.390625 277.929688 Z M 129.390625 241.960938 "/></clipPath><clipPath id="5a99f31cfd"><path d="M 129.390625 259.945312 C 129.390625 269.878906 137.441406 277.929688 147.375 277.929688 C 157.308594 277.929688 165.359375 269.878906 165.359375 259.945312 C 165.359375 250.011719 157.308594 241.960938 147.375 241.960938 C 137.441406 241.960938 129.390625 250.011719 129.390625 259.945312 Z M 129.390625 259.945312 "/></clipPath><clipPath id="7a70c64536"><path d="M 85.417969 241.960938 L 121.386719 241.960938 L 121.386719 277.929688 L 85.417969 277.929688 Z M 85.417969 241.960938 "/></clipPath><clipPath id="5422ddd534"><path d="M 85.417969 259.945312 C 85.417969 269.878906 93.46875 277.929688 103.402344 277.929688 C 113.335938 277.929688 121.386719 269.878906 121.386719 259.945312 C 121.386719 250.011719 113.335938 241.960938 103.402344 241.960938 C 93.46875 241.960938 85.417969 250.011719 85.417969 259.945312 Z M 85.417969 259.945312 "/></clipPath><clipPath id="60f1d2b60d"><path d="M 129.390625 195.320312 L 165.359375 195.320312 L 165.359375 231.292969 L 129.390625 231.292969 Z M 129.390625 195.320312 "/></clipPath><clipPath id="833bbcbf17"><path d="M 129.390625 213.308594 C 129.390625 223.242188 137.441406 231.292969 147.375 231.292969 C 157.308594 231.292969 165.359375 223.242188 165.359375 213.308594 C 165.359375 203.375 157.308594 195.320312 147.375 195.320312 C 137.441406 195.320312 129.390625 203.375 129.390625 213.308594 Z M 129.390625 213.308594 "/></clipPath><clipPath id="a71606df3f"><path d="M 85.417969 195.320312 L 121.386719 195.320312 L 121.386719 231.292969 L 85.417969 231.292969 Z M 85.417969 195.320312 "/></clipPath><clipPath id="e2588d592b"><path d="M 85.417969 213.308594 C 85.417969 223.242188 93.46875 231.292969 103.402344 231.292969 C 113.335938 231.292969 121.386719 223.242188 121.386719 213.308594 C 121.386719 203.375 113.335938 195.320312 103.402344 195.320312 C 93.46875 195.320312 85.417969 203.375 85.417969 213.308594 Z M 85.417969 213.308594 "/></clipPath><clipPath id="f248154c46"><path d="M 85.417969 147.347656 L 121.386719 147.347656 L 121.386719 183.320312 L 85.417969 183.320312 Z M 85.417969 147.347656 "/></clipPath><clipPath id="4fc851a835"><path d="M 85.417969 165.335938 C 85.417969 175.269531 93.46875 183.320312 103.402344 183.320312 C 113.335938 183.320312 121.386719 175.269531 121.386719 165.335938 C 121.386719 155.402344 113.335938 147.347656 103.402344 147.347656 C 93.46875 147.347656 85.417969 155.402344 85.417969 165.335938 Z M 85.417969 165.335938 "/></clipPath><clipPath id="881932e514"><path d="M 85.417969 102.132812 L 121.386719 102.132812 L 121.386719 138.101562 L 85.417969 138.101562 Z M 85.417969 102.132812 "/></clipPath><clipPath id="ea91658b45"><path d="M 85.417969 120.117188 C 85.417969 130.050781 93.46875 138.101562 103.402344 138.101562 C 113.335938 138.101562 121.386719 130.050781 121.386719 120.117188 C 121.386719 110.183594 113.335938 102.132812 103.402344 102.132812 C 93.46875 102.132812 85.417969 110.183594 85.417969 120.117188 Z M 85.417969 120.117188 "/></clipPath><clipPath id="32d42a271f"><path d="M 128.714844 148.371094 L 164.6875 148.371094 L 164.6875 184.34375 L 128.714844 184.34375 Z M 128.714844 148.371094 "/></clipPath><clipPath id="e9413668c2"><path d="M 128.714844 166.355469 C 128.714844 176.289062 136.769531 184.34375 146.699219 184.34375 C 156.632812 184.34375 164.6875 176.289062 164.6875 166.355469 C 164.6875 156.425781 156.632812 148.371094 146.699219 148.371094 C 136.769531 148.371094 128.714844 156.425781 128.714844 166.355469 Z M 128.714844 166.355469 "/></clipPath></defs><g id="9db5ae7421"><g clip-rule="nonzero" clip-path="url(#75a701a90a)"><g clip-rule="nonzero" clip-path="url(#241916c237)"><g clip-rule="nonzero" clip-path="url(#b086d098a2)"><path style=" stroke:none;fill-rule:nonzero;fill:#545454;fill-opacity:1;" d="M 41.761719 147.101562 C 45.59375 133.929688 50.972656 121.714844 57.898438 110.457031 C 64.824219 99.199219 72.964844 89.152344 82.324219 80.324219 C 91.679688 71.496094 101.96875 64.003906 113.183594 57.84375 C 124.402344 51.683594 136.292969 47.039062 148.855469 43.90625 C 161.421875 40.773438 174.265625 39.292969 187.386719 39.464844 C 200.511719 39.636719 213.71875 41.605469 227.011719 45.371094 C 240.183594 49.207031 252.398438 54.585938 263.65625 61.511719 C 274.917969 68.433594 284.960938 76.578125 293.789062 85.933594 C 302.617188 95.292969 310.109375 105.582031 316.269531 116.796875 C 322.429688 128.011719 327.074219 139.902344 330.207031 152.46875 C 333.339844 165.03125 334.820312 177.875 334.648438 191 C 334.476562 204.121094 332.507812 217.332031 328.742188 230.625 C 324.90625 243.796875 319.527344 256.011719 312.605469 267.269531 C 305.679688 278.527344 297.539062 288.570312 288.179688 297.398438 C 278.820312 306.226562 268.535156 313.722656 257.316406 319.882812 C 246.101562 326.042969 234.210938 330.6875 221.644531 333.820312 C 209.082031 336.953125 196.285156 338.445312 183.253906 338.300781 C 170.226562 338.15625 156.96875 336.175781 143.492188 332.351562 C 130.320312 328.519531 118.101562 323.140625 106.84375 316.214844 C 95.585938 309.292969 85.542969 301.148438 76.714844 291.792969 C 67.886719 282.433594 60.390625 272.144531 54.234375 260.929688 C 48.074219 249.714844 43.425781 237.824219 40.292969 225.257812 C 37.164062 212.695312 35.667969 199.894531 35.8125 186.867188 C 35.957031 173.835938 37.9375 160.582031 41.761719 147.101562 Z M 310.804688 225.402344 C 314.148438 213.914062 315.875 202.40625 315.984375 190.886719 C 316.097656 179.367188 314.800781 168.148438 312.101562 157.230469 C 309.402344 146.3125 305.289062 135.894531 299.765625 125.976562 C 294.242188 116.058594 287.691406 107.0625 280.113281 98.976562 C 272.535156 90.894531 263.777344 83.734375 253.835938 77.5 C 243.898438 71.261719 233.214844 66.53125 221.789062 63.308594 C 210.300781 59.964844 198.796875 58.238281 187.277344 58.128906 C 175.757812 58.019531 164.535156 59.3125 153.617188 62.011719 C 142.699219 64.710938 132.28125 68.824219 122.363281 74.347656 C 112.449219 79.871094 103.449219 86.421875 95.367188 94 C 87.28125 101.578125 80.125 110.339844 73.886719 120.277344 C 67.652344 130.21875 62.921875 140.898438 59.695312 152.324219 C 56.351562 163.8125 54.625 175.320312 54.515625 186.839844 C 54.40625 198.359375 55.699219 209.578125 58.398438 220.496094 C 61.101562 231.414062 65.210938 241.832031 70.734375 251.75 C 76.261719 261.664062 82.8125 270.664062 90.390625 278.75 C 97.96875 286.832031 106.726562 293.992188 116.664062 300.226562 C 126.605469 306.464844 137.285156 311.195312 148.710938 314.417969 C 160.203125 317.761719 171.707031 319.488281 183.226562 319.597656 C 194.746094 319.707031 205.964844 318.414062 216.882812 315.714844 C 227.800781 313.015625 238.21875 308.902344 248.136719 303.378906 C 258.054688 297.855469 267.054688 291.300781 275.136719 283.722656 C 283.21875 276.144531 290.378906 267.386719 296.613281 257.449219 C 302.851562 247.507812 307.582031 236.828125 310.804688 225.402344 Z M 310.804688 225.402344 "/></g></g></g><g clip-rule="nonzero" clip-path="url(#238e7940f0)"><g clip-rule="nonzero" clip-path="url(#2e0b8ccc35)"><path style=" stroke:none;fill-rule:nonzero;fill:#545454;fill-opacity:1;" d="M 301.527344 231.292969 L 301.527344 195.320312 L 337.5 195.320312 L 337.5 231.292969 Z M 301.527344 231.292969 "/></g></g><g clip-rule="nonzero" clip-path="url(#19a2a52d31)"><g clip-rule="nonzero" clip-path="url(#01622ee99b)"><path style=" stroke:none;fill-rule:nonzero;fill:#545454;fill-opacity:1;" d="M 172.015625 326.097656 L 172.015625 290.125 L 207.984375 290.125 L 207.984375 326.097656 Z M 172.015625 326.097656 "/></g></g><g clip-rule="nonzero" clip-path="url(#f82e447361)"><g clip-rule="nonzero" clip-path="url(#00540dd453)"><path style=" stroke:none;fill-rule:nonzero;fill:#545454;fill-opacity:1;" d="M 214.492188 231.292969 L 214.492188 195.320312 L 250.460938 195.320312 L 250.460938 231.292969 Z M 214.492188 231.292969 "/></g></g><g clip-rule="nonzero" clip-path="url(#4104787214)"><g clip-rule="nonzero" clip-path="url(#d82d4a0fe0)"><path style=" stroke:none;fill-rule:nonzero;fill:#545454;fill-opacity:1;" d="M 257.050781 231.292969 L 257.050781 195.320312 L 293.019531 195.320312 L 293.019531 231.292969 Z M 257.050781 231.292969 "/></g></g><g clip-rule="nonzero" clip-path="url(#c3647e0ff4)"><g clip-rule="nonzero" clip-path="url(#e0fa5a3d68)"><g clip-rule="nonzero" clip-path="url(#e4bb63cad6)"><path style=" stroke:none;fill-rule:nonzero;fill:#545454;fill-opacity:1;" d="M 118.808594 63.105469 C 131.242188 57.3125 143.976562 53.3125 157.007812 51.105469 C 170.042969 48.898438 182.960938 48.40625 195.765625 49.632812 C 208.574219 50.859375 220.988281 53.664062 233.011719 58.042969 C 245.035156 62.425781 256.363281 68.3125 266.996094 75.699219 C 277.628906 83.089844 287.203125 91.777344 295.71875 101.765625 C 304.234375 111.75 311.457031 122.984375 317.378906 135.46875 C 323.167969 147.902344 327.167969 160.636719 329.375 173.671875 C 331.582031 186.703125 332.074219 199.621094 330.847656 212.429688 C 329.621094 225.234375 326.820312 237.652344 322.4375 249.671875 C 318.054688 261.695312 312.171875 273.023438 304.78125 283.65625 C 297.390625 294.292969 288.703125 303.867188 278.71875 312.382812 C 268.730469 320.898438 257.496094 328.117188 245.011719 334.039062 C 232.578125 339.832031 219.84375 343.832031 206.8125 346.039062 C 193.777344 348.246094 180.859375 348.734375 168.054688 347.511719 C 155.246094 346.285156 142.832031 343.480469 130.808594 339.097656 C 118.785156 334.71875 107.457031 328.832031 96.824219 321.441406 C 86.191406 314.050781 76.636719 305.410156 68.160156 295.511719 C 59.6875 285.613281 52.449219 274.332031 46.441406 261.675781 C 40.652344 249.238281 36.652344 236.503906 34.445312 223.472656 C 32.238281 210.441406 31.746094 197.519531 32.972656 184.714844 C 34.199219 171.90625 37 159.492188 41.382812 147.46875 C 45.765625 135.445312 51.648438 124.117188 59.039062 113.484375 C 66.429688 102.851562 75.074219 93.296875 84.972656 84.824219 C 94.871094 76.347656 106.148438 69.109375 118.808594 63.105469 Z M 237.125 317.105469 C 247.972656 312.050781 257.765625 305.773438 266.507812 298.265625 C 275.246094 290.761719 282.835938 282.398438 289.269531 273.171875 C 295.707031 263.949219 300.835938 253.992188 304.660156 243.304688 C 308.480469 232.617188 310.9375 221.757812 312.027344 210.730469 C 313.113281 199.707031 312.730469 188.398438 310.878906 176.8125 C 309.023438 165.226562 305.542969 154.074219 300.445312 143.355469 C 295.390625 132.507812 289.109375 122.714844 281.605469 113.976562 C 274.101562 105.234375 265.734375 97.648438 256.511719 91.210938 C 247.289062 84.773438 237.332031 79.644531 226.644531 75.824219 C 215.953125 72 205.097656 69.546875 194.070312 68.457031 C 183.042969 67.367188 171.738281 67.75 160.152344 69.605469 C 148.566406 71.460938 137.414062 74.9375 126.695312 80.039062 C 115.847656 85.089844 106.054688 91.371094 97.3125 98.875 C 88.574219 106.382812 80.984375 114.746094 74.550781 123.96875 C 68.113281 133.195312 62.984375 143.148438 59.160156 153.839844 C 55.339844 164.527344 52.882812 175.386719 51.792969 186.410156 C 50.707031 197.4375 51.089844 208.742188 52.945312 220.328125 C 54.796875 231.914062 58.277344 243.070312 63.375 253.785156 C 68.429688 264.636719 74.710938 274.429688 82.214844 283.167969 C 89.71875 291.90625 98.085938 299.496094 107.308594 305.933594 C 116.53125 312.371094 126.488281 317.5 137.175781 321.320312 C 147.867188 325.144531 158.722656 327.597656 169.75 328.6875 C 180.777344 329.777344 192.082031 329.394531 203.667969 327.539062 C 215.253906 325.683594 226.40625 322.207031 237.125 317.105469 Z M 237.125 317.105469 "/></g></g></g><g clip-rule="nonzero" clip-path="url(#1a0a1e298d)"><g clip-rule="nonzero" clip-path="url(#59eda17154)"><path style=" stroke:none;fill-rule:nonzero;fill:#545454;fill-opacity:1;" d="M 172.015625 231.292969 L 172.015625 195.320312 L 207.984375 195.320312 L 207.984375 231.292969 Z M 172.015625 231.292969 "/></g></g><g clip-rule="nonzero" clip-path="url(#01dee7fec9)"><g clip-rule="nonzero" clip-path="url(#afa5af71f5)"><path style=" stroke:none;fill-rule:nonzero;fill:#545454;fill-opacity:1;" d="M 172.015625 277.929688 L 172.015625 241.960938 L 207.984375 241.960938 L 207.984375 277.929688 Z M 172.015625 277.929688 "/></g></g><g clip-rule="nonzero" clip-path="url(#8576941fa9)"><g clip-rule="nonzero" clip-path="url(#288c5b5008)"><path style=" stroke:none;fill-rule:nonzero;fill:#737373;fill-opacity:1;" d="M 214.492188 277.929688 L 214.492188 241.960938 L 250.460938 241.960938 L 250.460938 277.929688 Z M 214.492188 277.929688 "/></g></g><g clip-rule="nonzero" clip-path="url(#6bc4621bd2)"><g clip-rule="nonzero" clip-path="url(#3a7ff00dd8)"><path style=" stroke:none;fill-rule:nonzero;fill:#737373;fill-opacity:1;" d="M 214.492188 324.570312 L 214.492188 288.597656 L 250.460938 288.597656 L 250.460938 324.570312 Z M 214.492188 324.570312 "/></g></g><g clip-rule="nonzero" clip-path="url(#e4e93ff544)"><g clip-rule="nonzero" clip-path="url(#b522452796)"><path style=" stroke:none;fill-rule:nonzero;fill:#737373;fill-opacity:1;" d="M 257.050781 277.929688 L 257.050781 241.960938 L 293.019531 241.960938 L 293.019531 277.929688 Z M 257.050781 277.929688 "/></g></g><g clip-rule="nonzero" clip-path="url(#32827d0fa5)"><g clip-rule="nonzero" clip-path="url(#0c1db65334)"><path style=" stroke:none;fill-rule:nonzero;fill:#737373;fill-opacity:1;" d="M 41.445312 183.320312 L 41.445312 147.347656 L 77.414062 147.347656 L 77.414062 183.320312 Z M 41.445312 183.320312 "/></g></g><g clip-rule="nonzero" clip-path="url(#3e9e4a39d4)"><g clip-rule="nonzero" clip-path="url(#8c11546ede)"><path style=" stroke:none;fill-rule:nonzero;fill:#b4b4b4;fill-opacity:1;" d="M 41.445312 231.292969 L 41.445312 195.320312 L 77.414062 195.320312 L 77.414062 231.292969 Z M 41.445312 231.292969 "/></g></g><g clip-rule="nonzero" clip-path="url(#64c79a2069)"><g clip-rule="nonzero" clip-path="url(#f4f7fb1c34)"><path style=" stroke:none;fill-rule:nonzero;fill:#545454;fill-opacity:1;" d="M 290.757812 159.503906 L 290.757812 123.53125 L 326.730469 123.53125 L 326.730469 159.503906 Z M 290.757812 159.503906 "/></g></g><g clip-rule="nonzero" clip-path="url(#239ffadbdf)"><g clip-rule="nonzero" clip-path="url(#249f37fea1)"><path style=" stroke:none;fill-rule:nonzero;fill:#737373;fill-opacity:1;" d="M 128.042969 324.570312 L 128.042969 288.597656 L 164.011719 288.597656 L 164.011719 324.570312 Z M 128.042969 324.570312 "/></g></g><g clip-rule="nonzero" clip-path="url(#cc8312c9d1)"><g clip-rule="nonzero" clip-path="url(#5a99f31cfd)"><path style=" stroke:none;fill-rule:nonzero;fill:#737373;fill-opacity:1;" d="M 129.390625 277.929688 L 129.390625 241.960938 L 165.359375 241.960938 L 165.359375 277.929688 Z M 129.390625 277.929688 "/></g></g><g clip-rule="nonzero" clip-path="url(#7a70c64536)"><g clip-rule="nonzero" clip-path="url(#5422ddd534)"><path style=" stroke:none;fill-rule:nonzero;fill:#737373;fill-opacity:1;" d="M 85.417969 277.929688 L 85.417969 241.960938 L 121.386719 241.960938 L 121.386719 277.929688 Z M 85.417969 277.929688 "/></g></g><g clip-rule="nonzero" clip-path="url(#60f1d2b60d)"><g clip-rule="nonzero" clip-path="url(#833bbcbf17)"><path style=" stroke:none;fill-rule:nonzero;fill:#b4b4b4;fill-opacity:1;" d="M 129.390625 231.292969 L 129.390625 195.320312 L 165.359375 195.320312 L 165.359375 231.292969 Z M 129.390625 231.292969 "/></g></g><g clip-rule="nonzero" clip-path="url(#a71606df3f)"><g clip-rule="nonzero" clip-path="url(#e2588d592b)"><path style=" stroke:none;fill-rule:nonzero;fill:#b4b4b4;fill-opacity:1;" d="M 85.417969 231.292969 L 85.417969 195.320312 L 121.386719 195.320312 L 121.386719 231.292969 Z M 85.417969 231.292969 "/></g></g><g clip-rule="nonzero" clip-path="url(#f248154c46)"><g clip-rule="nonzero" clip-path="url(#4fc851a835)"><path style=" stroke:none;fill-rule:nonzero;fill:#737373;fill-opacity:1;" d="M 85.417969 183.320312 L 85.417969 147.347656 L 121.386719 147.347656 L 121.386719 183.320312 Z M 85.417969 183.320312 "/></g></g><g clip-rule="nonzero" clip-path="url(#881932e514)"><g clip-rule="nonzero" clip-path="url(#ea91658b45)"><path style=" stroke:none;fill-rule:nonzero;fill:#737373;fill-opacity:1;" d="M 85.417969 138.101562 L 85.417969 102.132812 L 121.386719 102.132812 L 121.386719 138.101562 Z M 85.417969 138.101562 "/></g></g><g clip-rule="nonzero" clip-path="url(#32d42a271f)"><g clip-rule="nonzero" clip-path="url(#e9413668c2)"><path style=" stroke:none;fill-rule:nonzero;fill:#737373;fill-opacity:1;" d="M 128.714844 184.34375 L 128.714844 148.371094 L 164.6875 148.371094 L 164.6875 184.34375 Z M 128.714844 184.34375 "/></g></g></g></svg>